<svg width="700" height="700" viewBox="0 0 916 798" fill="none" xmlns="http://www.w3.org/2000/svg">
<path opacity="0.7" d="M869.223 231.53C864.516 194.895 855.331 159.772 836.092 127.785C800.326 68.3181 736.065 32.4049 670.822 14.1828C616.144 -1.08719 557.274 -5.48993 502.737 10.2799C442.875 27.5883 392.645 67.459 338.738 98.7175C299.428 121.512 257.944 140.384 215.535 156.623C181.211 169.765 137.588 177.127 109.379 202.089C92.0749 217.4 76.8518 235.078 63.788 254.114C11.1288 330.858 -6.03312 428.918 2.10269 520.44C7.77061 584.218 25.3094 648.743 64.651 699.258C119.852 770.139 214.594 805.066 304.002 796.263C405.468 786.27 501.681 725.612 602.592 740.167C652.823 747.413 700.898 773.228 751.419 768.427C801.222 763.694 843.857 729.45 873.899 689.449C897.994 657.366 914.028 618.583 915.511 578.207C917.118 534.478 897.325 494.615 887.394 452.864C870.033 379.867 878.691 305.223 869.223 231.53Z" fill="url(#paint0_linear_531_3292)"/>
<defs>
<linearGradient id="paint0_linear_531_3292" x1="457.892" y1="0.385773" x2="457.892" y2="797.6" gradientUnits="userSpaceOnUse">
<stop stop-color="#2563EB" stop-opacity="0.15"/>
<stop offset="1" stop-color="#2563EB" stop-opacity="0.3"/>
</linearGradient>
</defs>
</svg>
