<svg width="562" height="562" viewBox="0 0 562 562" fill="none" xmlns="http://www.w3.org/2000/svg">
<path d="M151.193 217.654V226.08H159.618V217.654V209.228H151.193V217.654Z" fill="#EBEBEB"/>
<path d="M159.618 167.101H151.193V175.526H159.618V167.101Z" fill="#EBEBEB"/>
<path d="M211.684 259.868H203.258V268.293H211.684V259.868Z" fill="#EBEBEB"/>
<path d="M159.618 183.952V192.377H151.193V200.803H159.618V209.228H168.045H176.47V217.654H184.896V209.228H193.321V200.803V192.377H184.896V200.803H176.47H168.045V192.377V183.952V175.526H159.618V183.952Z" fill="#EBEBEB"/>
<path d="M176.47 167.101H168.045V175.526H176.47H184.896V167.101H176.47Z" fill="#EBEBEB"/>
<path d="M214.385 234.834H218.912V226.408H214.385H209.859V234.834H214.385Z" fill="#EBEBEB"/>
<path d="M193.321 175.526H184.896V183.952H193.321V175.526Z" fill="#EBEBEB"/>
<path d="M252.301 209.228H243.875V217.654H252.301V209.228Z" fill="#EBEBEB"/>
<path d="M260.726 116.546H252.301V124.972H260.726V116.546Z" fill="#EBEBEB"/>
<path d="M210.172 183.952V175.526H218.598V167.101H210.172V158.675H201.747V167.101H193.321V175.526H201.747V183.952V192.377V200.803V209.228H210.172V200.803V192.377H218.598V183.952H210.172Z" fill="#EBEBEB"/>
<path d="M252.301 268.208H260.726V259.782H252.301H243.875V268.208H252.301Z" fill="#EBEBEB"/>
<path d="M243.875 116.546H235.45V124.972H243.875V116.546Z" fill="#EBEBEB"/>
<path d="M241.769 183.952V175.526H233.343V167.101H224.917V175.526V183.952H216.491V192.377H224.917H233.343V183.952H241.769Z" fill="#EBEBEB"/>
<path d="M289.325 167.101H280.9V175.526H289.325V167.101Z" fill="#EBEBEB"/>
<path d="M201.989 209.228H193.564V217.654H201.989V209.228Z" fill="#EBEBEB"/>
<path d="M235.45 158.675V150.25H243.875V141.823H252.301H260.726V133.397H252.301V124.972H243.875V133.397H235.45V141.823H227.024V150.25H218.599V158.675H227.024H235.45Z" fill="#EBEBEB"/>
<path d="M235.45 217.654V209.228H243.875V200.803H235.45H227.024V209.228H218.598V217.654H227.024H235.45Z" fill="#EBEBEB"/>
<path d="M260.726 251.352V242.927H252.301H243.875V234.501H235.45V242.927H227.024V251.352H218.598H210.172V259.778H218.598H227.024H235.45V251.352H243.875V259.778H252.301V251.352H260.726Z" fill="#EBEBEB"/>
<path d="M227.024 124.972V116.546H218.599H210.172V124.972H201.747V133.397H210.172H218.599V124.972H227.024Z" fill="#EBEBEB"/>
<path d="M227.024 133.397H218.599V141.823H227.024V133.397Z" fill="#EBEBEB"/>
<path d="M248.088 167.101H239.663V175.526V183.952V192.377H248.088H256.514V183.952H248.088V175.526H256.514V167.101H264.939V158.675H256.514V150.25H248.088V158.675V167.101Z" fill="#EBEBEB"/>
<path d="M218.598 141.823H210.172V150.248H218.598V141.823Z" fill="#EBEBEB"/>
<path d="M243.875 226.08V234.506H252.301H260.726V226.08H269.152H277.577V217.654H269.152H260.726H252.301V226.08H243.875Z" fill="#EBEBEB"/>
<path d="M289.325 192.377H280.9V200.803H289.325V192.377Z" fill="#EBEBEB"/>
<path d="M260.726 200.803H252.301V209.228H260.726V200.803Z" fill="#EBEBEB"/>
<path d="M281.79 175.526H273.365H264.939V183.952H273.365V192.377H281.79V183.952V175.526Z" fill="#EBEBEB"/>
<path d="M277.577 200.803H269.152V209.228H277.577V200.803Z" fill="#EBEBEB"/>
<path d="M184.896 251.514H210.182V217.645H176.313V226.08H168.046V234.506H176.313V242.931H168.046V251.357H176.313V251.514H176.471V259.782H168.046V268.208V276.633H176.471V268.208H184.897V259.782L184.896 251.514ZM203.696 224.131V245.195H182.632V224.131H203.696Z" fill="#EBEBEB"/>
<path d="M294.428 217.654H302.855V209.228H294.428H286.003H277.577V217.654H286.003H294.428Z" fill="#EBEBEB"/>
<path d="M294.428 183.952H302.855V175.526V167.101H294.428V175.526V183.952Z" fill="#EBEBEB"/>
<path d="M227.338 226.408H218.912V234.834V243.259H227.338V234.834V226.408Z" fill="#EBEBEB"/>
<path d="M311.28 217.654H302.855V226.079H311.28V217.654Z" fill="#EBEBEB"/>
<path d="M311.28 200.803V192.377H302.855V200.803V209.228H311.28V200.803Z" fill="#EBEBEB"/>
<path d="M159.619 259.782H151.193V268.208V276.633H159.619V268.208V259.782Z" fill="#EBEBEB"/>
<path d="M311.28 158.675V116.546H269.153V158.675H311.28ZM275.471 152.356V122.866H304.96V152.356H275.471Z" fill="#EBEBEB"/>
<path d="M298.641 129.185H281.79V146.036H298.641V129.185Z" fill="#EBEBEB"/>
<path d="M311.28 234.506H269.153V276.634H311.28V234.506ZM275.471 270.314V240.824H304.96V270.314H275.471Z" fill="#EBEBEB"/>
<path d="M298.641 247.144H281.79V263.995H298.641V247.144Z" fill="#EBEBEB"/>
<path d="M151.088 116.546V158.675H193.216V116.546H151.088ZM186.896 122.866V152.356H157.407V122.866H186.896Z" fill="#EBEBEB"/>
<path d="M180.577 129.185H163.726V146.036H180.577V129.185Z" fill="#EBEBEB"/>
<path d="M83.8616 281.561C83.8515 283.764 82.0576 285.541 79.8545 285.531C77.6515 285.521 75.8744 283.727 75.8846 281.524C75.8947 279.321 77.6886 277.544 79.8916 277.554C82.0935 277.564 83.8717 279.358 83.8616 281.561Z" fill="#EBEBEB"/>
<path d="M71.9011 276.434C76.2814 271.835 83.3996 271.696 87.8923 276.223C89.9278 278.275 93.1155 275.118 91.0788 273.066C84.9148 266.853 74.7977 266.89 68.7438 273.248C66.7543 275.337 69.906 278.529 71.9011 276.434Z" fill="#EBEBEB"/>
<path d="M58.3547 257.869C64.4198 252.626 71.6595 249.326 79.7669 249.307C87.8024 249.286 95.7266 252.139 101.612 257.666C103.715 259.641 106.908 256.49 104.798 254.508C98.0566 248.177 89.0152 244.797 79.7871 244.82C70.4579 244.843 62.1662 248.656 55.1963 254.682C53.009 256.573 56.1786 259.751 58.3547 257.869Z" fill="#EBEBEB"/>
<path d="M63.7004 268.157C67.7659 263.761 73.4646 261.009 79.4859 260.871C85.6723 260.73 91.6442 263.278 95.9446 267.696C97.9622 269.768 101.148 266.611 99.1311 264.539C94.0416 259.31 86.8301 256.218 79.5061 256.386C72.3428 256.55 65.401 259.717 60.542 264.971C58.5862 267.086 61.7356 270.283 63.7004 268.157Z" fill="#EBEBEB"/>
<path d="M256.386 63.4329C257.064 58.502 250.105 54.4454 244.876 54.0239C242.382 53.8227 239.792 54.2038 237.429 53.381C232.311 51.5972 230.266 44.9836 225.271 42.8772C221.537 41.3025 217.238 42.7041 213.618 44.5261C209.998 46.3481 206.421 48.6411 202.377 48.8996C198.859 49.1244 195.04 47.8206 191.961 49.5392C189.668 50.8194 188.467 53.4619 186.352 55.022C184.284 56.5473 181.587 56.871 179.021 57.0104C176.454 57.1498 173.798 57.1756 171.462 58.2457C169.125 59.3157 167.193 61.7863 167.677 64.3097L256.386 63.4329Z" fill="#EBEBEB"/>
<path d="M122.115 146.737C122.723 142.316 116.485 138.68 111.797 138.303C109.562 138.123 107.24 138.464 105.122 137.726C100.534 136.127 98.7006 130.199 94.2238 128.31C90.8765 126.898 87.0234 128.155 83.7784 129.788C80.5334 131.421 77.3267 133.477 73.7018 133.709C70.5478 133.911 67.1241 132.741 64.3647 134.282C62.3089 135.43 61.2321 137.799 59.337 139.196C57.4836 140.564 55.0647 140.853 52.765 140.979C50.4653 141.104 48.0836 141.127 45.9895 142.086C43.8955 143.045 42.1623 145.26 42.5973 147.522L122.115 146.737Z" fill="#F5F5F5"/>
<path d="M543.318 143.61C543.97 138.877 537.29 134.983 532.27 134.579C529.876 134.385 527.39 134.752 525.123 133.962C520.21 132.25 518.247 125.901 513.453 123.879C509.869 122.368 505.743 123.713 502.268 125.462C498.794 127.211 495.36 129.412 491.478 129.66C488.101 129.876 484.435 128.624 481.48 130.274C479.279 131.502 478.126 134.039 476.096 135.536C474.111 137.001 471.521 137.31 469.059 137.445C466.596 137.579 464.046 137.603 461.803 138.631C459.561 139.658 457.705 142.029 458.17 144.451L543.318 143.61Z" fill="#F5F5F5"/>
<path d="M533.295 536.212C533.295 536.374 420.33 536.504 281.011 536.504C141.645 536.504 28.7036 536.373 28.7036 536.212C28.7036 536.05 141.645 535.92 281.011 535.92C420.33 535.919 533.295 536.05 533.295 536.212Z" fill="#263238"/>
<path d="M472.862 486.766C475.114 487.743 476.769 489.825 477.601 492.133C478.432 494.443 478.507 496.965 478.231 499.404C477.696 504.123 475.015 508.886 472.127 512.656C468.154 509.189 467.24 503.139 466.969 500.042C466.541 495.146 468.74 486.037 472.862 486.766Z" fill="#2563EB"/>
<path d="M476.746 520.446C476.11 517.778 477.219 514.853 479.267 513.03C481.314 511.205 484.174 510.434 486.908 510.643C488.172 510.74 489.538 511.109 490.262 512.149C490.939 513.123 490.863 514.481 490.314 515.53C489.765 516.58 488.814 517.366 487.81 517.995C484.368 520.155 480.639 521.614 476.746 520.446Z" fill="#2563EB"/>
<path d="M471.651 534.913C471.627 534.907 471.681 534.563 471.792 533.944C471.917 533.263 472.079 532.381 472.273 531.324C472.713 529.134 473.276 525.997 474.978 522.952C476.656 519.915 479.006 517.678 480.986 516.568C481.968 515.999 482.828 515.661 483.435 515.484C483.735 515.383 483.979 515.345 484.141 515.306C484.304 515.272 484.39 515.258 484.392 515.271C484.42 515.347 483.015 515.6 481.11 516.777C479.201 517.92 476.929 520.134 475.278 523.12C473.61 526.102 473.011 529.195 472.512 531.372C472.271 532.47 472.076 533.36 471.924 533.971C471.772 534.583 471.673 534.918 471.651 534.913Z" fill="#263238"/>
<path d="M471.8 493.852C471.811 493.852 471.828 493.997 471.848 494.274C471.868 494.589 471.891 494.992 471.92 495.491C471.977 496.547 472.038 498.077 472.1 499.968C472.223 503.749 472.318 508.974 472.295 514.746C472.269 520.52 472.127 525.745 471.972 529.525C471.895 531.415 471.819 532.943 471.754 534C471.72 534.499 471.692 534.901 471.671 535.215C471.648 535.493 471.63 535.638 471.618 535.638C471.607 535.638 471.601 535.49 471.601 535.212C471.606 534.897 471.611 534.493 471.619 533.994C471.646 532.894 471.683 531.375 471.728 529.517C471.822 525.737 471.924 520.515 471.95 514.745C471.973 508.976 471.916 503.754 471.856 499.973C471.827 498.115 471.804 496.595 471.787 495.495C471.783 494.995 471.781 494.591 471.779 494.277C471.781 493.998 471.788 493.852 471.8 493.852Z" fill="#263238"/>
<path d="M469.871 523.317C468.968 517.609 465.119 512.447 459.906 509.95C458.579 509.314 456.844 508.899 455.753 509.886C454.659 510.875 454.904 512.651 455.439 514.024C457.665 519.741 463.642 523.777 469.777 523.705" fill="#2563EB"/>
<path d="M460.55 514.426C460.56 514.404 460.859 514.536 461.393 514.793C461.661 514.92 461.989 515.077 462.346 515.301C462.704 515.524 463.134 515.742 463.559 516.062C463.993 516.368 464.476 516.694 464.947 517.106C465.442 517.491 465.922 517.956 466.424 518.448C467.403 519.457 468.389 520.661 469.231 522.054C470.059 523.455 470.659 524.891 471.08 526.234C471.268 526.912 471.451 527.556 471.546 528.175C471.681 528.787 471.73 529.368 471.784 529.896C471.857 530.423 471.833 530.907 471.851 531.327C471.87 531.749 471.843 532.111 471.818 532.406C471.775 532.997 471.739 533.322 471.716 533.32C471.638 533.317 471.773 532.007 471.542 529.921C471.473 529.401 471.41 528.83 471.265 528.23C471.158 527.622 470.97 526.993 470.775 526.328C470.346 525.012 469.748 523.606 468.934 522.231C468.107 520.863 467.147 519.675 466.196 518.67C465.707 518.18 465.242 517.713 464.763 517.325C464.308 516.91 463.838 516.577 463.419 516.261C461.712 515.037 460.515 514.492 460.55 514.426Z" fill="#263238"/>
<path d="M170.911 536.227C170.822 536.239 170.593 535.003 170.142 533.027C169.693 531.051 168.987 528.342 167.974 525.425C166.957 522.508 165.828 519.945 164.954 518.118C164.08 516.289 163.493 515.176 163.57 515.131C163.632 515.094 164.348 516.136 165.324 517.93C166.299 519.722 167.5 522.286 168.527 525.232C169.55 528.179 170.201 530.933 170.548 532.943C170.897 534.956 170.982 536.218 170.911 536.227Z" fill="#263238"/>
<path d="M180.885 487.586C180.925 487.595 180.824 488.272 180.608 489.491C180.386 490.708 180.079 492.472 179.724 494.654C179.009 499.018 178.179 505.072 177.659 511.796C177.148 518.524 177.048 524.635 177.091 529.056C177.111 531.266 177.145 533.056 177.178 534.293C177.206 535.531 177.204 536.216 177.164 536.219C177.123 536.221 177.05 535.54 176.951 534.305C176.847 533.069 176.75 531.279 176.677 529.064C176.528 524.636 176.562 518.502 177.076 511.753C177.597 505.005 178.495 498.939 179.316 494.584C179.725 492.405 180.094 490.651 180.385 489.446C180.67 488.239 180.846 487.577 180.885 487.586Z" fill="#263238"/>
<path d="M196.887 515.583C196.959 515.645 196.164 516.631 195.02 518.315C193.874 519.996 192.423 522.41 191.176 525.249C189.934 528.091 189.141 530.794 188.681 532.776C188.219 534.758 188.033 536.011 187.938 536C187.872 535.993 187.913 534.718 188.277 532.692C188.636 530.667 189.378 527.9 190.639 525.014C191.907 522.132 193.439 519.711 194.684 518.074C195.927 516.433 196.836 515.538 196.887 515.583Z" fill="#263238"/>
<path d="M392.847 519.245C392.914 519.206 393.493 520.055 394.328 521.485C395.164 522.916 396.244 524.937 397.314 527.228C398.383 529.521 399.238 531.646 399.799 533.205C400.36 534.764 400.639 535.752 400.565 535.779C400.487 535.809 400.072 534.872 399.415 533.358C398.758 531.844 397.847 529.756 396.783 527.475C395.719 525.197 394.703 523.158 393.963 521.682C393.225 520.206 392.774 519.287 392.847 519.245Z" fill="#263238"/>
<path d="M413.527 498.768C413.567 498.779 413.463 499.299 413.243 500.227C413.001 501.269 412.696 502.587 412.331 504.159C411.583 507.482 410.671 512.099 409.988 517.249C409.31 522.4 408.989 527.098 408.848 530.5C408.792 532.113 408.744 533.465 408.707 534.533C408.677 535.486 408.641 536.014 408.602 536.014C408.562 536.014 408.52 535.488 408.479 534.533C408.435 533.579 408.417 532.196 408.436 530.488C408.472 527.071 408.728 522.346 409.409 517.172C410.097 511.999 411.077 507.37 411.931 504.062C412.357 502.408 412.734 501.077 413.026 500.168C413.31 499.255 413.488 498.757 413.527 498.768Z" fill="#263238"/>
<path d="M263.92 507.912C263.947 507.882 264.306 508.163 264.937 508.7C265.573 509.229 266.442 510.055 267.464 511.128C269.51 513.266 272.071 516.506 274.237 520.488C276.393 524.479 277.71 528.392 278.384 531.274C278.725 532.715 278.943 533.894 279.039 534.717C279.144 535.538 279.184 535.993 279.144 535.998C279.041 536.015 278.76 534.21 277.983 531.378C277.213 528.547 275.851 524.708 273.722 520.767C271.583 516.834 269.11 513.597 267.158 511.408C265.209 509.21 263.85 507.988 263.92 507.912Z" fill="#263238"/>
<path d="M283.392 495.954C283.432 495.956 283.447 496.525 283.44 497.55C283.437 498.686 283.432 500.144 283.427 501.891C283.437 505.554 283.578 510.615 284.059 516.182C284.548 521.751 285.286 526.759 285.91 530.37C286.218 532.089 286.474 533.523 286.674 534.642C286.859 535.65 286.943 536.213 286.903 536.222C286.864 536.231 286.705 535.686 286.451 534.69C286.193 533.695 285.866 532.245 285.503 530.445C284.773 526.845 283.967 521.823 283.477 516.233C282.993 510.643 282.917 505.559 283.013 501.887C283.059 500.051 283.131 498.566 283.213 497.542C283.29 496.516 283.351 495.951 283.392 495.954Z" fill="#263238"/>
<path d="M300.595 519.785C300.759 519.872 298.824 523.246 297.497 527.805C296.137 532.356 295.93 536.238 295.746 536.222C295.673 536.219 295.631 535.244 295.769 533.675C295.905 532.108 296.256 529.949 296.936 527.638C297.619 525.33 298.496 523.327 299.232 521.936C299.967 520.545 300.532 519.748 300.595 519.785Z" fill="#263238"/>
<path d="M70.7323 429.275H57.677V532.87H70.7323V429.275Z" fill="#455A64"/>
<path d="M70.7323 532.87C70.7323 532.87 70.7188 532.68 70.712 532.329C70.7075 531.955 70.7008 531.44 70.6918 530.774C70.6828 529.392 70.6693 527.391 70.6513 524.819C70.6311 519.634 70.6019 512.152 70.5659 502.853C70.5344 484.255 70.4895 458.402 70.44 429.274L70.7311 429.565C66.5633 429.566 62.1516 429.566 57.6815 429.567H57.6781H57.6759L57.9681 429.275C57.8984 474.653 57.8377 513.95 57.8085 532.87L57.6759 532.738C61.892 532.77 65.137 532.796 67.3535 532.813C68.4416 532.827 69.2756 532.838 69.8634 532.845C70.431 532.854 70.7323 532.87 70.7323 532.87C70.7323 532.87 70.4648 532.887 69.9117 532.896C69.3318 532.904 68.5067 532.914 67.4322 532.928C65.1977 532.945 61.9268 532.97 57.677 533.003L57.5444 533.004V532.87C57.5151 513.95 57.4545 474.653 57.3848 429.275L57.6781 428.982H57.6793H57.6837C62.1539 428.984 66.5645 428.984 70.7334 428.985H71.0245L71.0234 429.276C70.9739 458.486 70.9301 484.414 70.8975 503.064C70.8615 512.334 70.8323 519.794 70.8121 524.963C70.7952 527.507 70.7817 529.485 70.7716 530.853C70.7637 531.503 70.757 532.006 70.7514 532.369C70.7458 532.707 70.7323 532.87 70.7323 532.87Z" fill="#263238"/>
<g opacity="0.3">
<path d="M70.7323 431.792H57.677V436.105H70.7323V431.792Z" fill="black"/>
</g>
<path d="M348.362 429.275H335.307V532.87H348.362V429.275Z" fill="#455A64"/>
<path d="M348.362 532.87C348.362 532.87 348.349 532.68 348.342 532.329C348.338 531.955 348.331 531.44 348.323 530.774C348.314 529.392 348.301 527.391 348.283 524.819C348.262 519.634 348.233 512.152 348.197 502.853C348.166 484.255 348.121 458.402 348.071 429.274L348.362 429.565C344.195 429.566 339.783 429.566 335.313 429.567H335.309H335.308L335.599 429.275C335.529 474.653 335.468 513.95 335.439 532.87L335.306 532.738C339.522 532.77 342.767 532.796 344.984 532.813C346.072 532.827 346.906 532.838 347.492 532.845C348.061 532.854 348.362 532.87 348.362 532.87C348.362 532.87 348.095 532.887 347.542 532.896C346.962 532.904 346.138 532.914 345.062 532.928C342.828 532.945 339.557 532.97 335.307 533.003L335.174 533.004V532.87C335.145 513.95 335.085 474.653 335.015 429.275L335.308 428.982H335.309H335.311H335.314C339.784 428.984 344.195 428.984 348.364 428.985H348.655V429.276C348.605 458.486 348.561 484.414 348.529 503.064C348.493 512.334 348.464 519.794 348.443 524.963C348.426 527.507 348.413 529.485 348.403 530.853C348.394 531.503 348.388 532.006 348.384 532.369C348.376 532.707 348.362 532.87 348.362 532.87Z" fill="#263238"/>
<path d="M327.911 338.524H314.856V424.88H327.911V338.524Z" fill="#455A64"/>
<path d="M327.911 424.881C327.904 424.874 327.898 424.721 327.892 424.428C327.888 424.111 327.881 423.683 327.873 423.134C327.864 421.975 327.851 420.314 327.834 418.18C327.813 413.86 327.784 407.637 327.748 399.899C327.717 384.411 327.672 362.869 327.621 338.525L327.911 338.815C323.732 338.816 319.331 338.816 314.86 338.817C315.436 338.232 315.02 338.671 315.148 338.548V338.575V338.63V338.739V338.957V339.393V340.263V341.998C315.148 343.153 315.148 344.303 315.148 345.447C315.147 347.735 315.147 350.002 315.146 352.246C315.143 356.732 315.14 361.121 315.138 365.393C315.127 373.935 315.117 382.005 315.108 389.433C315.063 404.266 315.025 416.532 315 424.881L314.857 424.738C319.044 424.773 322.288 424.8 324.513 424.819C325.603 424.834 326.441 424.845 327.036 424.853C327.605 424.862 327.911 424.881 327.911 424.881C327.911 424.881 327.641 424.899 327.086 424.909C326.499 424.917 325.671 424.928 324.597 424.943C322.352 424.962 319.08 424.989 314.857 425.024L314.714 425.025V424.881C314.688 416.532 314.651 404.266 314.606 389.433C314.597 382.005 314.587 373.935 314.576 365.393C314.574 361.121 314.57 356.732 314.568 352.246C314.567 350.002 314.567 347.735 314.566 345.447C314.566 344.303 314.566 343.153 314.566 341.998V340.263V339.393V338.957V338.739V338.63V338.575V338.548C314.699 338.411 314.269 338.817 314.864 338.233C319.334 338.234 323.736 338.235 327.915 338.235H328.206L328.205 338.525C328.154 362.952 328.11 384.567 328.078 400.107C328.042 407.816 328.012 414.018 327.992 418.321C327.975 420.427 327.962 422.068 327.953 423.211C327.945 423.744 327.938 424.161 327.934 424.467C327.925 424.747 327.918 424.887 327.911 424.881Z" fill="#263238"/>
<path d="M95.7176 338.524H82.6624V424.88H95.7176V338.524Z" fill="#455A64"/>
<path d="M95.7176 424.881C95.7109 424.874 95.7041 424.721 95.6985 424.428C95.694 424.111 95.6873 423.683 95.6794 423.134C95.6704 421.975 95.6569 420.314 95.6401 418.18C95.6198 413.86 95.5906 407.637 95.5547 399.899C95.5221 384.411 95.4782 362.869 95.4276 338.525L95.7176 338.815C91.5386 338.816 87.1381 338.816 82.6669 338.817C83.2424 338.232 82.8265 338.671 82.9546 338.548V338.575V338.63V338.739V338.957V339.393V340.263V341.998C82.9546 343.153 82.9546 344.303 82.9546 345.447C82.9535 347.735 82.9535 350.002 82.9524 352.246C82.9501 356.732 82.9467 361.121 82.9445 365.393C82.9333 373.935 82.9231 382.005 82.9141 389.433C82.8692 404.266 82.831 416.532 82.8062 424.881L82.6635 424.738C86.8504 424.773 90.0943 424.8 92.3198 424.819C93.4089 424.834 94.2474 424.845 94.842 424.853C95.4108 424.862 95.7176 424.881 95.7176 424.881C95.7176 424.881 95.4479 424.899 94.8926 424.909C94.3059 424.917 93.4775 424.928 92.403 424.943C90.1572 424.962 86.8864 424.989 82.6624 425.024L82.5196 425.025V424.881C82.4938 416.532 82.4567 404.266 82.4117 389.433C82.4027 382.005 82.3915 373.935 82.3814 365.393C82.3791 361.121 82.3758 356.732 82.3735 352.246C82.3724 350.002 82.3724 347.735 82.3713 345.447C82.3713 344.303 82.3713 343.153 82.3713 341.998V340.263V339.393V338.957V338.739V338.63V338.575V338.548C82.5039 338.411 82.0745 338.817 82.6691 338.233C87.1393 338.234 91.5409 338.235 95.7199 338.235H96.011L96.0099 338.525C95.9593 362.952 95.9155 384.567 95.8829 400.107C95.8469 407.816 95.8177 414.018 95.7974 418.321C95.7806 420.427 95.7671 422.068 95.7581 423.211C95.7502 423.744 95.7435 424.161 95.739 424.467C95.73 424.747 95.7233 424.887 95.7176 424.881Z" fill="#263238"/>
<path d="M353.096 328.671H56.9093V342.494H353.096V328.671Z" fill="#455A64"/>
<path d="M353.096 342.495C353.096 342.495 353.086 342.213 353.08 341.653C353.075 341.086 353.07 340.245 353.061 339.112C353.051 336.836 353.035 333.391 353.014 328.672L353.096 328.754C316.672 328.78 197.775 328.864 56.9239 328.964H56.9093L57.2015 328.672C57.2015 333.408 57.2015 338.118 57.2015 342.495L56.9093 342.203C139.357 342.25 213.36 342.293 266.763 342.324C293.483 342.361 315.048 342.392 329.944 342.413C337.39 342.431 343.168 342.446 347.096 342.455C349.053 342.464 350.545 342.47 351.561 342.475C352.569 342.481 353.096 342.495 353.096 342.495C353.096 342.495 352.597 342.509 351.602 342.515C350.595 342.52 349.114 342.527 347.176 342.536C343.264 342.545 337.509 342.559 330.092 342.577C315.212 342.597 293.672 342.628 266.98 342.666C213.521 342.696 139.441 342.739 56.9093 342.787H56.6171V342.495C56.6171 338.117 56.6171 333.408 56.6171 328.672V328.38H56.9093H56.9239C197.773 328.48 316.672 328.564 353.096 328.59H353.179V328.672C353.157 333.412 353.142 336.873 353.132 339.159C353.124 340.284 353.117 341.118 353.113 341.681C353.106 342.233 353.096 342.495 353.096 342.495Z" fill="#263238"/>
<path d="M353.863 349.407H57.677V363.23H353.863V349.407Z" fill="#455A64"/>
<path d="M353.863 363.23C353.863 363.23 353.853 362.947 353.848 362.388C353.843 361.82 353.837 360.979 353.828 359.846C353.818 357.57 353.803 354.125 353.78 349.407L353.862 349.489C317.439 349.515 198.541 349.599 57.6905 349.699H57.6759L57.9681 349.407C57.9681 354.142 57.9681 358.853 57.9681 363.23L57.6759 362.937C140.124 362.985 214.127 363.027 267.53 363.059C294.25 363.096 315.815 363.126 330.71 363.148C338.157 363.166 343.935 363.18 347.862 363.189C349.819 363.198 351.312 363.205 352.328 363.209C353.337 363.216 353.863 363.23 353.863 363.23C353.863 363.23 353.364 363.243 352.371 363.25C351.364 363.254 349.883 363.261 347.944 363.27C344.033 363.279 338.278 363.294 330.86 363.312C315.98 363.333 294.44 363.362 267.748 363.4C214.288 363.431 140.209 363.474 57.677 363.522H57.3848V363.23C57.3848 358.852 57.3848 354.142 57.3848 349.407V349.114H57.677H57.6916C198.541 349.214 317.44 349.299 353.863 349.325H353.947V349.407C353.925 354.147 353.909 357.607 353.898 359.894C353.89 361.019 353.884 361.853 353.879 362.416C353.873 362.968 353.863 363.23 353.863 363.23Z" fill="#263238"/>
<path d="M353.863 370.91H57.677V384.733H353.863V370.91Z" fill="#455A64"/>
<path d="M353.863 384.733C353.863 384.733 353.853 384.451 353.848 383.891C353.843 383.323 353.837 382.483 353.828 381.35C353.818 379.074 353.803 375.628 353.78 370.91L353.862 370.992C317.439 371.018 198.541 371.102 57.6905 371.202H57.6759L57.9681 370.91C57.9681 375.645 57.9681 380.356 57.9681 384.733L57.6759 384.441C140.124 384.488 214.127 384.531 267.53 384.562C294.25 384.599 315.815 384.629 330.71 384.651C338.157 384.669 343.935 384.683 347.862 384.692C349.819 384.701 351.312 384.708 352.328 384.713C353.337 384.719 353.863 384.733 353.863 384.733C353.863 384.733 353.364 384.746 352.371 384.753C351.364 384.758 349.883 384.764 347.944 384.773C344.033 384.783 338.278 384.797 330.86 384.815C315.98 384.835 294.44 384.865 267.748 384.903C214.288 384.933 140.209 384.976 57.677 385.024H57.3848V384.732C57.3848 380.354 57.3848 375.644 57.3848 370.909V370.617H57.677H57.6916C198.541 370.717 317.44 370.801 353.863 370.827H353.947V370.909C353.925 375.649 353.909 379.109 353.898 381.396C353.89 382.521 353.884 383.355 353.879 383.918C353.873 384.471 353.863 384.733 353.863 384.733Z" fill="#263238"/>
<path d="M353.863 392.413H57.677V406.236H353.863V392.413Z" fill="#455A64"/>
<path d="M353.863 406.237C353.863 406.237 353.853 405.955 353.848 405.395C353.843 404.828 353.837 403.987 353.828 402.854C353.818 400.578 353.803 397.133 353.78 392.414L353.862 392.496C317.439 392.522 198.541 392.606 57.6905 392.707H57.6759L57.9681 392.414C57.9681 397.15 57.9681 401.86 57.9681 406.237L57.6759 405.945C140.124 405.992 214.127 406.035 267.53 406.066C294.25 406.103 315.815 406.134 330.71 406.155C338.157 406.173 343.935 406.188 347.862 406.197C349.819 406.206 351.312 406.213 352.328 406.217C353.337 406.223 353.863 406.237 353.863 406.237C353.863 406.237 353.364 406.251 352.371 406.257C351.364 406.262 349.883 406.269 347.944 406.278C344.033 406.287 338.278 406.301 330.86 406.319C315.98 406.339 294.44 406.37 267.748 406.408C214.288 406.438 140.209 406.481 57.677 406.529H57.3848V406.237C57.3848 401.859 57.3848 397.15 57.3848 392.414V392.122H57.677H57.6916C198.541 392.222 317.44 392.306 353.863 392.332H353.947V392.414C353.925 397.154 353.909 400.615 353.898 402.901C353.89 404.026 353.884 404.86 353.879 405.423C353.873 405.975 353.863 406.237 353.863 406.237Z" fill="#263238"/>
<path d="M359.248 417.968H44.8116V431.791H359.248V417.968Z" fill="#455A64"/>
<path d="M359.248 431.793C359.248 431.793 359.238 431.512 359.233 430.953C359.228 430.386 359.223 429.548 359.215 428.416C359.205 426.142 359.189 422.697 359.169 417.97L359.248 418.049C321.5 418.075 194.935 418.161 44.8274 418.262H44.8116L45.1039 417.97C45.1039 422.705 45.1039 427.417 45.1039 431.793L44.8116 431.5C132.303 431.547 210.868 431.59 267.574 431.622C295.945 431.659 318.845 431.689 334.663 431.71C342.572 431.728 348.709 431.743 352.878 431.752C354.956 431.761 356.542 431.768 357.62 431.772C358.69 431.778 359.248 431.793 359.248 431.793C359.248 431.793 358.718 431.806 357.661 431.813C356.592 431.817 355.02 431.824 352.958 431.833C348.804 431.843 342.691 431.857 334.811 431.875C319.009 431.896 296.134 431.925 267.791 431.963C211.03 431.994 132.388 432.036 44.8116 432.085H44.5194V431.793C44.5194 427.417 44.5194 422.705 44.5194 417.97V417.677H44.8116H44.8274C194.935 417.778 321.5 417.865 359.248 417.89H359.329V417.97C359.308 422.717 359.293 426.178 359.283 428.462C359.275 429.586 359.269 430.419 359.264 430.981C359.257 431.531 359.248 431.793 359.248 431.793Z" fill="#263238"/>
<g opacity="0.3">
<path d="M348.363 431.792H335.307V436.105H348.363V431.792Z" fill="black"/>
</g>
<path d="M189.176 258.88L186.356 277.081L179.096 293.648L168.337 286.777L164.513 277.108L161.305 268.998C161.305 268.998 149.942 271.731 145.415 261.107C143.23 255.978 139.59 245.048 136.41 235.116C132.99 224.436 138.343 212.92 148.714 208.653L149.745 208.229C161.122 204.306 170.809 211.777 174.416 223.259L189.176 258.88Z" fill="#A2675F"/>
<path d="M161.291 268.997C161.291 268.997 168.265 266.769 173.584 259.312C173.584 259.312 173.456 268.352 162.403 271.774L161.291 268.997Z" fill="#7A4A45"/>
<path d="M143.351 243.266C143.653 244.083 144.595 244.5 145.454 244.2C146.311 243.9 146.763 242.995 146.46 242.178C146.156 241.361 145.215 240.943 144.358 241.243C143.499 241.543 143.048 242.449 143.351 243.266Z" fill="#263238"/>
<path d="M140.464 238.898C140.735 239.02 141.537 237.689 143.181 237.018C144.812 236.324 146.364 236.673 146.458 236.399C146.509 236.274 146.168 235.994 145.487 235.828C144.814 235.66 143.782 235.652 142.762 236.077C141.742 236.503 141.036 237.234 140.701 237.822C140.357 238.417 140.334 238.847 140.464 238.898Z" fill="#263238"/>
<path d="M157.665 236.884C157.967 237.701 158.909 238.118 159.769 237.817C160.626 237.517 161.078 236.612 160.775 235.795C160.471 234.978 159.529 234.56 158.673 234.86C157.813 235.162 157.361 236.068 157.665 236.884Z" fill="#263238"/>
<path d="M156.626 231.707C156.882 231.856 157.827 230.621 159.532 230.132C161.228 229.62 162.733 230.135 162.858 229.871C162.922 229.752 162.616 229.438 161.954 229.199C161.303 228.959 160.278 228.84 159.217 229.152C158.157 229.466 157.377 230.115 156.979 230.663C156.573 231.217 156.502 231.643 156.626 231.707Z" fill="#263238"/>
<path d="M156.162 247.682C156.132 247.586 155.039 247.83 153.299 248.298C152.862 248.428 152.431 248.507 152.244 248.251C152.02 247.989 152.01 247.465 152.012 246.894C151.989 245.719 151.964 244.486 151.938 243.194C151.79 237.943 151.498 233.695 151.287 233.702C151.076 233.71 151.024 237.972 151.172 243.224C151.22 244.514 151.262 245.745 151.306 246.921C151.344 247.463 151.293 248.115 151.766 248.656C152.008 248.922 152.409 249.023 152.707 248.985C153.009 248.957 153.246 248.864 153.459 248.791C155.159 248.195 156.195 247.778 156.162 247.682Z" fill="#263238"/>
<path d="M153.488 224.72C153.833 225.1 155.385 224.214 157.405 223.654C159.415 223.052 161.2 222.978 161.29 222.472C161.324 222.234 160.882 221.926 160.076 221.752C159.277 221.576 158.114 221.575 156.906 221.923C155.699 222.272 154.715 222.89 154.132 223.465C153.542 224.04 153.331 224.537 153.488 224.72Z" fill="#263238"/>
<path d="M138.121 232.441C138.562 232.695 139.533 231.843 140.886 231.265C142.217 230.64 143.499 230.483 143.603 229.984C143.642 229.747 143.307 229.448 142.659 229.303C142.019 229.155 141.071 229.209 140.149 229.622C139.228 230.036 138.557 230.707 138.241 231.283C137.918 231.863 137.918 232.312 138.121 232.441Z" fill="#263238"/>
<path d="M176.796 231.526C176.946 231.372 183.24 226.337 186.011 233.734C188.781 241.131 180.784 242.386 180.692 242.179C180.601 241.971 176.796 231.526 176.796 231.526Z" fill="#A2675F"/>
<path d="M181.903 238.53C181.926 238.494 182.066 238.571 182.321 238.59C182.569 238.607 182.959 238.538 183.291 238.25C183.965 237.67 184.157 236.183 183.694 234.836C183.46 234.156 183.079 233.568 182.642 233.127C182.214 232.67 181.722 232.423 181.302 232.501C180.878 232.557 180.686 232.896 180.674 233.139C180.653 233.383 180.755 233.513 180.72 233.54C180.707 233.566 180.514 233.476 180.461 233.148C180.436 232.989 180.457 232.783 180.577 232.576C180.701 232.365 180.935 232.194 181.219 232.121C181.805 231.946 182.514 232.279 182.995 232.764C183.508 233.239 183.953 233.894 184.214 234.657C184.725 236.166 184.484 237.846 183.53 238.556C183.06 238.886 182.568 238.892 182.278 238.802C181.982 238.704 181.882 238.553 181.903 238.53Z" fill="#7A4A45"/>
<path d="M130.097 223.144C129.836 221.599 130.327 219.815 131.673 219.011C130.51 217.895 130.25 215.954 131.08 214.57C131.909 213.188 133.745 212.503 135.277 213.005C134.271 210.815 136.267 207.896 138.672 208.04C138.062 206.781 138.438 205.124 139.53 204.251C140.623 203.378 142.322 203.378 143.415 204.251C143.863 201.004 147.994 198.896 150.886 200.441C153.37 198.201 157.615 198.308 159.982 200.673C162.419 199.818 165.348 200.635 166.989 202.629C168.572 202.126 170.41 202.528 171.638 203.645C172.867 204.764 173.439 206.555 173.086 208.178C175.3 208.308 176.886 211.074 175.879 213.05C177.181 213.135 178.396 214.022 178.873 215.236C179.352 216.449 179.07 217.926 178.178 218.878C179.307 218.569 180.321 219.812 180.427 220.977C180.532 222.144 180.097 223.294 180.083 224.465C180.07 225.429 180.342 226.377 180.39 227.341C180.476 229.153 179.706 230.981 178.364 232.198C178.458 232.245 178.552 232.291 178.645 232.339C179.222 233.195 178.182 234.376 177.149 234.367C176.117 234.358 175.242 233.656 174.401 233.057C173.438 232.37 172.385 231.755 171.683 230.802C170.982 229.85 170.741 228.423 171.504 227.519C170.071 227.621 168.729 226.67 167.953 225.462C167.176 224.254 166.857 222.816 166.552 221.413C166.101 219.342 165.652 217.271 165.201 215.2C162.528 216.225 159.298 215.601 157.197 213.657C155.908 215.895 152.419 216.423 150.525 214.667C150.757 217.631 148.259 220.537 145.294 220.754C146.205 222.145 144.071 224.666 142.749 225.677C141.427 226.687 139.132 226.405 139.132 226.405C139.132 226.405 137.199 228.969 135.57 228.987C133.971 229.005 131.396 228.007 131.704 226.19C131.706 226.19 130.359 224.69 130.097 223.144Z" fill="#263238"/>
<path d="M176.243 212.876C176.162 212.879 176.337 213.426 175.908 214.116C175.696 214.445 175.316 214.774 174.802 214.823C174.3 214.883 173.669 214.659 173.34 214.164L173.073 213.762L172.858 214.201C172.55 214.831 171.797 215.352 170.984 215.343C170.068 215.334 169.263 214.63 169.051 213.872L168.924 213.422L168.596 213.75C168.181 214.166 167.608 214.355 167.114 214.348C166.615 214.346 166.193 214.15 165.892 213.929C165.287 213.467 165.151 212.981 165.081 213.013C165.037 213.009 165.051 213.566 165.68 214.182C165.99 214.474 166.478 214.759 167.095 214.804C167.701 214.85 168.418 214.662 168.979 214.141L168.525 214.019C168.777 215.01 169.754 215.913 170.98 215.937C172.051 215.942 172.978 215.276 173.363 214.44L172.881 214.477C173.386 215.172 174.213 215.4 174.87 215.289C175.553 215.177 176.007 214.699 176.208 214.285C176.616 213.399 176.274 212.834 176.243 212.876Z" fill="#455A64"/>
<path d="M180.226 219.415C180.17 219.387 180.049 219.727 179.571 220.043C179.134 220.344 178.169 220.61 177.416 220.02L177.167 219.825L177.054 220.123C176.824 220.724 176.198 221.304 175.408 221.411C174.638 221.53 173.712 221.071 173.34 220.269L173.121 219.798L172.823 220.23C172.752 220.333 172.66 220.434 172.552 220.521C172.066 220.915 171.338 220.963 170.875 220.637C170.391 220.32 170.14 219.709 170.216 219.208L170.302 218.644L169.818 218.936C169.225 219.295 168.526 219.354 167.966 219.219C167.4 219.087 166.97 218.763 166.685 218.444C166.112 217.784 166.067 217.219 165.992 217.239C165.955 217.226 165.874 217.836 166.437 218.643C166.717 219.031 167.187 219.448 167.851 219.645C168.504 219.842 169.335 219.816 170.088 219.395L169.69 219.122C169.567 219.838 169.876 220.649 170.551 221.116C171.239 221.6 172.244 221.535 172.924 220.984C173.078 220.86 173.213 220.713 173.316 220.559L172.8 220.519C173.307 221.579 174.475 222.129 175.489 221.959C176.506 221.789 177.237 221.047 177.489 220.278L177.127 220.382C177.627 220.75 178.208 220.81 178.66 220.733C179.122 220.664 179.479 220.458 179.725 220.251C180.224 219.816 180.257 219.415 180.226 219.415Z" fill="#455A64"/>
<path d="M139.543 207.436C139.591 207.46 139.658 207.05 140.171 206.624C140.424 206.421 140.802 206.23 141.261 206.245C141.712 206.254 142.25 206.472 142.583 206.935L142.853 207.312L142.918 206.847C143.034 206.018 143.639 205.075 144.646 204.658C145.623 204.235 147.027 204.514 147.812 205.498L148.149 205.92L148.29 205.396C148.549 204.439 149.311 203.559 150.315 203.144C151.307 202.711 152.554 202.867 153.501 203.528C153.888 203.791 154.209 204.135 154.449 204.519L154.621 204.794L154.879 204.603C156.144 203.671 158.013 203.83 159.031 204.796C160.083 205.763 160.341 207.312 159.922 208.42L159.764 208.836L160.195 208.741C161.228 208.514 162.243 208.777 162.96 209.237C163.69 209.696 164.128 210.352 164.367 210.921C164.84 212.09 164.633 212.852 164.713 212.847C164.733 212.851 164.798 212.677 164.828 212.328C164.855 211.982 164.842 211.454 164.621 210.823C164.405 210.201 163.965 209.457 163.172 208.916C162.396 208.377 161.282 208.043 160.094 208.274L160.367 208.594C160.88 207.313 160.631 205.553 159.408 204.39C158.192 203.229 156.055 203.022 154.524 204.129L154.954 204.213C154.669 203.753 154.289 203.35 153.837 203.042C152.739 202.272 151.265 202.09 150.089 202.61C148.918 203.107 148.053 204.125 147.76 205.26L148.238 205.159C147.259 203.978 145.621 203.699 144.459 204.225C143.286 204.75 142.642 205.847 142.546 206.805L142.881 206.717C142.438 206.156 141.79 205.94 141.258 205.957C140.711 205.973 140.293 206.227 140.035 206.477C139.771 206.731 139.646 206.988 139.585 207.162C139.529 207.335 139.529 207.433 139.543 207.436Z" fill="#455A64"/>
<path d="M161.041 245.893C160.768 245.987 161.498 247.77 160.493 249.662C159.492 251.556 157.512 252.138 157.599 252.392C157.621 252.513 158.165 252.564 158.975 252.256C159.772 251.959 160.816 251.234 161.431 250.078C162.042 248.92 162.017 247.721 161.776 246.965C161.539 246.192 161.159 245.832 161.041 245.893Z" fill="#263238"/>
<path d="M150.091 278.265L141.182 303.351L143.24 330.776L148.913 378.153C148.913 378.153 169.784 371.105 170.722 371.808C171.66 372.512 161.49 323.775 161.49 323.775L168.847 284.126L168.373 272.449L150.091 278.265Z" fill="#2563EB"/>
<path d="M150.091 278.265L140.292 300.759L120.106 308.7L98.8513 315.236L101.877 330.467C102.496 333.589 105.627 335.534 108.7 334.71L126.608 329.905L143.292 329.139L151.966 308.976L150.091 278.265Z" fill="#2563EB"/>
<path d="M105.825 308.978L107.308 307.136C107.308 307.136 110.053 307.123 111.537 308.057C113.02 308.991 115.32 312.403 115.617 314.184C115.914 315.964 115.617 319.377 115.617 319.377L105.454 308.978" fill="#A2675F"/>
<path d="M86.0984 298.052C86.0984 298.359 105.175 318.603 105.175 318.603L108.766 322.149H120.304L98.0454 297.44L88.4476 295.806L86.0984 298.052Z" fill="#263238"/>
<path d="M163.595 343.023C163.577 343.032 163.426 342.79 163.158 342.316C162.871 341.788 162.493 341.094 162.021 340.225C161.056 338.398 159.688 335.738 158.095 332.402C156.515 329.061 154.655 325.064 153.032 320.434C152.644 319.27 152.255 318.072 151.985 316.802C151.804 316.182 151.786 315.502 151.686 314.844C151.664 314.188 151.638 313.527 151.636 312.861C151.604 310.196 151.673 307.442 151.776 304.624C151.908 301.057 152.093 297.601 152.304 294.318L152.316 294.146L152.473 294.078C154.525 293.177 156.501 292.31 158.391 291.481L158.465 291.989C156.887 291.785 155.369 291.589 153.916 291.4L153.543 291.352L153.731 291.029C156.647 286.009 159.081 281.818 160.821 278.822C161.665 277.401 162.34 276.266 162.836 275.429C163.055 275.074 163.236 274.784 163.384 274.546C163.511 274.348 163.583 274.249 163.594 274.256C163.605 274.263 163.557 274.374 163.451 274.584C163.321 274.833 163.162 275.135 162.969 275.505C162.501 276.357 161.866 277.516 161.073 278.964C159.376 281.987 157.005 286.213 154.163 291.277L153.978 290.906C155.432 291.082 156.952 291.268 158.531 291.459L159.488 291.575L158.605 291.967C156.72 292.805 154.748 293.683 152.701 294.594L152.87 294.353C152.671 297.628 152.492 301.083 152.36 304.643C152.257 307.456 152.186 310.204 152.209 312.852C152.21 313.514 152.233 314.169 152.253 314.817C152.35 315.445 152.356 316.071 152.532 316.684C152.788 317.917 153.166 319.105 153.542 320.258C155.122 324.857 156.941 328.868 158.469 332.223C160.012 335.576 161.321 338.261 162.224 340.118C162.654 341.006 162.999 341.717 163.261 342.258C163.496 342.753 163.612 343.013 163.595 343.023Z" fill="#263238"/>
<path d="M97.3665 308.977C97.3665 308.977 94.4734 311.068 94.5475 312.255C94.6217 313.442 95.2883 314.703 95.9559 314.926C96.6247 315.148 98.6277 316.187 98.6277 316.187C98.6277 316.187 96.8473 317.893 97.3665 319.673C97.8858 321.454 99.0728 321.899 99.0728 321.899C99.0728 321.899 99.147 324.199 99.8146 325.534C100.482 326.869 102.634 327.314 102.634 327.314C102.634 327.314 103.821 329.734 104.859 330.936C105.898 332.138 107.975 332.507 107.975 332.507C107.975 332.507 110.645 332.804 112.055 331.84C113.464 330.875 115.022 329.911 115.097 326.647C115.097 326.647 121.476 323.457 121.551 321.825C121.625 320.193 120.883 319.673 120.883 319.673L117.693 320.267C117.693 320.267 117.248 318.561 116.283 318.412C115.319 318.264 103.671 321.083 103.671 321.083C103.671 321.083 111.609 319.822 111.831 318.264C112.054 316.706 112.128 315.371 110.941 315.074C109.754 314.777 101.298 315.683 101.298 315.683L100.855 314.184C100.855 314.184 103.151 314.258 103.151 312.255C103.151 310.252 101.89 309.807 101.89 309.807L97.3665 308.977Z" fill="#A2675F"/>
<path d="M163.595 274.257L164.57 282.003L158.573 315.681L164.652 344.768L196.168 354.079L208.565 348.738L204.336 267.103L193.073 259.191L188.747 256.285L172.509 280.855L163.595 274.257Z" fill="#FAFAFA"/>
<path d="M192.151 258.572L200.027 262.089L227.926 265.839L242.975 344.993L244.866 354.08L273.714 397.253C275.037 399.234 274.404 401.92 272.336 403.102L248.701 416.606C246.885 417.532 244.664 416.95 243.538 415.253L213.508 369.999L198.62 350.944C198.62 350.944 189.711 323.983 188.539 312.496C187.366 301.008 187.87 288.703 188.539 282.252C189.256 275.347 192.151 258.572 192.151 258.572Z" fill="#2563EB"/>
<path d="M227.926 265.839C231.606 267.772 234.201 271.277 234.973 275.361C236.748 284.755 242.103 301.145 244.11 318.644C246.918 343.126 240.339 350.679 237.231 354.901C234.191 359.033 214.883 368.104 214.883 368.104L200.419 348.83L216.439 335.704L215.032 301.71C215.032 301.71 209.406 293.973 212.219 282.486C215.031 270.998 223.238 265.136 227.926 265.839Z" fill="#2563EB"/>
<g opacity="0.3">
<path d="M242.853 344.343C240.66 350.286 238.155 355.295 233.047 358.122C227.613 361.129 220.045 365.379 214.883 368.104L218.666 373.967C224.59 373.06 235.511 366.153 239.075 361.337C242.639 356.52 243.715 350.273 242.853 344.343Z" fill="black"/>
</g>
<path d="M214.64 303.514C214.65 303.513 214.686 303.685 214.745 304.022C214.805 304.386 214.887 304.883 214.993 305.52C215.202 306.87 215.503 308.81 215.89 311.296C216.648 316.349 217.737 323.615 219.084 332.599L219.101 332.712L219.015 332.788C213.688 337.483 207.448 342.985 200.593 349.027L200.631 348.67C205.085 354.594 209.98 361.103 215.113 367.93L214.755 367.845C219.565 365.42 224.538 362.793 229.468 359.878C230.867 359.036 232.253 358.19 233.584 357.286C234.922 356.399 236.223 355.445 237.313 354.359C239.296 351.973 240.797 349.145 241.889 346.306C244.083 340.566 244.635 334.556 244.587 328.923C244.507 323.266 243.835 317.913 243.055 312.936C242.278 307.957 241.381 303.344 240.494 299.149C238.722 290.757 237.021 284.025 235.824 279.379C235.221 277.082 234.748 275.287 234.419 274.036C234.264 273.446 234.143 272.985 234.054 272.645C233.974 272.332 233.937 272.17 233.947 272.167C233.947 272.167 234.013 272.32 234.112 272.628C234.215 272.963 234.355 273.42 234.534 274.003C234.896 275.214 235.41 277.005 236.046 279.32C237.31 283.949 239.074 290.671 240.9 299.062C241.814 303.256 242.736 307.87 243.535 312.859C244.337 317.842 245.031 323.216 245.126 328.914C245.189 334.588 244.648 340.669 242.424 346.509C241.301 349.417 239.826 352.237 237.738 354.754C236.574 355.916 235.262 356.868 233.91 357.768C232.566 358.681 231.173 359.533 229.767 360.378C224.815 363.306 219.839 365.932 215.01 368.358L214.796 368.466L214.651 368.273C209.532 361.436 204.649 354.917 200.207 348.984L200.06 348.788L200.244 348.628C207.124 342.615 213.388 337.14 218.735 332.468L218.665 332.657C217.397 323.661 216.371 316.385 215.657 311.327C215.319 308.832 215.055 306.887 214.872 305.534C214.791 304.893 214.729 304.393 214.683 304.026C214.645 303.689 214.63 303.515 214.64 303.514Z" fill="#263238"/>
<path d="M194.262 332.557C194.242 332.553 194.264 332.284 194.324 331.773C194.398 331.206 194.494 330.466 194.613 329.546C194.899 327.547 195.297 324.772 195.784 321.371C196.769 314.468 198.306 304.961 199.8 294.43C200.495 289.331 201.157 284.469 201.76 280.04L201.932 280.33C200.272 279.693 198.682 279.081 197.166 278.5L196.703 278.323L197.117 278.054C198.829 276.946 200.429 275.909 201.906 274.953L201.81 275.17C201.241 271.193 200.776 267.944 200.442 265.616C200.3 264.531 200.187 263.663 200.101 263.006C200.03 262.408 200.003 262.091 200.025 262.088C200.046 262.084 200.116 262.394 200.227 262.986C200.343 263.639 200.495 264.501 200.685 265.578C201.064 267.899 201.595 271.138 202.245 275.102L202.267 275.241L202.148 275.319C200.681 276.292 199.092 277.346 197.393 278.473L197.345 278.027C198.865 278.598 200.459 279.196 202.124 279.821L202.326 279.896L202.298 280.111C201.707 284.542 201.059 289.405 200.38 294.506C198.886 305.04 197.282 314.545 196.193 321.433C195.629 324.823 195.169 327.589 194.838 329.58C194.673 330.493 194.541 331.227 194.44 331.79C194.343 332.297 194.282 332.56 194.262 332.557Z" fill="#263238"/>
<path d="M223.7 266.901C223.77 266.995 222.338 267.978 220.419 269.975C219.451 270.964 218.412 272.247 217.378 273.752C216.376 275.278 215.395 277.037 214.586 278.982C213.801 280.939 213.269 282.882 212.917 284.673C212.601 286.472 212.445 288.116 212.444 289.5C212.417 292.269 212.751 293.973 212.634 293.991C212.594 293.999 212.494 293.579 212.349 292.808C212.27 292.423 212.19 291.949 212.151 291.393C212.104 290.837 212.017 290.204 212.03 289.502C211.979 288.096 212.094 286.418 212.387 284.579C212.716 282.747 213.243 280.758 214.044 278.761C214.871 276.774 215.886 274.986 216.933 273.448C218.012 271.93 219.104 270.651 220.125 269.684C220.609 269.172 221.114 268.782 221.536 268.418C221.954 268.048 222.342 267.766 222.669 267.547C223.311 267.098 223.676 266.868 223.7 266.901Z" fill="#263238"/>
<path d="M143.118 329.152C142.956 329.163 142.44 323.709 141.963 316.969C141.487 310.227 141.232 304.756 141.394 304.744C141.554 304.733 142.071 310.187 142.548 316.929C143.025 323.667 143.28 329.141 143.118 329.152Z" fill="#263238"/>
<path d="M238.143 378.772L242.473 387.615L262.515 374.788L255.574 366.932L238.143 378.772Z" fill="#2563EB"/>
<path d="M238.143 378.772C238.113 378.764 238.534 378.45 239.345 377.871C240.227 377.249 241.413 376.413 242.877 375.38C246.022 373.205 250.357 370.206 255.42 366.706L255.618 366.569L255.78 366.751C257.93 369.176 260.28 371.826 262.735 374.594L262.962 374.851L262.673 375.035C262.396 375.213 262.097 375.404 261.796 375.597C254.341 380.33 247.585 384.619 242.587 387.792L242.386 387.921L242.286 387.708C241.005 384.988 239.955 382.761 239.191 381.137C238.862 380.419 238.596 379.836 238.386 379.374C238.207 378.972 238.123 378.767 238.143 378.772C238.163 378.778 238.286 378.994 238.502 379.398C238.742 379.857 239.046 380.438 239.42 381.153C240.22 382.727 241.319 384.885 242.661 387.523L242.36 387.438C247.335 384.229 254.06 379.89 261.479 375.102C261.78 374.91 262.08 374.719 262.356 374.542L262.294 374.981C259.85 372.204 257.508 369.545 255.367 367.113L255.726 367.158C250.662 370.536 246.323 373.429 243.177 375.526C241.658 376.521 240.429 377.325 239.513 377.924C239.116 378.177 238.788 378.386 238.515 378.559C238.286 378.704 238.158 378.776 238.143 378.772Z" fill="#263238"/>
<g opacity="0.3">
<path d="M238.336 379.168C238.421 379.339 242.783 392.741 242.783 392.741L261.475 379.471L259.87 376.48L242.473 387.615L238.336 379.168Z" fill="black"/>
</g>
<g opacity="0.3">
<path d="M200.595 265.783L203.914 276.739L200.595 278.265L205.028 280.447C205.028 280.447 198.04 318.662 197.159 322.15C196.277 325.637 195.207 326.758 195.207 326.758L202.03 280.078L197.257 278.266L202.03 275.138L200.595 265.783Z" fill="black"/>
</g>
<path d="M126.641 325.498C126.448 325.504 126.805 321.879 125.372 317.747C123.993 313.596 121.503 310.939 121.661 310.824C121.709 310.778 122.394 311.37 123.279 312.53C124.165 313.685 125.205 315.443 125.926 317.559C126.641 319.677 126.887 321.705 126.886 323.159C126.89 324.619 126.709 325.506 126.641 325.498Z" fill="#263238"/>
<g opacity="0.3">
<path d="M141.267 303.663C137.934 311.973 139.137 321.094 143.037 329.152C142.435 319.88 142.079 312.653 141.267 303.663Z" fill="black"/>
</g>
<path d="M189.767 265.496C189.801 265.518 189.588 265.909 189.175 266.597C188.699 267.394 188.118 268.367 187.435 269.513C185.98 271.98 184.037 275.428 182.118 279.352C180.819 281.994 179.704 284.515 178.798 286.658L178.668 286.967L178.41 286.762C176.567 285.288 175.164 283.909 174.23 282.904C173.297 281.898 172.824 281.272 172.861 281.239C172.904 281.201 173.451 281.758 174.439 282.697C175.427 283.635 176.867 284.947 178.72 286.365L178.333 286.468C179.195 284.296 180.288 281.75 181.593 279.095C183.521 275.151 185.533 271.717 187.083 269.296C187.86 268.086 188.515 267.125 188.985 266.472C189.457 265.821 189.733 265.473 189.767 265.496Z" fill="#263238"/>
<path d="M171.31 281.026C171.458 281.082 170.624 283.625 169.437 286.746L169.288 287.138L168.972 286.863C168.926 286.822 168.877 286.78 168.826 286.736C166.217 284.463 164.542 282.197 164.664 282.104C164.794 281.994 166.644 284.06 169.211 286.295C169.261 286.338 169.309 286.382 169.355 286.421L168.891 286.538C170.087 283.42 171.162 280.97 171.31 281.026Z" fill="#263238"/>
<path d="M174.608 338.52C174.588 338.521 174.558 338.332 174.52 337.97C174.483 337.541 174.437 337.018 174.382 336.387C174.284 334.921 174.151 332.951 173.992 330.559C173.693 325.637 173.338 318.834 173.041 311.314C172.752 303.792 172.581 296.979 172.581 292.044C172.577 289.577 172.612 287.581 172.66 286.202C172.691 285.569 172.718 285.045 172.741 284.615C172.766 284.252 172.788 284.062 172.808 284.063C172.828 284.064 172.845 284.254 172.859 284.617C172.867 285.048 172.877 285.571 172.888 286.204C172.915 287.673 172.952 289.645 172.996 292.039C173.103 296.966 173.338 303.772 173.628 311.291C173.93 318.764 174.204 325.527 174.408 330.538C174.492 332.933 174.561 334.905 174.612 336.374C174.623 337.007 174.632 337.532 174.64 337.962C174.638 338.327 174.628 338.518 174.608 338.52Z" fill="#263238"/>
<path d="M108.804 490.307L111.713 517.753C111.713 517.753 84.7935 529.928 84.8373 535.052L138.257 531.323L135.478 488.372L108.804 490.307Z" fill="#2563EB"/>
<path d="M128.07 514.285C129.123 514.495 129.919 515.608 129.752 516.669C129.585 517.73 128.461 518.55 127.403 518.357C126.347 518.166 125.35 516.86 125.635 515.824C125.919 514.789 127.293 513.9 128.273 514.339" fill="#E0E0E0"/>
<path d="M138.372 532.443L138.108 528.281L86.7571 532.194C86.7571 532.194 84.4518 533.395 84.8373 535.051L138.372 532.443Z" fill="#E0E0E0"/>
<path d="M110.829 517.541C110.856 517.802 112.168 517.829 113.509 518.578C114.872 519.291 115.611 520.375 115.844 520.256C116.081 520.188 115.583 518.656 113.942 517.777C112.31 516.885 110.756 517.305 110.829 517.541Z" fill="#263238"/>
<path d="M105.387 520.25C105.346 520.508 106.506 520.872 107.469 521.914C108.463 522.926 108.77 524.104 109.028 524.075C109.276 524.099 109.35 522.559 108.128 521.286C106.918 520.003 105.376 520.001 105.387 520.25Z" fill="#263238"/>
<path d="M102.674 527.177C102.915 527.217 103.187 525.888 102.418 524.507C101.658 523.119 100.389 522.641 100.293 522.867C100.161 523.092 101.006 523.803 101.621 524.947C102.262 526.076 102.412 527.171 102.674 527.177Z" fill="#263238"/>
<path d="M110.86 511.213C110.986 511.444 112.157 511 113.639 510.997C115.12 510.965 116.301 511.38 116.423 511.146C116.561 510.947 115.373 510.059 113.629 510.087C111.883 510.102 110.717 511.017 110.86 511.213Z" fill="#263238"/>
<path d="M99.2919 379.559L74.5515 391.793C74.5515 391.793 53.807 370.755 49.0154 372.57L71.0143 421.391L110.344 403.911L99.2919 379.559Z" fill="#2563EB"/>
<path d="M83.4694 405.936C83.6369 406.997 82.8692 408.129 81.816 408.34C80.7628 408.552 79.6051 407.779 79.4196 406.722C79.233 405.664 80.1142 404.277 81.1843 404.185C82.2543 404.094 83.5638 405.073 83.4907 406.145" fill="#E0E0E0"/>
<path d="M70.0028 421.89L73.8154 420.201L52.3616 373.383C52.3616 373.383 50.4362 371.635 49.0166 372.571L70.0028 421.89Z" fill="#E0E0E0"/>
<path d="M74.4436 390.89C74.2087 391.006 74.6381 392.246 74.3998 393.764C74.2009 395.289 73.441 396.36 73.6344 396.536C73.7805 396.735 75.045 395.738 75.3001 393.893C75.5733 392.053 74.6392 390.74 74.4436 390.89Z" fill="#263238"/>
<path d="M70.0185 386.723C69.7633 386.773 69.8229 387.988 69.1788 389.252C68.573 390.535 67.5749 391.231 67.6918 391.463C67.7559 391.704 69.2261 391.241 69.996 389.654C70.7805 388.074 70.2478 386.627 70.0185 386.723Z" fill="#263238"/>
<path d="M62.5798 386.577C62.627 386.817 63.9668 386.612 64.9964 385.412C66.035 384.218 66.044 382.863 65.7989 382.85C65.5427 382.804 65.1684 383.844 64.3074 384.816C63.4711 385.809 62.4966 386.329 62.5798 386.577Z" fill="#263238"/>
<path d="M80.3919 388.728C80.2199 388.925 81.0416 389.871 81.5564 391.26C82.1004 392.638 82.1206 393.89 82.3803 393.923C82.6152 393.983 83.0367 392.562 82.4061 390.934C81.789 389.303 80.5257 388.526 80.3919 388.728Z" fill="#263238"/>
<path d="M111.37 395.12C111.37 395.12 102.511 396.925 100.706 406.44C98.9007 415.954 105.453 511.712 105.453 511.712L139.057 509.019L137.004 444.494L136.177 431.487L139.057 429.279L198.123 418.887L189.135 394.464L179.258 377.275L134.011 388.559L111.37 395.12Z" fill="#263238"/>
<path d="M222.583 378.986C222.583 378.986 198.145 343.66 191.002 338.52C185.109 334.279 176.254 334.285 170.783 336.748C165.311 339.211 79.6792 381.658 79.6792 381.658L92.2332 413.085L173.684 384.858L185.824 403.911L197.124 418.886L228.863 419.134C230.367 419.134 237.181 405.671 237.181 405.671L222.583 378.986Z" fill="#263238"/>
<path d="M100.392 413.825C100.382 413.825 100.377 413.714 100.377 413.495C100.38 413.243 100.383 412.924 100.388 412.525C100.398 412.084 100.411 411.558 100.425 410.946C100.48 410.324 100.578 409.609 100.671 408.802C100.728 407.988 101.009 407.121 101.199 406.15C101.294 405.662 101.503 405.184 101.66 404.67C101.824 404.157 102.003 403.627 102.267 403.109C103.193 401 104.702 398.708 107.069 396.948C108.249 396.077 109.624 395.337 111.2 394.924C112.761 394.66 114.385 394.385 116.065 394.1C119.423 393.538 123.008 392.939 126.778 392.309C134.33 391.058 142.625 389.684 151.333 388.242C159.215 386.951 166.758 385.715 173.639 384.588L173.817 384.559L173.913 384.71C180.444 394.908 185.749 403.778 190.208 409.577C192.373 412.481 194.098 414.796 195.31 416.423C195.886 417.192 196.339 417.798 196.673 418.242C196.811 418.433 196.924 418.587 197.017 418.716C197.092 418.824 197.128 418.881 197.122 418.886C197.116 418.89 197.068 418.843 196.98 418.744C196.876 418.623 196.753 418.478 196.6 418.298C196.25 417.866 195.773 417.279 195.167 416.532C193.928 414.98 192.137 412.699 189.936 409.777C185.393 404.023 180.005 395.164 173.45 385.005L173.725 385.127C166.847 386.266 159.307 387.515 151.428 388.819C142.718 390.245 134.42 391.604 126.866 392.84C123.092 393.452 119.505 394.034 116.144 394.579C114.47 394.851 112.853 395.113 111.297 395.365C109.811 395.741 108.457 396.449 107.311 397.283C105 398.968 103.5 401.186 102.562 403.245C102.295 403.75 102.111 404.269 101.942 404.772C101.78 405.275 101.566 405.743 101.465 406.223C101.262 407.179 100.967 408.032 100.893 408.838C100.781 409.631 100.681 410.339 100.595 410.96C100.559 411.569 100.527 412.092 100.501 412.529C100.473 412.927 100.45 413.245 100.432 413.496C100.417 413.714 100.402 413.825 100.392 413.825Z" fill="#455A64"/>
<path d="M185.346 363.062C185.387 363.06 185.431 363.42 185.475 364.075C185.532 364.729 185.517 365.683 185.415 366.856C185.322 368.03 185.07 369.415 184.663 370.92C184.228 372.416 183.62 374.027 182.792 375.628C181.945 377.22 180.965 378.636 179.982 379.845C178.975 381.035 177.978 382.03 177.065 382.774C176.16 383.525 175.382 384.078 174.811 384.402C174.247 384.738 173.927 384.907 173.905 384.872C173.846 384.78 175.079 384.017 176.792 382.461C177.654 381.691 178.6 380.686 179.562 379.503C180.502 378.301 181.445 376.91 182.272 375.354C183.08 373.79 183.69 372.224 184.144 370.767C184.57 369.303 184.859 367.954 185.003 366.806C185.309 364.513 185.236 363.066 185.346 363.062Z" fill="#455A64"/>
<path d="M468.601 475.097L321.519 475.009C303.83 475 289.495 460.654 289.499 442.965L289.57 74.2267C289.574 56.5271 303.928 42.1837 321.628 42.1938L468.711 42.2804C486.401 42.2916 500.734 56.6361 500.731 74.3256L500.659 443.065C500.655 460.764 486.301 475.108 468.601 475.097Z" fill="#263238"/>
<path d="M468.555 55.3222L440.038 55.3053C436.214 55.303 433.112 58.5435 433.113 62.5405L433.111 67.7131C433.111 71.7112 430.01 74.9506 426.186 74.9483L370.601 74.9157C366.777 74.9135 363.677 71.6707 363.678 67.6727L363.679 62.5C363.679 58.502 360.579 55.2592 356.755 55.257L346.726 55.2502L321.766 55.2356C309.371 55.2289 299.318 65.2741 299.316 77.6695L299.245 437.584C299.243 449.974 309.281 460.021 321.67 460.028L468.458 460.114C480.853 460.122 490.906 450.077 490.909 437.68L490.98 77.7639C490.982 65.3763 480.944 55.33 468.555 55.3222Z" fill="white"/>
<path d="M490.98 77.7651C490.982 65.3763 480.944 55.33 468.555 55.3222L440.038 55.3053C436.214 55.303 433.112 58.5435 433.113 62.5405L433.111 67.7131C433.111 71.7112 430.01 74.9506 426.186 74.9483L370.601 74.9157C366.777 74.9135 363.677 71.6707 363.678 67.6727L363.679 62.5C363.679 58.502 360.579 55.2592 356.755 55.257L346.726 55.2502L321.766 55.2356C309.371 55.2289 299.318 65.2741 299.316 77.6695L299.245 112.086H490.977L490.98 77.7651Z" fill="#F5F5F5"/>
<path d="M475.38 90.4112C475.381 90.518 471.945 90.6337 467.708 90.6686C463.468 90.7034 460.032 90.645 460.031 90.5382C460.03 90.4303 463.464 90.3156 467.704 90.2808C471.942 90.246 475.379 90.3044 475.38 90.4112Z" fill="#263238"/>
<path d="M475.411 94.3384C475.413 94.4452 471.977 94.561 467.739 94.5958C463.499 94.6307 460.063 94.5722 460.062 94.4654C460.061 94.3587 463.496 94.2429 467.736 94.2081C471.974 94.1732 475.411 94.2317 475.411 94.3384Z" fill="#263238"/>
<path d="M475.444 98.2657C475.445 98.3725 472.009 98.4882 467.772 98.5231C463.532 98.5579 460.096 98.4995 460.095 98.3916C460.094 98.2848 463.529 98.169 467.768 98.1342C472.007 98.1005 475.444 98.1589 475.444 98.2657Z" fill="#263238"/>
<path d="M341.824 362.194L342.597 360.565C343.684 361.547 345.543 362.257 347.424 362.257C349.951 362.257 351.038 361.275 351.038 360C351.038 356.428 342.18 358.684 342.18 353.253C342.18 350.997 343.935 349.075 347.778 349.075C349.491 349.075 351.266 349.535 352.478 350.37L351.789 352.04C350.515 351.225 349.074 350.85 347.779 350.85C345.293 350.85 344.228 351.894 344.228 353.169C344.228 356.741 353.085 354.505 353.085 359.874C353.085 362.109 351.288 364.031 347.425 364.031C345.187 364.031 342.994 363.28 341.824 362.194Z" fill="#263238"/>
<path d="M354.816 358.329C354.816 355.028 357.261 352.688 360.666 352.688C362.651 352.688 364.301 353.503 365.179 355.049L363.654 356.03C362.943 354.945 361.857 354.443 360.645 354.443C358.473 354.443 356.843 355.969 356.843 358.329C356.843 360.731 358.473 362.236 360.645 362.236C361.857 362.236 362.943 361.735 363.654 360.648L365.179 361.609C364.302 363.154 362.651 363.989 360.666 363.989C357.261 363.989 354.816 361.63 354.816 358.329Z" fill="#263238"/>
<path d="M376.542 357.18V363.865H374.641V362.402C373.973 363.405 372.741 363.989 371.008 363.989C368.501 363.989 366.913 362.653 366.913 360.731C366.913 358.956 368.06 357.493 371.362 357.493H374.537V357.097C374.537 355.404 373.556 354.423 371.571 354.423C370.255 354.423 368.918 354.883 368.06 355.614L367.225 354.109C368.374 353.191 370.024 352.689 371.8 352.689C374.828 352.689 376.542 354.15 376.542 357.18ZM374.536 360.48V358.935H371.444C369.459 358.935 368.896 359.708 368.896 360.647C368.896 361.754 369.814 362.444 371.339 362.444C372.844 362.444 374.035 361.755 374.536 360.48Z" fill="#263238"/>
<path d="M390.768 357.493V363.865H388.762V357.723C388.762 355.55 387.675 354.485 385.775 354.485C383.645 354.485 382.266 355.759 382.266 358.161V363.865H380.26V352.792H382.182V354.464C382.997 353.335 384.417 352.688 386.173 352.688C388.866 352.689 390.768 354.235 390.768 357.493Z" fill="#263238"/>
<path d="M404.993 357.493V363.865H402.988V357.723C402.988 355.55 401.901 354.485 400 354.485C397.869 354.485 396.491 355.759 396.491 358.161V363.865H394.486V352.792H396.408V354.464C397.223 353.335 398.642 352.688 400.398 352.688C403.092 352.689 404.993 354.235 404.993 357.493Z" fill="#263238"/>
<path d="M408.355 349.366C408.355 348.636 408.939 348.05 409.713 348.05C410.487 348.05 411.07 348.614 411.07 349.325C411.07 350.077 410.507 350.661 409.713 350.661C408.94 350.662 408.355 350.098 408.355 349.366ZM408.711 352.792H410.716V363.865H408.711V352.792Z" fill="#263238"/>
<path d="M425.047 357.493V363.865H423.042V357.723C423.042 355.55 421.955 354.485 420.054 354.485C417.923 354.485 416.545 355.759 416.545 358.161V363.865H414.54V352.792H416.462V354.464C417.277 353.335 418.697 352.688 420.452 352.688C423.145 352.689 425.047 354.235 425.047 357.493Z" fill="#263238"/>
<path d="M439.418 352.792V362.361C439.418 366.268 437.433 368.043 433.673 368.043C431.646 368.043 429.6 367.478 428.388 366.393L429.349 364.846C430.372 365.724 431.981 366.288 433.61 366.288C436.221 366.288 437.412 365.076 437.412 362.569V361.692C436.451 362.84 435.009 363.404 433.422 363.404C430.226 363.404 427.802 361.231 427.802 358.036C427.802 354.839 430.226 352.688 433.422 352.688C435.072 352.688 436.576 353.293 437.517 354.505V352.792H439.418ZM437.454 358.036C437.454 355.884 435.866 354.443 433.652 354.443C431.417 354.443 429.829 355.884 429.829 358.036C429.829 360.166 431.417 361.65 433.652 361.65C435.866 361.65 437.454 360.167 437.454 358.036Z" fill="#263238"/>
<path d="M442.298 362.548C442.298 361.713 442.946 361.128 443.72 361.128C444.472 361.128 445.099 361.713 445.099 362.548C445.099 363.384 444.472 363.989 443.72 363.989C442.947 363.989 442.298 363.384 442.298 362.548Z" fill="#263238"/>
<path d="M447.041 362.548C447.041 361.713 447.688 361.128 448.462 361.128C449.214 361.128 449.842 361.713 449.842 362.548C449.842 363.384 449.214 363.989 448.462 363.989C447.688 363.989 447.041 363.384 447.041 362.548Z" fill="#263238"/>
<path d="M451.783 362.548C451.783 361.713 452.43 361.128 453.205 361.128C453.957 361.128 454.584 361.713 454.584 362.548C454.584 363.384 453.957 363.989 453.205 363.989C452.43 363.989 451.783 363.384 451.783 362.548Z" fill="#263238"/>
<path d="M330.617 248.263V255.222H337.575V248.263V241.305H330.617V248.263Z" fill="#263238"/>
<path d="M337.575 206.51H330.617V213.469H337.575V206.51Z" fill="#263238"/>
<path d="M380.577 283.129H373.619V290.088H380.577V283.129Z" fill="#263238"/>
<path d="M337.575 220.428V227.386H330.617V234.346H337.575V241.305H344.534H351.493V248.264H358.453V241.305H365.411V234.346V227.386H358.453V234.346H351.493H344.534V227.386V220.428V213.469H337.575V220.428Z" fill="#263238"/>
<path d="M351.493 206.51H344.534V213.469H351.493H358.453V206.51H351.493Z" fill="#263238"/>
<path d="M382.808 262.453H386.548V255.494H382.808H379.07V262.453H382.808Z" fill="#263238"/>
<path d="M365.411 213.469H358.453V220.428H365.411V213.469Z" fill="#263238"/>
<path d="M414.123 241.305H407.165V248.263H414.123V241.305Z" fill="#263238"/>
<path d="M421.083 164.757H414.124V171.716H421.083V164.757Z" fill="#263238"/>
<path d="M379.329 220.428V213.469H386.288V206.51H379.329V199.552H372.37V206.51H365.411V213.469H372.37V220.428V227.386V234.346V241.305H379.329V234.346V227.386H386.288V220.428H379.329Z" fill="#263238"/>
<path d="M414.124 290.017H421.083V283.058H414.124H407.165V290.017H414.124Z" fill="#263238"/>
<path d="M407.165 164.757H400.206V171.716H407.165V164.757Z" fill="#263238"/>
<path d="M405.425 220.428V213.469H398.466V206.51H391.507V213.469V220.428H384.548V227.386H391.507H398.466V220.428H405.425Z" fill="#263238"/>
<path d="M444.703 206.51H437.744V213.469H444.703V206.51Z" fill="#263238"/>
<path d="M372.57 241.305H365.611V248.263H372.57V241.305Z" fill="#263238"/>
<path d="M400.206 199.552V192.593H407.165V185.633H414.124H421.083V178.674H414.124V171.716H407.165V178.674H400.206V185.633H393.247V192.593H386.288V199.552H393.247H400.206Z" fill="#263238"/>
<path d="M400.206 248.264V241.305H407.165V234.346H400.206H393.247V241.305H386.288V248.264H393.247H400.206Z" fill="#263238"/>
<path d="M421.083 276.096V269.136H414.124H407.164V262.177H400.206V269.136H393.247V276.096H386.288H379.329V283.055H386.288H393.247H400.206V276.096H407.164V283.055H414.124V276.096H421.083Z" fill="#263238"/>
<path d="M393.247 171.716V164.757H386.288H379.329V171.716H372.37V178.674H379.329H386.288V171.716H393.247Z" fill="#263238"/>
<path d="M393.247 178.674H386.288V185.633H393.247V178.674Z" fill="#263238"/>
<path d="M410.644 206.51H403.686V213.469V220.428V227.386H410.644H417.603V220.428H410.644V213.469H417.603V206.51H424.562V199.552H417.603V192.593H410.644V199.552V206.51Z" fill="#263238"/>
<path d="M386.287 185.633H379.329V192.592H386.287V185.633Z" fill="#263238"/>
<path d="M407.165 255.222V262.182H414.124H421.083V255.222H428.042H435V248.263H428.042H421.083H414.124V255.222H407.165Z" fill="#263238"/>
<path d="M444.703 227.386H437.744V234.345H444.703V227.386Z" fill="#263238"/>
<path d="M421.083 234.346H414.124V241.305H421.083V234.346Z" fill="#263238"/>
<path d="M438.48 213.469H431.522H424.562V220.428H431.522V227.386H438.48V220.428V213.469Z" fill="#263238"/>
<path d="M435 234.346H428.042V241.305H435V234.346Z" fill="#263238"/>
<path d="M358.453 276.23H379.338V248.256H351.362V255.222H344.534V262.181H351.362V269.14H344.534V276.098H351.362V276.229H351.493V283.057H344.534V290.016V296.974H351.493V290.016H358.451V283.057L358.453 276.23ZM373.979 253.614V271.011H356.582V253.614H373.979Z" fill="#263238"/>
<path d="M448.919 248.263H455.878V241.305H448.919H441.959H435V248.263H441.959H448.919Z" fill="#263238"/>
<path d="M448.919 220.428H455.877V213.469V206.51H448.919V213.469V220.428Z" fill="#263238"/>
<path d="M393.507 255.494H386.548V262.453V269.412H393.507V262.453V255.494Z" fill="#263238"/>
<path d="M462.836 248.263H455.878V255.222H462.836V248.263Z" fill="#263238"/>
<path d="M462.836 234.346V227.386H455.878V234.346V241.305H462.836V234.346Z" fill="#263238"/>
<path d="M337.575 283.058H330.617V290.017V296.977H337.575V290.017V283.058Z" fill="#263238"/>
<path d="M462.836 199.552V164.757H428.042V199.552H462.836ZM433.261 194.332V169.976H457.617V194.332H433.261Z" fill="#263238"/>
<path d="M452.398 175.195H438.48V189.112H452.398V175.195Z" fill="#263238"/>
<path d="M462.836 262.182H428.042V296.977H462.836V262.182ZM433.261 291.757V267.401H457.617V291.757H433.261Z" fill="#263238"/>
<path d="M452.398 272.619H438.48V286.538H452.398V272.619Z" fill="#263238"/>
<path d="M330.529 164.757V199.552H365.324V164.757H330.529ZM360.105 169.976V194.332H335.749V169.976H360.105Z" fill="#263238"/>
<path d="M354.886 175.195H340.968V189.112H354.886V175.195Z" fill="#263238"/>
<path d="M320.605 189.013C320.605 180.775 320.605 172.537 320.605 164.3C320.605 161.995 320.992 159.815 322.564 158.001C324.321 155.974 326.73 155.193 329.336 155.193C333.818 155.193 338.298 155.193 342.778 155.193C346.96 155.193 351.141 155.193 355.321 155.193C356.322 155.193 356.323 153.638 355.321 153.638C346.755 153.638 338.188 153.638 329.622 153.638C327.42 153.638 325.314 153.963 323.427 155.204C320.669 157.016 319.109 160.046 319.051 163.319C318.979 167.385 319.051 171.459 319.051 175.526C319.051 180.021 319.051 184.516 319.051 189.012C319.052 190.013 320.605 190.016 320.605 189.013Z" fill="#2563EB"/>
<path d="M353.046 308.727C344.808 308.727 336.571 308.727 328.333 308.727C326.029 308.727 323.848 308.34 322.035 306.768C320.008 305.011 319.227 302.602 319.227 299.996C319.227 295.515 319.227 291.034 319.227 286.554C319.227 282.372 319.227 278.192 319.227 274.011C319.227 273.011 317.673 273.009 317.673 274.011C317.673 282.577 317.673 291.144 317.673 299.71C317.673 301.912 317.998 304.018 319.238 305.906C321.05 308.663 324.081 310.224 327.354 310.281C331.42 310.353 335.494 310.281 339.56 310.281C344.055 310.281 348.55 310.281 353.046 310.281C354.046 310.281 354.049 308.727 353.046 308.727Z" fill="#2563EB"/>
<path d="M472.012 273.764C472.012 282.001 472.012 290.239 472.012 298.477C472.012 300.781 471.626 302.962 470.053 304.775C468.297 306.801 465.888 307.583 463.281 307.583C458.801 307.583 454.32 307.583 449.839 307.583C445.658 307.583 441.477 307.583 437.297 307.583C436.296 307.583 436.295 309.137 437.297 309.137C445.863 309.137 454.43 309.137 462.996 309.137C465.198 309.137 467.304 308.812 469.191 307.571C471.948 305.759 473.509 302.729 473.567 299.456C473.639 295.389 473.567 291.316 473.567 287.249C473.567 282.755 473.567 278.26 473.567 273.764C473.566 272.764 472.012 272.762 472.012 273.764Z" fill="#2563EB"/>
<path d="M437.744 155.195C445.982 155.195 454.22 155.195 462.457 155.195C464.762 155.195 466.942 155.582 468.756 157.154C470.783 158.911 471.564 161.32 471.564 163.926C471.564 168.407 471.564 172.888 471.564 177.368C471.564 181.55 471.564 185.731 471.564 189.911C471.564 190.911 473.119 190.913 473.119 189.911C473.119 181.345 473.119 172.778 473.119 164.212C473.119 162.01 472.794 159.904 471.553 158.016C469.741 155.259 466.711 153.699 463.438 153.641C459.371 153.569 455.298 153.641 451.231 153.641C446.736 153.641 442.24 153.641 437.745 153.641C436.745 153.641 436.743 155.195 437.744 155.195Z" fill="#2563EB"/>
<path d="M451.861 423.846H334.633C324.316 423.846 315.952 415.482 315.952 405.165V401.199C315.952 390.882 324.316 382.519 334.633 382.519H451.86C462.178 382.519 470.54 390.882 470.54 401.199V405.165C470.541 415.482 462.178 423.846 451.861 423.846Z" fill="#EBEBEB"/>
<path d="M345.796 399.449L343.202 406.395H341.996L339.992 401.126L337.961 406.395H336.755L334.174 399.449H335.367L337.384 404.979L339.481 399.449H340.542L342.599 405.005L344.67 399.449H345.796Z" fill="#263238"/>
<path d="M357.478 399.449L354.884 406.395H353.678L351.674 401.126L349.643 406.395H348.437L345.856 399.449H347.049L349.066 404.979L351.162 399.449H352.223L354.28 405.005L356.352 399.449H357.478Z" fill="#263238"/>
<path d="M369.159 399.449L366.564 406.395H365.358L363.354 401.126L361.323 406.395H360.117L357.536 399.449H358.729L360.747 404.979L362.843 399.449H363.904L365.961 405.005L368.032 399.449H369.159Z" fill="#263238"/>
<path d="M369.415 405.57C369.415 405.045 369.821 404.678 370.306 404.678C370.778 404.678 371.172 405.045 371.172 405.57C371.172 406.093 370.778 406.474 370.306 406.474C369.821 406.473 369.415 406.092 369.415 405.57Z" fill="#263238"/>
<path d="M372.101 405.662L372.626 404.665C373.215 405.084 374.159 405.386 375.063 405.386C376.23 405.386 376.714 405.032 376.714 404.442C376.714 402.883 372.325 404.232 372.325 401.468C372.325 400.223 373.439 399.384 375.222 399.384C376.125 399.384 377.147 399.62 377.751 400.012L377.213 401.009C376.584 400.604 375.889 400.459 375.209 400.459C374.109 400.459 373.572 400.864 373.572 401.416C373.572 403.054 377.973 401.718 377.973 404.416C377.973 405.674 376.821 406.474 374.973 406.474C373.819 406.473 372.679 406.119 372.101 405.662Z" fill="#263238"/>
<path d="M379.325 397.3C379.325 396.843 379.693 396.475 380.177 396.475C380.663 396.475 381.029 396.829 381.029 397.276C381.029 397.747 380.675 398.114 380.177 398.114C379.693 398.114 379.325 397.759 379.325 397.3ZM379.548 399.449H380.806V406.395H379.548V399.449Z" fill="#263238"/>
<path d="M387.111 405.988C386.731 406.315 386.154 406.473 385.592 406.473C384.19 406.473 383.39 405.699 383.39 404.297V400.483H382.211V399.448H383.39V397.927H384.647V399.448H386.639V400.483H384.647V404.244C384.647 404.992 385.042 405.411 385.735 405.411C386.102 405.411 386.457 405.293 386.719 405.083L387.111 405.988Z" fill="#263238"/>
<path d="M394.648 403.342H389.013C389.172 404.56 390.154 405.373 391.529 405.373C392.342 405.373 393.022 405.097 393.534 404.534L394.227 405.347C393.599 406.081 392.642 406.474 391.489 406.474C389.248 406.474 387.754 404.994 387.754 402.924C387.754 400.866 389.234 399.385 391.241 399.385C393.245 399.385 394.674 400.827 394.674 402.963C394.674 403.066 394.661 403.224 394.648 403.342ZM389.013 402.437H393.469C393.338 401.27 392.46 400.445 391.241 400.445C390.036 400.445 389.145 401.258 389.013 402.437Z" fill="#263238"/>
<path d="M406.799 399.449L404.205 406.395H402.999L400.995 401.126L398.964 406.395H397.758L395.177 399.449H396.37L398.387 404.979L400.483 399.449H401.544L403.601 405.005L405.673 399.449H406.799Z" fill="#263238"/>
<path d="M414.129 403.342H408.494C408.653 404.56 409.635 405.373 411.01 405.373C411.824 405.373 412.504 405.097 413.015 404.534L413.708 405.347C413.08 406.081 412.124 406.474 410.97 406.474C408.729 406.474 407.235 404.994 407.235 402.924C407.235 400.866 408.716 399.385 410.722 399.385C412.726 399.385 414.155 400.827 414.155 402.963C414.155 403.066 414.142 403.224 414.129 403.342ZM408.494 402.437H412.95C412.819 401.27 411.942 400.445 410.723 400.445C409.517 400.445 408.626 401.258 408.494 402.437Z" fill="#263238"/>
<path d="M423.097 402.923C423.097 405.045 421.617 406.473 419.586 406.473C418.564 406.473 417.673 406.08 417.11 405.293V406.395H415.904V396.672H417.161V400.498C417.739 399.752 418.602 399.384 419.586 399.384C421.616 399.384 423.097 400.799 423.097 402.923ZM421.826 402.923C421.826 401.442 420.817 400.485 419.48 400.485C418.157 400.485 417.148 401.442 417.148 402.923C417.148 404.403 418.157 405.373 419.48 405.373C420.817 405.373 421.826 404.403 421.826 402.923Z" fill="#263238"/>
<path d="M424.096 405.57C424.096 405.045 424.502 404.678 424.988 404.678C425.46 404.678 425.853 405.045 425.853 405.57C425.853 406.093 425.46 406.474 424.988 406.474C424.502 406.473 424.096 406.092 424.096 405.57Z" fill="#263238"/>
<path d="M426.863 402.923C426.863 400.851 428.396 399.384 430.532 399.384C431.777 399.384 432.812 399.896 433.363 400.864L432.406 401.48C431.96 400.8 431.279 400.485 430.519 400.485C429.155 400.485 428.134 401.442 428.134 402.923C428.134 404.429 429.155 405.373 430.519 405.373C431.279 405.373 431.96 405.058 432.406 404.377L433.363 404.979C432.813 405.948 431.778 406.473 430.532 406.473C428.396 406.473 426.863 404.993 426.863 402.923Z" fill="#263238"/>
<path d="M434.245 402.923C434.245 400.851 435.778 399.384 437.862 399.384C439.946 399.384 441.466 400.852 441.466 402.923C441.466 404.993 439.945 406.473 437.862 406.473C435.778 406.473 434.245 404.993 434.245 402.923ZM440.194 402.923C440.194 401.442 439.198 400.485 437.862 400.485C436.527 400.485 435.516 401.442 435.516 402.923C435.516 404.403 436.526 405.373 437.862 405.373C439.198 405.373 440.194 404.403 440.194 402.923Z" fill="#263238"/>
<path d="M454.742 402.398V406.395H453.485V402.541C453.485 401.179 452.829 400.51 451.69 400.51C450.432 400.51 449.606 401.31 449.606 402.817V406.395H448.348V402.541C448.348 401.179 447.693 400.51 446.552 400.51C445.294 400.51 444.468 401.31 444.468 402.817V406.395H443.21V399.449H444.416V400.485C444.913 399.778 445.765 399.384 446.814 399.384C447.875 399.384 448.766 399.803 449.226 400.668C449.75 399.882 450.72 399.384 451.899 399.384C453.589 399.384 454.742 400.354 454.742 402.398Z" fill="#263238"/>
<path d="M454.321 410.956C454.321 411.118 427.81 411.248 395.115 411.248C362.409 411.248 335.904 411.118 335.904 410.956C335.904 410.794 362.409 410.664 395.115 410.664C427.81 410.662 454.321 410.794 454.321 410.956Z" fill="#263238"/>
</svg>
