<svg width="32" height="33" viewBox="0 0 32 33" fill="none" xmlns="http://www.w3.org/2000/svg">
<g id="ic:baseline-person-outline">
<path id="Vector" d="M16.0002 8.24078C16.3679 8.24078 16.732 8.31321 17.0717 8.45392C17.4114 8.59463 17.7201 8.80088 17.9801 9.06089C18.2401 9.32089 18.4463 9.62956 18.587 9.96927C18.7277 10.309 18.8002 10.6731 18.8002 11.0408C18.8002 11.4085 18.7277 11.7726 18.587 12.1123C18.4463 12.452 18.2401 12.7607 17.9801 13.0207C17.7201 13.2807 17.4114 13.4869 17.0717 13.6276C16.732 13.7684 16.3679 13.8408 16.0002 13.8408C15.2576 13.8408 14.5454 13.5458 14.0203 13.0207C13.4952 12.4956 13.2002 11.7834 13.2002 11.0408C13.2002 10.2982 13.4952 9.58599 14.0203 9.06089C14.5454 8.53578 15.2576 8.24078 16.0002 8.24078ZM16.0002 20.2408C19.9602 20.2408 24.1335 22.1875 24.1335 23.0408V24.5075H7.86683V23.0408C7.86683 22.1875 12.0402 20.2408 16.0002 20.2408ZM16.0002 5.70745C13.0535 5.70745 10.6668 8.09412 10.6668 11.0408C10.6668 13.9875 13.0535 16.3741 16.0002 16.3741C18.9468 16.3741 21.3335 13.9875 21.3335 11.0408C21.3335 8.09412 18.9468 5.70745 16.0002 5.70745ZM16.0002 17.7075C12.4402 17.7075 5.3335 19.4941 5.3335 23.0408V27.0408H26.6668V23.0408C26.6668 19.4941 19.5602 17.7075 16.0002 17.7075Z" fill="white"/>
</g>
</svg>
