<svg width="32" height="32" viewBox="0 0 32 32" fill="none" xmlns="http://www.w3.org/2000/svg">
<path d="M4 28H9L23.7467 13.2533L18.7467 8.25333L4 23V28ZM6.66667 24.1067L18.7467 12.0267L19.9733 13.2533L7.89333 25.3333H6.66667V24.1067ZM24.4933 4.38667C24.37 4.26306 24.2235 4.165 24.0622 4.09809C23.9009 4.03118 23.728 3.99674 23.5533 3.99674C23.3787 3.99674 23.2058 4.03118 23.0445 4.09809C22.8832 4.165 22.7367 4.26306 22.6133 4.38667L20.1733 6.82667L25.1733 11.8267L27.6133 9.38667C27.7369 9.26332 27.835 9.1168 27.9019 8.9555C27.9688 8.7942 28.0033 8.62129 28.0033 8.44667C28.0033 8.27204 27.9688 8.09913 27.9019 7.93784C27.835 7.77654 27.7369 7.63002 27.6133 7.50667L24.4933 4.38667Z" fill="white"/>
</svg>
