<svg width="732" height="624" viewBox="0 0 732 624" fill="none" xmlns="http://www.w3.org/2000/svg">
<g clip-path="url(#clip0_531_3348)">
<path d="M658.255 497.32H609.831V497.632H658.255V497.32Z" fill="#EBEBEB"/>
<path d="M484.744 500.708H472.034V501.02H484.744V500.708Z" fill="#EBEBEB"/>
<path d="M608.367 485.732H580.309V486.044H608.367V485.732Z" fill="#EBEBEB"/>
<path d="M140.343 487.828H77.1951V488.14H140.343V487.828Z" fill="#EBEBEB"/>
<path d="M162.62 487.828H153.361V488.14H162.62V487.828Z" fill="#EBEBEB"/>
<path d="M329.665 493.099H192.711V493.411H329.665V493.099Z" fill="#EBEBEB"/>
<path d="M347.014 421.574H64.7037C60.1028 421.574 56.3586 418.378 56.3586 414.451V75.7037C56.3586 71.7762 60.1028 68.5801 64.7037 68.5801H347.014C351.614 68.5801 355.358 71.7762 355.358 75.7037V414.451C355.358 418.378 351.614 421.574 347.014 421.574ZM64.7037 68.8933C60.3031 68.8933 56.7241 71.9484 56.7241 75.7049V414.452C56.7241 418.209 60.3031 421.264 64.7037 421.264H347.014C351.414 421.264 354.993 418.209 354.993 414.452V75.7037C354.993 71.9484 351.414 68.8921 347.014 68.8921L64.7037 68.8933Z" fill="#EBEBEB"/>
<path d="M663.239 421.574H380.93C376.329 421.574 372.586 418.378 372.586 414.451V75.7037C372.586 71.7762 376.331 68.5801 380.93 68.5801H663.239C667.842 68.5801 671.584 71.7762 671.584 75.7037V414.451C671.586 418.378 667.842 421.574 663.239 421.574ZM380.93 68.8933C376.531 68.8933 372.952 71.9484 372.952 75.7049V414.452C372.952 418.209 376.531 421.264 380.93 421.264H663.239C667.64 421.264 671.219 418.209 671.219 414.452V75.7037C671.219 71.9484 667.64 68.8921 663.239 68.8921L380.93 68.8933Z" fill="#EBEBEB"/>
<path d="M731.5 477.233H0.5V477.545H731.5V477.233Z" fill="#EBEBEB"/>
<g opacity="0.3">
<path d="M358.95 528.795C515.504 528.795 642.416 522.468 642.416 514.664C642.416 506.86 515.504 500.533 358.95 500.533C202.397 500.533 75.4846 506.86 75.4846 514.664C75.4846 522.468 202.397 528.795 358.95 528.795Z" fill="#2563EB"/>
</g>
<path d="M501.744 424.105H360.965C345.127 424.105 333.187 413.145 334.294 399.627L357.823 112.399C358.93 98.8791 372.667 87.9204 388.505 87.9204H529.284C545.121 87.9204 557.062 98.8803 555.955 112.399L532.425 399.627C531.317 413.145 517.582 424.105 501.744 424.105Z" fill="#2563EB"/>
<path d="M494.434 424.105H353.655C337.817 424.105 325.877 413.145 326.984 399.627L350.513 112.399C351.62 98.879 365.357 87.9203 381.195 87.9203H521.974C537.811 87.9203 549.752 98.8803 548.645 112.399L525.115 399.627C524.007 413.145 510.272 424.105 494.434 424.105Z" fill="#263238"/>
<path d="M521.513 93.5362H484.922C482.526 93.5362 480.378 95.0563 479.907 97.0855L479.681 98.064C478.533 103.02 473.289 106.734 467.437 106.734H432.65C426.797 106.734 422.16 103.02 421.825 98.064L421.759 97.0855C421.622 95.0563 419.723 93.5362 417.327 93.5362H380.734C368.531 93.5362 357.946 101.981 357.092 112.398L333.563 399.626C332.709 410.043 341.911 418.488 354.114 418.488H494.893C507.096 418.488 517.681 410.043 518.535 399.626L542.064 112.398C542.918 101.981 533.716 93.5362 521.513 93.5362Z" fill="#2563EB"/>
<path d="M542.067 112.401L518.538 399.628C517.684 410.049 507.096 418.486 494.887 418.486H354.111C341.903 418.486 332.712 410.049 333.566 399.628L357.095 112.401C357.949 101.98 368.524 93.5314 380.731 93.5314H417.325C419.723 93.5314 421.616 95.0539 421.756 97.0882L421.824 98.0616C422.163 103.016 426.8 106.735 432.648 106.735H467.429C473.292 106.735 478.538 103.016 479.675 98.0616L479.902 97.0882C480.375 95.0539 482.532 93.5314 484.929 93.5314H521.509C533.716 93.5314 542.921 101.98 542.067 112.401Z" fill="white"/>
<path d="M521.367 365.109L518.539 399.628C517.686 410.049 507.098 418.486 494.889 418.486H354.113C341.905 418.486 332.713 410.049 333.567 399.628L336.395 365.109H521.367Z" fill="#263238"/>
<path opacity="0.5" d="M521.367 365.109L518.539 399.628C517.686 410.049 507.098 418.486 494.889 418.486H354.113C341.905 418.486 332.713 410.049 333.567 399.628L336.395 365.109H521.367Z" fill="white"/>
<g opacity="0.7">
<path d="M442.349 96.7188C442.24 98.0366 440.901 99.1049 439.357 99.1049C437.813 99.1049 436.648 98.0366 436.756 96.7188C436.865 95.4009 438.204 94.3326 439.748 94.3326C441.292 94.3326 442.457 95.4009 442.349 96.7188Z" fill="black"/>
<path d="M462.369 94.3326C461.265 94.3326 453.887 94.3326 452.783 94.3326C451.239 94.3326 449.9 95.4009 449.792 96.7188C449.683 98.0366 450.847 99.1049 452.393 99.1049C453.352 99.1049 461.02 99.1049 461.979 99.1049C463.523 99.1049 464.863 98.0366 464.97 96.7188C465.077 95.4009 463.913 94.3326 462.369 94.3326Z" fill="black"/>
</g>
<path d="M372.883 106.688H375.844L376.051 104.161H373.091L372.883 106.688Z" fill="#2563EB"/>
<path d="M379.012 104.161L378.804 106.688H381.765L381.971 104.161L382.179 101.633H379.218L379.012 104.161Z" fill="#2563EB"/>
<path d="M385.347 99.1062L385.139 101.633L384.932 104.161L384.726 106.688H387.686L387.892 104.161L388.1 101.633L388.307 99.1062H385.347Z" fill="#2563EB"/>
<path d="M512.646 99.2747L512.494 101.128H511.047L510.742 104.834H512.19L512.038 106.688H525.064L525.671 99.2747H512.646ZM517.979 104.834H513.637L513.941 101.128H518.283L517.979 104.834Z" fill="#2563EB"/>
<path d="M381.275 242.515H380.287C379.608 242.515 379.095 242.045 379.144 241.466L380.61 223.583C380.896 220.089 384.459 217.246 388.554 217.246L409.493 217.248C410.172 217.248 410.683 217.717 410.636 218.298L410.568 219.141C410.521 219.722 409.932 220.191 409.252 220.191L388.313 220.188C386.116 220.188 384.211 221.708 384.057 223.584L382.591 241.467C382.543 242.046 381.953 242.515 381.275 242.515Z" fill="#2563EB"/>
<path d="M460.691 316.314L460.76 315.471C460.808 314.892 461.396 314.421 462.075 314.421L483.011 314.42C485.207 314.42 487.112 312.9 487.267 311.025L488.735 293.146C488.783 292.567 489.371 292.097 490.051 292.097H491.039C491.717 292.097 492.231 292.566 492.182 293.146L490.714 311.025C490.428 314.525 486.871 317.361 482.771 317.361L461.836 317.363C461.156 317.364 460.643 316.895 460.691 316.314Z" fill="#2563EB"/>
<path d="M495.105 242.515H494.117C493.438 242.515 492.925 242.045 492.973 241.466L494.429 223.72C494.488 223 494.342 222.275 493.91 221.685C493.216 220.735 492.049 220.2 490.741 220.2L469.793 220.197C469.115 220.197 468.603 219.727 468.65 219.148L468.719 218.304C468.767 217.725 469.355 217.254 470.034 217.254L490.698 217.257C492.517 217.257 494.293 217.724 495.606 218.719C497.226 219.949 498.041 221.71 497.886 223.595L496.419 241.466C496.374 242.046 495.785 242.515 495.105 242.515Z" fill="#2563EB"/>
<path d="M380.341 317.368C378.135 317.368 376.142 316.55 374.82 315.084C373.75 313.893 373.329 312.346 373.456 310.792L374.904 293.146C374.952 292.567 375.54 292.097 376.219 292.097H377.208C377.888 292.097 378.399 292.566 378.351 293.146L376.895 310.909C376.836 311.627 376.983 312.351 377.415 312.94C378.11 313.888 379.277 314.424 380.584 314.424H380.585L401.533 314.422C402.212 314.422 402.724 314.893 402.676 315.472L402.607 316.316C402.56 316.895 401.971 317.365 401.291 317.365L380.344 317.366L380.341 317.368Z" fill="#2563EB"/>
<path d="M400.205 342.591C399.331 343.43 398.136 343.879 396.786 343.879C394.962 343.879 393.729 343.31 391.976 341.604C388.638 341.244 386.449 339.074 386.682 336.229C386.936 333.115 389.967 330.81 393.841 330.81C397.699 330.81 400.369 333.1 400.113 336.229C399.911 338.685 397.981 340.629 395.309 341.349C395.86 341.888 396.372 342.083 396.984 342.083C397.739 342.083 398.424 341.828 399.047 341.304L400.205 342.591ZM393.122 339.582C395.315 339.582 397.074 338.22 397.237 336.23C397.4 334.239 395.865 332.877 393.672 332.877C391.48 332.877 389.72 334.239 389.557 336.23C389.394 338.22 390.93 339.582 393.122 339.582Z" fill="#263238"/>
<path d="M409.651 341.468L407.522 338.549H407.382H404.91L404.671 341.468H401.831L402.689 330.99H408.002C411.281 330.99 413.214 332.441 413.021 334.791C412.892 336.363 411.867 337.515 410.224 338.098L412.701 341.467H409.651V341.468ZM407.682 332.966H405.367L405.069 336.618H407.383C409.12 336.618 410.053 335.93 410.147 334.792C410.24 333.639 409.419 332.966 407.682 332.966Z" fill="#263238"/>
<path d="M419.349 336.229C419.607 333.07 422.634 330.81 426.456 330.81C428.577 330.81 430.293 331.469 431.353 332.666L429.412 334.102C428.654 333.295 427.654 332.875 426.426 332.875C424.129 332.875 422.385 334.253 422.223 336.229C422.061 338.206 423.578 339.581 425.877 339.581C427.105 339.581 428.173 339.163 429.065 338.339L430.771 339.776C429.515 340.989 427.689 341.646 425.551 341.646C421.745 341.647 419.09 339.387 419.349 336.229Z" fill="#263238"/>
<path d="M431.944 336.229C432.198 333.115 435.227 330.81 439.103 330.81C442.961 330.81 445.631 333.1 445.375 336.229C445.119 339.357 442.072 341.648 438.214 341.648C434.341 341.648 431.689 339.342 431.944 336.229ZM442.501 336.229C442.663 334.238 441.126 332.875 438.935 332.875C436.743 332.875 434.983 334.238 434.821 336.229C434.657 338.22 436.194 339.581 438.385 339.581C440.577 339.582 442.337 338.22 442.501 336.229Z" fill="#263238"/>
<path d="M447.953 330.991H453.529C457.543 330.991 460.128 333.055 459.868 336.229C459.608 339.402 456.685 341.468 452.671 341.468H447.094L447.953 330.991ZM452.692 339.477C455.13 339.477 456.827 338.235 456.991 336.229C457.155 334.223 455.662 332.98 453.225 332.98H450.63L450.097 339.476H452.692V339.477Z" fill="#263238"/>
<path d="M471.248 339.522L471.089 341.469H461.584L462.442 330.991H471.717L471.558 332.936H465.105L464.919 335.212H470.618L470.463 337.097H464.764L464.565 339.522H471.248Z" fill="#263238"/>
<path d="M536.936 175.006H351.46L355.833 121.625H541.308L536.936 175.006Z" fill="#2563EB"/>
<path d="M402.214 131.082L399.391 165.548" stroke="#E0E0E0" stroke-miterlimit="10"/>
<path d="M448.457 131.082L445.634 165.548" stroke="#E0E0E0" stroke-miterlimit="10"/>
<path d="M494.7 131.082L491.877 165.548" stroke="#E0E0E0" stroke-miterlimit="10"/>
<path d="M390.2 225.162L389.926 228.514H393.852L394.126 225.162H390.2Z" fill="#263238"/>
<path d="M394.126 225.162L393.853 228.514H397.778L398.053 225.162H394.126Z" fill="#263238"/>
<path d="M398.053 225.162L397.778 228.514H401.704L401.978 225.162H398.053Z" fill="#263238"/>
<path d="M401.978 225.162L401.703 228.514H405.629L405.904 225.162H401.978Z" fill="#263238"/>
<path d="M405.904 225.162L405.629 228.514H409.556L409.829 225.162H405.904Z" fill="#263238"/>
<path d="M409.829 225.162L409.556 228.514H413.481L413.756 225.162H409.829Z" fill="#263238"/>
<path d="M413.756 225.162L413.481 228.514H417.407L417.682 225.162H413.756Z" fill="#263238"/>
<path d="M429.46 225.162L429.185 228.514H433.11L433.385 225.162H429.46Z" fill="#263238"/>
<path d="M441.236 225.162L440.963 228.514H444.888L445.163 225.162H441.236Z" fill="#263238"/>
<path d="M445.163 225.162L444.888 228.514H448.814L449.088 225.162H445.163Z" fill="#263238"/>
<path d="M449.088 225.162L448.813 228.514H452.74L453.014 225.162H449.088Z" fill="#263238"/>
<path d="M453.014 225.162L452.74 228.514H456.666L456.941 225.162H453.014Z" fill="#263238"/>
<path d="M460.866 225.162L460.591 228.514H464.517L464.792 225.162H460.866Z" fill="#263238"/>
<path d="M464.792 225.162L464.517 228.514H468.444L468.717 225.162H464.792Z" fill="#263238"/>
<path d="M468.717 225.162L468.444 228.514H472.369L472.644 225.162H468.717Z" fill="#263238"/>
<path d="M472.644 225.162L472.369 228.514H476.295L476.57 225.162H472.644Z" fill="#263238"/>
<path d="M476.57 225.162L476.295 228.514H480.22L480.495 225.162H476.57Z" fill="#263238"/>
<path d="M480.495 225.162L480.22 228.514H484.147L484.421 225.162H480.495Z" fill="#263238"/>
<path d="M484.421 225.162L484.147 228.514H488.073L488.348 225.162H484.421Z" fill="#263238"/>
<path d="M389.926 228.514L389.652 231.865H393.578L393.853 228.514H389.926Z" fill="#263238"/>
<path d="M413.481 228.514L413.207 231.865H417.132L417.407 228.514H413.481Z" fill="#263238"/>
<path d="M425.259 228.514L424.984 231.865H428.91L429.185 228.514H425.259Z" fill="#263238"/>
<path d="M444.888 228.514L444.613 231.865H448.54L448.814 228.514H444.888Z" fill="#263238"/>
<path d="M448.813 228.514L448.54 231.865H452.466L452.74 228.514H448.813Z" fill="#263238"/>
<path d="M452.74 228.514L452.466 231.865H456.391L456.666 228.514H452.74Z" fill="#263238"/>
<path d="M460.592 228.514L460.317 231.865H464.244L464.517 228.514H460.592Z" fill="#263238"/>
<path d="M484.147 228.514L483.872 231.865H487.798L488.073 228.514H484.147Z" fill="#263238"/>
<path d="M389.652 231.865L389.377 235.216H393.303L393.578 231.865H389.652Z" fill="#263238"/>
<path d="M397.503 231.865L397.228 235.216H401.155L401.429 231.865H397.503Z" fill="#263238"/>
<path d="M401.429 231.865L401.155 235.216H405.081L405.356 231.865H401.429Z" fill="#263238"/>
<path d="M405.356 231.865L405.081 235.216H409.006L409.281 231.865H405.356Z" fill="#263238"/>
<path d="M413.206 231.865L412.932 235.216H416.859L417.132 231.865H413.206Z" fill="#263238"/>
<path d="M421.059 231.865L420.784 235.216H424.709L424.984 231.865H421.059Z" fill="#263238"/>
<path d="M432.837 231.865L432.562 235.216H436.487L436.762 231.865H432.837Z" fill="#263238"/>
<path d="M444.613 231.865L444.338 235.216H448.265L448.54 231.865H444.613Z" fill="#263238"/>
<path d="M460.317 231.865L460.042 235.216H463.969L464.244 231.865H460.317Z" fill="#263238"/>
<path d="M468.169 231.865L467.894 235.216H471.82L472.094 231.865H468.169Z" fill="#263238"/>
<path d="M472.094 231.865L471.82 235.216H475.747L476.02 231.865H472.094Z" fill="#263238"/>
<path d="M476.02 231.865L475.747 235.216H479.672L479.947 231.865H476.02Z" fill="#263238"/>
<path d="M483.872 231.865L483.597 235.216H487.523L487.798 231.865H483.872Z" fill="#263238"/>
<path d="M389.377 235.216L389.103 238.566H393.028L393.303 235.216H389.377Z" fill="#263238"/>
<path d="M397.228 235.216L396.955 238.566H400.88L401.155 235.216H397.228Z" fill="#263238"/>
<path d="M401.155 235.216L400.88 238.566H404.806L405.081 235.216H401.155Z" fill="#263238"/>
<path d="M405.081 235.216L404.806 238.566H408.731L409.006 235.216H405.081Z" fill="#263238"/>
<path d="M412.932 235.216L412.658 238.566H416.584L416.859 235.216H412.932Z" fill="#263238"/>
<path d="M424.709 235.216L424.435 238.566H428.362L428.635 235.216H424.709Z" fill="#263238"/>
<path d="M444.338 235.216L444.065 238.566H447.99L448.265 235.216H444.338Z" fill="#263238"/>
<path d="M448.265 235.216L447.99 238.566H451.916L452.191 235.216H448.265Z" fill="#263238"/>
<path d="M460.042 235.216L459.768 238.566H463.694L463.969 235.216H460.042Z" fill="#263238"/>
<path d="M467.894 235.216L467.619 238.566H471.546L471.819 235.216H467.894Z" fill="#263238"/>
<path d="M471.82 235.216L471.546 238.566H475.472L475.746 235.216H471.82Z" fill="#263238"/>
<path d="M475.747 235.216L475.472 238.566H479.397L479.672 235.216H475.747Z" fill="#263238"/>
<path d="M483.597 235.216L483.323 238.566H487.249L487.523 235.216H483.597Z" fill="#263238"/>
<path d="M389.102 238.566L388.828 241.919H392.753L393.028 238.566H389.102Z" fill="#263238"/>
<path d="M396.955 238.566L396.68 241.919H400.605L400.88 238.566H396.955Z" fill="#263238"/>
<path d="M400.88 238.566L400.605 241.919H404.531L404.806 238.566H400.88Z" fill="#263238"/>
<path d="M404.806 238.566L404.531 241.919H408.458L408.731 238.566H404.806Z" fill="#263238"/>
<path d="M412.658 238.566L412.384 241.919H416.309L416.584 238.566H412.658Z" fill="#263238"/>
<path d="M424.435 238.566L424.161 241.919H428.087L428.362 238.566H424.435Z" fill="#263238"/>
<path d="M436.213 238.566L435.938 241.919H439.865L440.14 238.566H436.213Z" fill="#263238"/>
<path d="M440.14 238.566L439.865 241.919H443.79L444.065 238.566H440.14Z" fill="#263238"/>
<path d="M444.065 238.566L443.79 241.919H447.716L447.99 238.566H444.065Z" fill="#263238"/>
<path d="M447.99 238.566L447.716 241.919H451.641L451.916 238.566H447.99Z" fill="#263238"/>
<path d="M459.768 238.566L459.493 241.919H463.419L463.694 238.566H459.768Z" fill="#263238"/>
<path d="M467.619 238.566L467.344 241.919H471.271L471.546 238.566H467.619Z" fill="#263238"/>
<path d="M471.546 238.566L471.271 241.919H475.197L475.472 238.566H471.546Z" fill="#263238"/>
<path d="M475.472 238.566L475.197 241.919H479.122L479.397 238.566H475.472Z" fill="#263238"/>
<path d="M483.322 238.566L483.049 241.919H486.975L487.249 238.566H483.322Z" fill="#263238"/>
<path d="M388.828 241.917L388.554 245.269H392.48L392.753 241.917H388.828Z" fill="#263238"/>
<path d="M412.384 241.917L412.109 245.269H416.034L416.309 241.917H412.384Z" fill="#263238"/>
<path d="M428.087 241.917L427.812 245.269H431.737L432.012 241.917H428.087Z" fill="#263238"/>
<path d="M432.012 241.917L431.737 245.269H435.664L435.938 241.917H432.012Z" fill="#263238"/>
<path d="M439.865 241.917L439.59 245.269H443.515L443.79 241.917H439.865Z" fill="#263238"/>
<path d="M443.79 241.917L443.515 245.269H447.441L447.715 241.917H443.79Z" fill="#263238"/>
<path d="M447.716 241.917L447.441 245.269H451.368L451.641 241.917H447.716Z" fill="#263238"/>
<path d="M451.641 241.917L451.368 245.269H455.293L455.568 241.917H451.641Z" fill="#263238"/>
<path d="M459.493 241.917L459.219 245.269H463.145L463.419 241.917H459.493Z" fill="#263238"/>
<path d="M483.049 241.917L482.774 245.269H486.7L486.975 241.917H483.049Z" fill="#263238"/>
<path d="M388.554 245.269L388.28 248.62H392.205L392.48 245.269H388.554Z" fill="#263238"/>
<path d="M392.48 245.269L392.205 248.62H396.13L396.405 245.269H392.48Z" fill="#263238"/>
<path d="M396.405 245.269L396.13 248.62H400.056L400.331 245.269H396.405Z" fill="#263238"/>
<path d="M400.331 245.269L400.056 248.62H403.983L404.258 245.269H400.331Z" fill="#263238"/>
<path d="M404.258 245.269L403.983 248.62H407.908L408.183 245.269H404.258Z" fill="#263238"/>
<path d="M408.183 245.269L407.908 248.62H411.834L412.109 245.269H408.183Z" fill="#263238"/>
<path d="M412.109 245.269L411.834 248.62H415.761L416.034 245.269H412.109Z" fill="#263238"/>
<path d="M419.961 245.269L419.686 248.62H423.612L423.886 245.269H419.961Z" fill="#263238"/>
<path d="M427.812 245.269L427.537 248.62H431.464L431.737 245.269H427.812Z" fill="#263238"/>
<path d="M435.664 245.269L435.389 248.62H439.315L439.59 245.269H435.664Z" fill="#263238"/>
<path d="M443.515 245.269L443.24 248.62H447.167L447.441 245.269H443.515Z" fill="#263238"/>
<path d="M451.368 245.269L451.093 248.62H455.018L455.293 245.269H451.368Z" fill="#263238"/>
<path d="M459.219 245.269L458.944 248.62H462.871L463.146 245.269H459.219Z" fill="#263238"/>
<path d="M463.145 245.269L462.871 248.62H466.796L467.071 245.269H463.145Z" fill="#263238"/>
<path d="M467.071 245.269L466.796 248.62H470.722L470.996 245.269H467.071Z" fill="#263238"/>
<path d="M470.997 245.269L470.722 248.62H474.649L474.922 245.269H470.997Z" fill="#263238"/>
<path d="M474.922 245.269L474.648 248.62H478.574L478.849 245.269H474.922Z" fill="#263238"/>
<path d="M478.849 245.269L478.574 248.62H482.499L482.774 245.269H478.849Z" fill="#263238"/>
<path d="M482.774 245.269L482.5 248.62H486.425L486.7 245.269H482.774Z" fill="#263238"/>
<path d="M419.686 248.62L419.411 251.971H423.337L423.611 248.62H419.686Z" fill="#263238"/>
<path d="M435.389 248.62L435.115 251.971H439.04L439.315 248.62H435.389Z" fill="#263238"/>
<path d="M439.315 248.62L439.04 251.971H442.967L443.24 248.62H439.315Z" fill="#263238"/>
<path d="M451.093 248.62L450.818 251.971H454.743L455.018 248.62H451.093Z" fill="#263238"/>
<path d="M388.005 251.971L387.73 255.323H391.655L391.93 251.971H388.005Z" fill="#263238"/>
<path d="M391.93 251.971L391.655 255.323H395.582L395.857 251.971H391.93Z" fill="#263238"/>
<path d="M395.857 251.971L395.582 255.323H399.507L399.782 251.971H395.857Z" fill="#263238"/>
<path d="M403.708 251.971L403.433 255.323H407.359L407.633 251.971H403.708Z" fill="#263238"/>
<path d="M407.633 251.971L407.358 255.323H411.285L411.56 251.971H407.633Z" fill="#263238"/>
<path d="M411.56 251.971L411.285 255.323H415.211L415.486 251.971H411.56Z" fill="#263238"/>
<path d="M415.486 251.971L415.211 255.323H419.136L419.411 251.971H415.486Z" fill="#263238"/>
<path d="M419.411 251.971L419.136 255.323H423.063L423.337 251.971H419.411Z" fill="#263238"/>
<path d="M431.189 251.971L430.914 255.323H434.84L435.115 251.971H431.189Z" fill="#263238"/>
<path d="M435.115 251.971L434.84 255.323H438.767L439.04 251.971H435.115Z" fill="#263238"/>
<path d="M439.04 251.971L438.767 255.323H442.692L442.967 251.971H439.04Z" fill="#263238"/>
<path d="M450.818 251.971L450.543 255.323H454.47L454.743 251.971H450.818Z" fill="#263238"/>
<path d="M454.743 251.971L454.47 255.323H458.395L458.67 251.971H454.743Z" fill="#263238"/>
<path d="M458.67 251.971L458.396 255.323H462.321L462.596 251.971H458.67Z" fill="#263238"/>
<path d="M474.374 251.971L474.099 255.323H478.024L478.299 251.971H474.374Z" fill="#263238"/>
<path d="M395.582 255.323L395.307 258.674H399.233L399.507 255.323H395.582Z" fill="#263238"/>
<path d="M399.508 255.323L399.233 258.674H403.16L403.433 255.323H399.508Z" fill="#263238"/>
<path d="M403.433 255.323L403.16 258.674H407.085L407.359 255.323H403.433Z" fill="#263238"/>
<path d="M415.211 255.323L414.936 258.674H418.863L419.136 255.323H415.211Z" fill="#263238"/>
<path d="M419.136 255.323L418.863 258.674H422.789L423.063 255.323H419.136Z" fill="#263238"/>
<path d="M423.063 255.323L422.788 258.674H426.714L426.989 255.323H423.063Z" fill="#263238"/>
<path d="M430.914 255.323L430.639 258.674H434.566L434.84 255.323H430.914Z" fill="#263238"/>
<path d="M434.84 255.323L434.566 258.674H438.492L438.767 255.323H434.84Z" fill="#263238"/>
<path d="M450.543 255.323L450.27 258.674H454.195L454.47 255.323H450.543Z" fill="#263238"/>
<path d="M458.395 255.323L458.121 258.674H462.046L462.321 255.323H458.395Z" fill="#263238"/>
<path d="M481.951 255.323L481.676 258.674H485.602L485.877 255.323H481.951Z" fill="#263238"/>
<path d="M395.307 258.674L395.032 262.025H398.958L399.233 258.674H395.307Z" fill="#263238"/>
<path d="M411.011 258.674L410.736 262.025H414.661L414.936 258.674H411.011Z" fill="#263238"/>
<path d="M414.936 258.674L414.661 262.025H418.588L418.863 258.674H414.936Z" fill="#263238"/>
<path d="M426.714 258.674L426.439 262.025H430.366L430.639 258.674H426.714Z" fill="#263238"/>
<path d="M434.566 258.674L434.292 262.025H438.217L438.492 258.674H434.566Z" fill="#263238"/>
<path d="M442.417 258.674L442.142 262.025H446.069L446.343 258.674H442.417Z" fill="#263238"/>
<path d="M458.121 258.674L457.846 262.025H461.773L462.046 258.674H458.121Z" fill="#263238"/>
<path d="M462.046 258.674L461.773 262.025H465.698L465.973 258.674H462.046Z" fill="#263238"/>
<path d="M465.973 258.674L465.698 262.025H469.624L469.899 258.674H465.973Z" fill="#263238"/>
<path d="M473.824 258.674L473.549 262.025H477.476L477.749 258.674H473.824Z" fill="#263238"/>
<path d="M477.749 258.674L477.476 262.025H481.402L481.676 258.674H477.749Z" fill="#263238"/>
<path d="M481.676 258.674L481.401 262.025H485.327L485.602 258.674H481.676Z" fill="#263238"/>
<path d="M387.181 262.025L386.906 265.376H390.832L391.107 262.025H387.181Z" fill="#263238"/>
<path d="M391.107 262.025L390.832 265.376H394.758L395.032 262.025H391.107Z" fill="#263238"/>
<path d="M395.032 262.025L394.758 265.376H398.684L398.958 262.025H395.032Z" fill="#263238"/>
<path d="M402.885 262.025L402.61 265.376H406.535L406.81 262.025H402.885Z" fill="#263238"/>
<path d="M422.514 262.025L422.239 265.376H426.164L426.439 262.025H422.514Z" fill="#263238"/>
<path d="M426.439 262.025L426.164 265.376H430.091L430.366 262.025H426.439Z" fill="#263238"/>
<path d="M434.291 262.025L434.017 265.376H437.942L438.217 262.025H434.291Z" fill="#263238"/>
<path d="M438.217 262.025L437.942 265.376H441.868L442.142 262.025H438.217Z" fill="#263238"/>
<path d="M442.143 262.025L441.868 265.376H445.795L446.069 262.025H442.143Z" fill="#263238"/>
<path d="M446.069 262.025L445.794 265.376H449.72L449.995 262.025H446.069Z" fill="#263238"/>
<path d="M453.92 262.025L453.646 265.376H457.572L457.846 262.025H453.92Z" fill="#263238"/>
<path d="M457.846 262.025L457.572 265.376H461.498L461.773 262.025H457.846Z" fill="#263238"/>
<path d="M461.773 262.025L461.498 265.376H465.423L465.698 262.025H461.773Z" fill="#263238"/>
<path d="M477.476 262.025L477.201 265.376H481.127L481.401 262.025H477.476Z" fill="#263238"/>
<path d="M394.758 265.376L394.484 268.728H398.41L398.684 265.376H394.758Z" fill="#263238"/>
<path d="M398.685 265.376L398.41 268.728H402.335L402.61 265.376H398.685Z" fill="#263238"/>
<path d="M410.461 265.376L410.188 268.728H414.113L414.388 265.376H410.461Z" fill="#263238"/>
<path d="M418.313 265.376L418.038 268.728H421.965L422.239 265.376H418.313Z" fill="#263238"/>
<path d="M426.164 265.376L425.891 268.728H429.816L430.091 265.376H426.164Z" fill="#263238"/>
<path d="M437.942 265.376L437.669 268.728H441.594L441.868 265.376H437.942Z" fill="#263238"/>
<path d="M449.72 265.376L449.445 268.728H453.372L453.645 265.376H449.72Z" fill="#263238"/>
<path d="M453.645 265.376L453.372 268.728H457.298L457.572 265.376H453.645Z" fill="#263238"/>
<path d="M457.572 265.376L457.298 268.728H461.223L461.498 265.376H457.572Z" fill="#263238"/>
<path d="M461.498 265.376L461.223 268.728H465.148L465.423 265.376H461.498Z" fill="#263238"/>
<path d="M469.349 265.376L469.075 268.728H473.001L473.276 265.376H469.349Z" fill="#263238"/>
<path d="M477.201 265.376L476.926 268.728H480.852L481.127 265.376H477.201Z" fill="#263238"/>
<path d="M481.127 265.376L480.852 268.728H484.779L485.052 265.376H481.127Z" fill="#263238"/>
<path d="M406.261 268.728L405.987 272.079H409.913L410.188 268.728H406.261Z" fill="#263238"/>
<path d="M414.113 268.728L413.838 272.079H417.764L418.038 268.728H414.113Z" fill="#263238"/>
<path d="M418.039 268.728L417.764 272.079H421.691L421.965 268.728H418.039Z" fill="#263238"/>
<path d="M425.891 268.728L425.616 272.079H429.541L429.816 268.728H425.891Z" fill="#263238"/>
<path d="M433.742 268.728L433.467 272.079H437.394L437.669 268.728H433.742Z" fill="#263238"/>
<path d="M449.445 268.728L449.17 272.079H453.097L453.372 268.728H449.445Z" fill="#263238"/>
<path d="M453.372 268.728L453.097 272.079H457.023L457.297 268.728H453.372Z" fill="#263238"/>
<path d="M457.298 268.728L457.023 272.079H460.948L461.223 268.728H457.298Z" fill="#263238"/>
<path d="M469.075 268.728L468.801 272.079H472.726L473.001 268.728H469.075Z" fill="#263238"/>
<path d="M480.852 268.728L480.578 272.079H484.504L484.779 268.728H480.852Z" fill="#263238"/>
<path d="M386.357 272.079L386.083 275.43H390.009L390.284 272.079H386.357Z" fill="#263238"/>
<path d="M398.135 272.079L397.86 275.43H401.787L402.06 272.079H398.135Z" fill="#263238"/>
<path d="M402.06 272.079L401.787 275.43H405.712L405.987 272.079H402.06Z" fill="#263238"/>
<path d="M405.987 272.079L405.712 275.43H409.638L409.913 272.079H405.987Z" fill="#263238"/>
<path d="M409.913 272.079L409.638 275.43H413.563L413.838 272.079H409.913Z" fill="#263238"/>
<path d="M413.838 272.079L413.563 275.43H417.49L417.764 272.079H413.838Z" fill="#263238"/>
<path d="M421.69 272.079L421.416 275.43H425.341L425.616 272.079H421.69Z" fill="#263238"/>
<path d="M425.616 272.079L425.341 275.43H429.267L429.541 272.079H425.616Z" fill="#263238"/>
<path d="M437.394 272.079L437.119 275.43H441.044L441.319 272.079H437.394Z" fill="#263238"/>
<path d="M449.17 272.079L448.897 275.43H452.822L453.097 272.079H449.17Z" fill="#263238"/>
<path d="M453.097 272.079L452.822 275.43H456.748L457.023 272.079H453.097Z" fill="#263238"/>
<path d="M457.023 272.079L456.748 275.43H460.675L460.948 272.079H457.023Z" fill="#263238"/>
<path d="M460.948 272.079L460.675 275.43H464.6L464.875 272.079H460.948Z" fill="#263238"/>
<path d="M472.726 272.079L472.451 275.43H476.378L476.651 272.079H472.726Z" fill="#263238"/>
<path d="M476.652 272.079L476.378 275.43H480.304L480.579 272.079H476.652Z" fill="#263238"/>
<path d="M480.578 272.079L480.303 275.43H484.229L484.504 272.079H480.578Z" fill="#263238"/>
<path d="M390.009 275.43L389.734 278.781H393.66L393.934 275.43H390.009Z" fill="#263238"/>
<path d="M393.935 275.43L393.66 278.781H397.587L397.86 275.43H393.935Z" fill="#263238"/>
<path d="M405.712 275.43L405.438 278.781H409.363L409.638 275.43H405.712Z" fill="#263238"/>
<path d="M413.563 275.43L413.29 278.781H417.215L417.49 275.43H413.563Z" fill="#263238"/>
<path d="M421.416 275.43L421.141 278.781H425.066L425.341 275.43H421.416Z" fill="#263238"/>
<path d="M425.341 275.43L425.066 278.781H428.993L429.266 275.43H425.341Z" fill="#263238"/>
<path d="M437.119 275.43L436.844 278.781H440.77L441.045 275.43H437.119Z" fill="#263238"/>
<path d="M444.971 275.43L444.697 278.781H448.622L448.897 275.43H444.971Z" fill="#263238"/>
<path d="M456.748 275.43L456.474 278.781H460.4L460.675 275.43H456.748Z" fill="#263238"/>
<path d="M464.6 275.43L464.325 278.781H468.251L468.526 275.43H464.6Z" fill="#263238"/>
<path d="M476.378 275.43L476.103 278.781H480.029L480.304 275.43H476.378Z" fill="#263238"/>
<path d="M385.809 278.781L385.534 282.133H389.459L389.734 278.781H385.809Z" fill="#263238"/>
<path d="M393.66 278.781L393.386 282.133H397.312L397.587 278.781H393.66Z" fill="#263238"/>
<path d="M405.437 278.781L405.163 282.133H409.09L409.363 278.781H405.437Z" fill="#263238"/>
<path d="M409.363 278.781L409.09 282.133H413.015L413.29 278.781H409.363Z" fill="#263238"/>
<path d="M413.29 278.781L413.015 282.133H416.94L417.215 278.781H413.29Z" fill="#263238"/>
<path d="M436.844 278.781L436.569 282.133H440.496L440.77 278.781H436.844Z" fill="#263238"/>
<path d="M448.622 278.781L448.347 282.133H452.273L452.547 278.781H448.622Z" fill="#263238"/>
<path d="M452.548 278.781L452.273 282.133H456.2L456.474 278.781H452.548Z" fill="#263238"/>
<path d="M456.474 278.781L456.199 282.133H460.125L460.4 278.781H456.474Z" fill="#263238"/>
<path d="M460.4 278.781L460.125 282.133H464.05L464.325 278.781H460.4Z" fill="#263238"/>
<path d="M464.325 278.781L464.051 282.133H467.976L468.251 278.781H464.325Z" fill="#263238"/>
<path d="M468.251 278.781L467.976 282.133H471.903L472.178 278.781H468.251Z" fill="#263238"/>
<path d="M416.94 282.133L416.666 285.484H420.592L420.866 282.133H416.94Z" fill="#263238"/>
<path d="M424.793 282.133L424.518 285.484H428.444L428.718 282.133H424.793Z" fill="#263238"/>
<path d="M432.644 282.133L432.369 285.484H436.296L436.569 282.133H432.644Z" fill="#263238"/>
<path d="M448.347 282.133L448.072 285.484H451.999L452.273 282.133H448.347Z" fill="#263238"/>
<path d="M464.051 282.133L463.777 285.484H467.703L467.976 282.133H464.051Z" fill="#263238"/>
<path d="M467.976 282.133L467.703 285.484H471.628L471.903 282.133H467.976Z" fill="#263238"/>
<path d="M475.828 282.133L475.553 285.484H479.48L479.754 282.133H475.828Z" fill="#263238"/>
<path d="M479.754 282.133L479.48 285.484H483.406L483.681 282.133H479.754Z" fill="#263238"/>
<path d="M385.259 285.484L384.986 288.835H388.911L389.184 285.484H385.259Z" fill="#263238"/>
<path d="M389.184 285.484L388.911 288.835H392.836L393.111 285.484H389.184Z" fill="#263238"/>
<path d="M393.111 285.484L392.836 288.835H396.762L397.037 285.484H393.111Z" fill="#263238"/>
<path d="M397.037 285.484L396.762 288.835H400.689L400.962 285.484H397.037Z" fill="#263238"/>
<path d="M400.962 285.484L400.689 288.835H404.614L404.889 285.484H400.962Z" fill="#263238"/>
<path d="M404.889 285.484L404.614 288.835H408.54L408.815 285.484H404.889Z" fill="#263238"/>
<path d="M408.815 285.484L408.54 288.835H412.465L412.74 285.484H408.815Z" fill="#263238"/>
<path d="M416.666 285.484L416.392 288.835H420.318L420.592 285.484H416.666Z" fill="#263238"/>
<path d="M420.592 285.484L420.318 288.835H424.243L424.518 285.484H420.592Z" fill="#263238"/>
<path d="M424.518 285.484L424.243 288.835H428.169L428.443 285.484H424.518Z" fill="#263238"/>
<path d="M436.296 285.484L436.021 288.835H439.946L440.221 285.484H436.296Z" fill="#263238"/>
<path d="M440.221 285.484L439.947 288.835H443.872L444.147 285.484H440.221Z" fill="#263238"/>
<path d="M444.147 285.484L443.872 288.835H447.799L448.072 285.484H444.147Z" fill="#263238"/>
<path d="M448.072 285.484L447.799 288.835H451.724L451.999 285.484H448.072Z" fill="#263238"/>
<path d="M455.925 285.484L455.65 288.835H459.575L459.85 285.484H455.925Z" fill="#263238"/>
<path d="M463.777 285.484L463.502 288.835H467.428L467.703 285.484H463.777Z" fill="#263238"/>
<path d="M467.703 285.484L467.428 288.835H471.353L471.628 285.484H467.703Z" fill="#263238"/>
<path d="M475.553 285.484L475.279 288.835H479.206L479.48 285.484H475.553Z" fill="#263238"/>
<path d="M479.48 285.484L479.206 288.835H483.131L483.406 285.484H479.48Z" fill="#263238"/>
<path d="M384.986 288.835L384.711 292.187H388.636L388.911 288.835H384.986Z" fill="#263238"/>
<path d="M408.54 288.835L408.265 292.187H412.192L412.465 288.835H408.54Z" fill="#263238"/>
<path d="M416.392 288.835L416.117 292.187H420.043L420.318 288.835H416.392Z" fill="#263238"/>
<path d="M432.096 288.835L431.821 292.187H435.746L436.021 288.835H432.096Z" fill="#263238"/>
<path d="M436.021 288.835L435.746 292.187H439.672L439.946 288.835H436.021Z" fill="#263238"/>
<path d="M439.947 288.835L439.672 292.187H443.599L443.872 288.835H439.947Z" fill="#263238"/>
<path d="M447.799 288.835L447.524 292.187H451.449L451.724 288.835H447.799Z" fill="#263238"/>
<path d="M463.502 288.835L463.227 292.187H467.153L467.428 288.835H463.502Z" fill="#263238"/>
<path d="M467.428 288.835L467.153 292.187H471.08L471.353 288.835H467.428Z" fill="#263238"/>
<path d="M475.279 288.835L475.005 292.187H478.931L479.206 288.835H475.279Z" fill="#263238"/>
<path d="M384.711 292.187L384.436 295.538H388.361L388.636 292.187H384.711Z" fill="#263238"/>
<path d="M392.562 292.187L392.287 295.538H396.214L396.487 292.187H392.562Z" fill="#263238"/>
<path d="M396.487 292.187L396.214 295.538H400.139L400.414 292.187H396.487Z" fill="#263238"/>
<path d="M400.414 292.187L400.139 295.538H404.065L404.339 292.187H400.414Z" fill="#263238"/>
<path d="M408.265 292.187L407.99 295.538H411.917L412.192 292.187H408.265Z" fill="#263238"/>
<path d="M416.117 292.187L415.843 295.538H419.768L420.043 292.187H416.117Z" fill="#263238"/>
<path d="M427.895 292.187L427.62 295.538H431.546L431.821 292.187H427.895Z" fill="#263238"/>
<path d="M431.821 292.187L431.546 295.538H435.471L435.746 292.187H431.821Z" fill="#263238"/>
<path d="M435.746 292.187L435.471 295.538H439.398L439.672 292.187H435.746Z" fill="#263238"/>
<path d="M439.672 292.187L439.398 295.538H443.324L443.598 292.187H439.672Z" fill="#263238"/>
<path d="M447.524 292.187L447.249 295.538H451.175L451.45 292.187H447.524Z" fill="#263238"/>
<path d="M451.449 292.187L451.175 295.538H455.101L455.375 292.187H451.449Z" fill="#263238"/>
<path d="M455.375 292.187L455.102 295.538H459.027L459.302 292.187H455.375Z" fill="#263238"/>
<path d="M459.302 292.187L459.027 295.538H462.953L463.227 292.187H459.302Z" fill="#263238"/>
<path d="M463.227 292.187L462.953 295.538H466.878L467.153 292.187H463.227Z" fill="#263238"/>
<path d="M467.153 292.187L466.878 295.538H470.805L471.08 292.187H467.153Z" fill="#263238"/>
<path d="M475.005 292.187L474.73 295.538H478.656L478.931 292.187H475.005Z" fill="#263238"/>
<path d="M384.436 295.538L384.161 298.889H388.086L388.361 295.538H384.436Z" fill="#263238"/>
<path d="M392.287 295.538L392.013 298.889H395.939L396.214 295.538H392.287Z" fill="#263238"/>
<path d="M396.214 295.538L395.939 298.889H399.864L400.139 295.538H396.214Z" fill="#263238"/>
<path d="M400.139 295.538L399.864 298.889H403.791L404.065 295.538H400.139Z" fill="#263238"/>
<path d="M407.99 295.538L407.717 298.889H411.642L411.917 295.538H407.99Z" fill="#263238"/>
<path d="M419.768 295.538L419.495 298.889H423.42L423.695 295.538H419.768Z" fill="#263238"/>
<path d="M423.695 295.538L423.42 298.889H427.345L427.62 295.538H423.695Z" fill="#263238"/>
<path d="M431.546 295.538L431.271 298.889H435.198L435.471 295.538H431.546Z" fill="#263238"/>
<path d="M443.324 295.538L443.049 298.889H446.974L447.249 295.538H443.324Z" fill="#263238"/>
<path d="M447.249 295.538L446.974 298.889H450.901L451.175 295.538H447.249Z" fill="#263238"/>
<path d="M459.027 295.538L458.752 298.889H462.678L462.953 295.538H459.027Z" fill="#263238"/>
<path d="M462.953 295.538L462.678 298.889H466.605L466.878 295.538H462.953Z" fill="#263238"/>
<path d="M466.878 295.538L466.604 298.889H470.53L470.805 295.538H466.878Z" fill="#263238"/>
<path d="M470.805 295.538L470.53 298.889H474.456L474.73 295.538H470.805Z" fill="#263238"/>
<path d="M384.161 298.889L383.886 302.239H387.813L388.087 298.889H384.161Z" fill="#263238"/>
<path d="M392.013 298.889L391.739 302.239H395.664L395.939 298.889H392.013Z" fill="#263238"/>
<path d="M395.939 298.889L395.664 302.239H399.59L399.864 298.889H395.939Z" fill="#263238"/>
<path d="M399.864 298.889L399.589 302.239H403.516L403.791 298.889H399.864Z" fill="#263238"/>
<path d="M407.717 298.889L407.442 302.239H411.367L411.642 298.889H407.717Z" fill="#263238"/>
<path d="M415.568 298.889L415.293 302.239H419.22L419.495 298.889H415.568Z" fill="#263238"/>
<path d="M435.198 298.889L434.923 302.239H438.849L439.123 298.889H435.198Z" fill="#263238"/>
<path d="M443.049 298.889L442.774 302.239H446.701L446.974 298.889H443.049Z" fill="#263238"/>
<path d="M462.678 298.889L462.404 302.239H466.33L466.605 298.889H462.678Z" fill="#263238"/>
<path d="M478.381 298.889L478.108 302.239H482.033L482.308 298.889H478.381Z" fill="#263238"/>
<path d="M383.886 302.239L383.613 305.592H387.538L387.813 302.239H383.886Z" fill="#263238"/>
<path d="M407.442 302.239L407.167 305.592H411.094L411.367 302.239H407.442Z" fill="#263238"/>
<path d="M415.293 302.239L415.019 305.592H418.945L419.22 302.239H415.293Z" fill="#263238"/>
<path d="M419.22 302.239L418.945 305.592H422.87L423.145 302.239H419.22Z" fill="#263238"/>
<path d="M427.071 302.239L426.797 305.592H430.723L430.996 302.239H427.071Z" fill="#263238"/>
<path d="M434.923 302.239L434.648 305.592H438.574L438.849 302.239H434.923Z" fill="#263238"/>
<path d="M438.849 302.239L438.574 305.592H442.501L442.774 302.239H438.849Z" fill="#263238"/>
<path d="M442.774 302.239L442.5 305.592H446.426L446.701 302.239H442.774Z" fill="#263238"/>
<path d="M446.701 302.239L446.426 305.592H450.352L450.626 302.239H446.701Z" fill="#263238"/>
<path d="M454.552 302.239L454.277 305.592H458.204L458.477 302.239H454.552Z" fill="#263238"/>
<path d="M462.404 302.239L462.129 305.592H466.055L466.33 302.239H462.404Z" fill="#263238"/>
<path d="M466.33 302.239L466.055 305.592H469.98L470.255 302.239H466.33Z" fill="#263238"/>
<path d="M474.181 302.239L473.907 305.592H477.833L478.108 302.239H474.181Z" fill="#263238"/>
<path d="M383.613 305.592L383.338 308.942H387.263L387.538 305.592H383.613Z" fill="#263238"/>
<path d="M387.538 305.592L387.263 308.942H391.189L391.464 305.592H387.538Z" fill="#263238"/>
<path d="M391.464 305.592L391.189 308.942H395.116L395.389 305.592H391.464Z" fill="#263238"/>
<path d="M395.389 305.592L395.116 308.942H399.041L399.316 305.592H395.389Z" fill="#263238"/>
<path d="M399.316 305.592L399.041 308.942H402.967L403.242 305.592H399.316Z" fill="#263238"/>
<path d="M403.242 305.592L402.967 308.942H406.892L407.167 305.592H403.242Z" fill="#263238"/>
<path d="M407.167 305.592L406.892 308.942H410.819L411.094 305.592H407.167Z" fill="#263238"/>
<path d="M415.019 305.592L414.745 308.942H418.67L418.945 305.592H415.019Z" fill="#263238"/>
<path d="M418.945 305.592L418.67 308.942H422.595L422.87 305.592H418.945Z" fill="#263238"/>
<path d="M422.87 305.592L422.595 308.942H426.522L426.797 305.592H422.87Z" fill="#263238"/>
<path d="M426.797 305.592L426.522 308.942H430.448L430.723 305.592H426.797Z" fill="#263238"/>
<path d="M430.723 305.592L430.448 308.942H434.373L434.648 305.592H430.723Z" fill="#263238"/>
<path d="M434.648 305.592L434.373 308.942H438.3L438.574 305.592H434.648Z" fill="#263238"/>
<path d="M446.426 305.592L446.151 308.942H450.077L450.351 305.592H446.426Z" fill="#263238"/>
<path d="M450.352 305.592L450.077 308.942H454.004L454.277 305.592H450.352Z" fill="#263238"/>
<path d="M458.204 305.592L457.929 308.942H461.855L462.13 305.592H458.204Z" fill="#263238"/>
<path d="M473.907 305.592L473.632 308.942H477.558L477.833 305.592H473.907Z" fill="#263238"/>
<path d="M477.833 305.592L477.558 308.942H481.483L481.758 305.592H477.833Z" fill="#263238"/>
<path d="M279.172 512.193L290.568 509.844L284.684 487.228L273.287 489.577L279.172 512.193Z" fill="#FF887B"/>
<path d="M290.14 507.495L277.678 510.064C277.217 510.157 276.902 510.517 276.923 510.92L277.353 519.95C277.403 520.782 278.232 521.422 279.206 521.381C279.317 521.376 279.426 521.362 279.533 521.339C284 520.344 290.416 518.784 296.065 517.619C302.656 516.26 303.283 516.457 311.01 514.865C315.69 513.9 315.726 509.627 313.658 509.666C304.228 509.845 302.06 510.105 293.099 507.649C292.147 507.368 291.124 507.316 290.14 507.495Z" fill="#263238"/>
<path opacity="0.2" d="M284.687 487.239L287.72 498.898L276.325 501.247L273.292 489.588L284.687 487.239Z" fill="black"/>
<path d="M291.568 506.859C291.477 506.869 291.388 506.838 291.33 506.777C291.236 506.679 291.254 506.536 291.368 506.456C291.806 506.119 295.727 503.241 297.28 503.623C297.574 503.687 297.808 503.876 297.899 504.123C298.092 504.52 298.034 504.973 297.748 505.325C297.077 505.952 296.172 506.361 295.188 506.481C293.996 506.703 292.786 506.829 291.568 506.859ZM292.295 506.364C294.893 506.21 296.708 505.737 297.229 505.076C297.42 504.842 297.456 504.541 297.321 504.281C297.293 504.18 297.204 504.098 297.089 504.07C296.913 504.047 296.733 504.055 296.561 504.092C294.998 504.638 293.555 505.405 292.295 506.364Z" fill="#2563EB"/>
<path d="M291.401 506.88C291.315 506.843 291.254 506.774 291.233 506.693C291.217 506.586 290.745 503.947 291.825 502.665C292.141 502.283 292.632 502.033 293.176 501.979C293.929 501.886 294.295 502.155 294.364 502.4C294.904 503.447 292.896 506.042 291.681 506.848L291.571 506.87C291.517 506.884 291.459 506.888 291.401 506.88ZM292.283 502.953C291.719 503.96 291.535 505.092 291.755 506.191C292.919 505.2 294.23 503.204 293.913 502.592C293.882 502.537 293.786 502.348 293.309 502.446L293.146 502.48C292.798 502.538 292.489 502.708 292.283 502.953Z" fill="#2563EB"/>
<path d="M191.462 510.244L203.044 511.791L207.734 488.973L196.152 487.425L191.462 510.244Z" fill="#FF887B"/>
<path d="M203.141 510.635L190.475 508.942C190.009 508.878 189.554 509.107 189.395 509.487L185.749 517.972C185.421 518.757 185.901 519.618 186.82 519.898C186.924 519.929 187.032 519.953 187.142 519.968C191.715 520.506 198.342 521.157 204.085 521.925C210.784 522.82 211.275 523.205 219.128 524.255C223.884 524.89 225.832 520.954 223.903 520.315C215.109 517.405 212.989 516.937 205.809 511.742C205.053 511.173 204.13 510.79 203.141 510.635Z" fill="#263238"/>
<path opacity="0.2" d="M207.731 488.985L205.009 502.235L193.427 500.688L196.151 487.436L207.731 488.985Z" fill="black"/>
<path d="M204.747 510.513C204.66 510.492 204.589 510.434 204.563 510.36C204.521 510.24 204.601 510.113 204.741 510.076C205.298 509.908 210.211 508.528 211.472 509.387C211.717 509.542 211.848 509.794 211.819 510.053C211.82 510.482 211.565 510.883 211.141 511.113C210.24 511.474 209.221 511.556 208.258 511.347C207.06 511.162 205.885 510.883 204.747 510.513ZM205.639 510.292C208.108 510.999 209.997 511.153 210.775 510.712C211.057 510.559 211.224 510.291 211.217 510.006C211.237 509.904 211.19 509.8 211.095 509.736C210.943 509.657 210.774 509.606 210.598 509.585C208.91 509.58 207.233 509.818 205.639 510.292Z" fill="#2563EB"/>
<path d="M204.582 510.478C204.519 510.416 204.493 510.332 204.51 510.25C204.544 510.145 205.29 507.553 206.863 506.72C207.325 506.47 207.891 506.4 208.418 506.528C209.157 506.688 209.373 507.056 209.328 507.305C209.36 508.449 206.341 510.191 204.857 510.538L204.746 510.523C204.687 510.519 204.632 510.504 204.582 510.478ZM207.155 507.136C206.183 507.882 205.506 508.868 205.218 509.957C206.737 509.42 208.842 508.003 208.823 507.334C208.82 507.273 208.816 507.067 208.331 507.003L208.164 506.98C207.817 506.923 207.456 506.978 207.155 507.136Z" fill="#2563EB"/>
<path d="M248.545 365.581C257.679 366 266.106 366.507 275.248 366.241C276.159 357.133 274.771 344.237 271.026 335.673C263.473 332.23 254.627 334.495 246.526 336.862L248.545 365.581Z" fill="#2563EB"/>
<path opacity="0.2" d="M248.545 365.581C257.679 366 266.106 366.507 275.248 366.241C276.159 357.133 274.771 344.237 271.026 335.673C263.473 332.23 254.627 334.495 246.526 336.862L248.545 365.581Z" fill="black"/>
<path opacity="0.2" d="M246.527 336.986L249.596 338.119L253.878 363.158L275.412 364.269L275.248 366.365L248.545 365.705L246.527 336.986Z" fill="black"/>
<path opacity="0.2" d="M271.026 335.673L272.324 339.084L264.824 341.468L252.515 339.823L246.526 336.863C246.526 336.863 251.697 334.581 259.425 333.912C267.153 333.243 271.026 335.673 271.026 335.673Z" fill="white"/>
<path d="M262.065 294.347L278.79 414.73L291.197 490.646C291.495 492.698 290.052 494.545 287.943 494.812L274.146 497.808C272.146 498.062 270.216 496.814 269.681 494.909C265.271 479.225 253.511 448.609 251.29 418.542C251.29 418.542 227.827 341.85 223.091 318.133L221.644 296.687L262.065 294.347Z" fill="#2563EB"/>
<path opacity="0.2" d="M241.331 323.419C241.331 323.419 245.597 357.549 241.331 385.296C241.331 385.296 232.35 353.46 228.272 340.89L241.331 323.419Z" fill="black"/>
<path d="M244.704 288.493L230.565 424.26L212.672 496.824C212.226 498.747 210.274 499.934 208.243 499.513L193.068 496.82C191.106 496.414 189.734 494.649 189.908 492.743C191.344 477.09 190.496 451.521 199.454 423.877C199.454 423.877 200.458 330.278 204.285 288.732L244.704 288.493Z" fill="#2563EB"/>
<path d="M332.984 227.314L336.048 223.69L347.127 229.511C344.879 231.14 342.434 232.561 339.835 233.752C338.051 234.529 335.9 234.351 334.324 233.295L333.908 233.023C331.852 231.643 331.444 229.119 332.984 227.314Z" fill="#FF8B7B"/>
<path d="M345.012 218.34L350.807 226.893L347.14 229.515L336.061 223.694L345.012 218.34Z" fill="#FF8B7B"/>
<path d="M256.841 237.546C269.223 240.28 287.502 242.404 291.909 242.898C297.741 243.552 322.688 238.655 333.441 237.06C334.055 236.969 334.718 236.855 335.133 236.459C335.671 235.944 335.59 235.164 335.478 234.482C335.039 231.817 334.602 229.153 334.163 226.488C334.038 225.726 333.88 224.906 333.239 224.364C332.308 223.575 330.795 223.704 329.503 223.889C315.315 225.925 294.989 227.177 294.989 227.177C284.935 225.947 274.16 222.367 264.958 218.821C237.525 208.249 250.749 236.2 256.841 237.546Z" fill="#263238"/>
<path opacity="0.1" d="M256.841 237.546C269.223 240.28 287.502 242.404 291.909 242.898C297.741 243.552 322.688 238.655 333.441 237.06C334.055 236.969 334.718 236.855 335.133 236.459C335.671 235.944 335.59 235.164 335.478 234.482C335.039 231.817 334.602 229.153 334.163 226.488C334.038 225.726 333.88 224.906 333.239 224.364C332.308 223.575 330.795 223.704 329.503 223.889C315.315 225.925 294.989 227.177 294.989 227.177C284.935 225.947 274.16 222.367 264.958 218.821C237.525 208.249 250.749 236.2 256.841 237.546Z" fill="black"/>
<path d="M354.576 234.313L341.987 232.179L349.694 209.592L362.282 211.726L354.576 234.313Z" fill="#2563EB"/>
<path d="M364.873 210.856L356.251 236.132C356.035 236.738 355.305 237.119 354.567 236.994L353.83 236.869C354.567 236.994 355.285 236.612 355.501 236.004L364.123 210.729C364.361 210.028 363.849 209.31 363.016 209.167L363.753 209.292C364.588 209.434 365.111 210.157 364.873 210.856Z" fill="#2563EB"/>
<path opacity="0.3" d="M364.873 210.856L356.251 236.132C356.035 236.738 355.305 237.119 354.567 236.994L353.83 236.869C354.567 236.994 355.285 236.612 355.501 236.004L364.123 210.729C364.361 210.028 363.849 209.31 363.016 209.167L363.753 209.292C364.588 209.434 365.111 210.157 364.873 210.856Z" fill="black"/>
<path d="M363.016 209.167L350.452 207.037C349.713 206.912 348.985 207.293 348.781 207.902L340.159 233.178C339.921 233.878 340.433 234.598 341.266 234.739L353.83 236.869C354.567 236.994 355.285 236.612 355.501 236.004L364.123 210.729C364.361 210.03 363.849 209.31 363.016 209.167ZM354.576 234.313L341.988 232.179L349.694 209.592L362.282 211.726L354.576 234.313Z" fill="#2563EB"/>
<path d="M362.282 211.726L354.576 234.313L341.987 232.179L349.694 209.592L362.282 211.726Z" fill="#2563EB"/>
<path opacity="0.7" d="M362.282 211.726L354.576 234.313L341.987 232.179L349.694 209.592L362.282 211.726Z" fill="white"/>
<path d="M341.588 220.388L344.414 217.82C344.689 217.569 345.177 217.659 345.308 217.984L345.702 218.963C345.949 219.577 345.854 220.255 345.444 220.801L341.133 226.569L336.061 223.694L341.588 220.388Z" fill="#FF8B7B"/>
<path d="M264.185 251.501C264.401 284.362 266.705 296.693 260.979 296.687C250.35 296.675 211.521 297.884 209.255 297.609C192.493 295.573 202.777 262.992 202.543 257.889C202.398 254.738 202.092 251.603 201.607 248.513C201.319 246.7 200.886 244.778 200.167 243.011C198.943 239.998 196.943 237.401 193.524 236.432C190.462 235.556 187.095 236.325 183.873 236.14C180.651 235.972 176.959 234.035 177.355 231.299C177.553 229.993 178.633 228.948 179.678 227.995C184.377 223.721 189.671 219.48 191.526 213.839C192.319 211.471 192.481 208.874 194.047 206.799C200.51 198.315 215.905 206.584 223.611 208.996C228.546 210.549 233.011 212.854 237.908 214.423C243.04 216.067 252.061 216.452 258.632 216.682C264.553 216.881 264.185 251.501 264.185 251.501Z" fill="#263238"/>
<path d="M220.572 197.405C222.196 202.95 221.831 211.969 221.872 218.208C221.91 224.006 239.442 228.82 239.442 228.82C239.442 228.82 246.666 223.605 241.066 219.705C236.379 216.442 235.718 212.64 236.768 208.05L220.572 197.405Z" fill="#FF8B7B"/>
<path opacity="0.2" d="M227.19 201.783L236.78 208.062C236.471 209.335 236.286 210.626 236.226 211.925C232.734 211.652 227.775 208.614 227.22 205.539C226.937 204.3 226.927 203.026 227.19 201.783Z" fill="black"/>
<path d="M218.983 187.007C220.23 196.384 220.397 201.92 226.253 206.505C235.059 213.396 248.395 208.495 250.46 198.982C252.315 190.436 249.961 176.533 238.958 173.276C231.114 170.905 222.505 174.412 219.728 181.107C218.945 182.997 218.689 185.017 218.983 187.007Z" fill="#FF8B7B"/>
<path d="M251.033 196.198C251.609 199.85 252.332 206.323 253.609 209.975C246.096 209.959 238.952 210.309 231.439 210.293C230.402 209.613 221.212 202.755 221.88 202.165C224.414 199.931 227.538 197.406 224.575 194.884C223.679 194.121 224.157 192.734 224.025 191.659C226.74 195.149 237.126 197.672 241.954 196.923L251.033 196.198Z" fill="#263238"/>
<path d="M239.27 198.105C237.677 198.592 239.989 200.601 242.52 200.712H247.037C248.145 200.712 249.239 200.254 249.762 199.42C250.226 198.682 250.207 197.897 249.49 197.669C249.49 197.669 249.04 197.405 246.116 197.405C246.116 197.405 240.996 197.527 239.27 198.105Z" fill="#FF8B7B"/>
<path d="M247.587 198.941C245.066 199.604 242.326 199.178 240.242 197.799C240.142 197.696 240.16 197.543 240.281 197.459C240.375 197.394 240.505 197.386 240.609 197.439C242.569 198.705 245.122 199.096 247.476 198.489C247.628 198.456 247.783 198.533 247.822 198.663C247.853 198.788 247.761 198.91 247.615 198.936C247.606 198.94 247.597 198.941 247.587 198.941Z" fill="#263238"/>
<path d="M245.647 193.616C243.245 193.358 240.959 194.19 238.813 194.958C236.667 195.725 234.281 196.465 231.92 196.02C233.917 197.309 236.198 198.066 238.774 198.343C241.186 198.602 243.386 198.321 246.205 197.201C248.838 198.692 252.851 198.811 255.151 197.89C252.366 198.459 251.248 195.215 248.367 194.075C247.742 193.827 246.34 193.691 245.647 193.616Z" fill="#263238"/>
<path opacity="0.1" d="M245.647 193.616C243.245 193.358 240.959 194.19 238.813 194.958C236.667 195.725 234.281 196.465 231.92 196.02C233.917 197.309 236.198 198.066 238.774 198.343C241.186 198.602 243.386 198.321 246.205 197.201C248.838 198.692 252.851 198.811 255.151 197.89C252.366 198.459 251.248 195.215 248.367 194.075C247.742 193.827 246.34 193.691 245.647 193.616Z" fill="black"/>
<path d="M228.414 184.828C229.122 185.868 229.478 187.079 229.435 188.282C228.291 189.254 227.231 190.362 226.395 191.541C225.154 193.289 224.753 195.48 223.166 197.012C223.23 196.984 222.804 197.2 222.869 197.173C221.587 195.165 220.424 193.102 219.389 190.993C221.872 188.572 225.054 186.283 228.414 184.828Z" fill="#263238"/>
<path d="M214.888 196.164C216.108 198.3 218.266 199.936 220.895 200.717C224.385 201.728 226.329 199.106 225.513 196.178C224.799 193.574 222.108 189.902 218.525 190.147C214.942 190.391 213.43 193.549 214.888 196.164Z" fill="#FF8B7B"/>
<path d="M237.682 188.926C237.666 189.686 238.234 190.283 238.828 190.258C239.423 190.233 239.854 189.594 239.803 188.832C239.752 188.071 239.237 187.463 238.657 187.49C238.076 187.514 237.631 188.153 237.682 188.926Z" fill="#263238"/>
<path d="M247.047 188.47C247.031 189.243 247.613 189.84 248.194 189.813C248.775 189.787 249.22 189.149 249.169 188.376C249.118 187.603 248.616 187.019 248.022 187.044C247.427 187.07 247.009 187.709 247.047 188.47Z" fill="#263238"/>
<path d="M244.094 188.002C245.784 190.065 247.718 191.034 249.996 192.634C248.794 194.174 245.843 193.993 245.843 193.993L244.094 188.002Z" fill="#FF5652"/>
<path d="M234.361 186.259C234.559 186.288 234.756 186.214 234.864 186.071C235.588 185.102 236.81 184.487 238.154 184.416C238.445 184.421 238.685 184.224 238.69 183.975C238.696 183.727 238.465 183.522 238.174 183.517C236.476 183.578 234.917 184.341 233.997 185.563C233.834 185.767 233.894 186.047 234.133 186.187C234.198 186.232 234.278 186.258 234.361 186.259Z" fill="#263238"/>
<path d="M250.154 185.827C250.255 185.857 250.363 185.858 250.464 185.832C250.721 185.711 250.818 185.435 250.679 185.213C249.882 183.912 248.387 183.027 246.679 182.847C246.391 182.836 246.142 183.019 246.116 183.265C246.096 183.512 246.315 183.728 246.604 183.746H246.606C247.935 183.919 249.085 184.627 249.698 185.649C249.809 185.766 249.977 185.832 250.154 185.827Z" fill="#263238"/>
<path opacity="0.4" d="M210.491 228.868C210.491 228.868 211.075 245.744 207.161 253.557C205.602 256.679 204.094 258.256 202.844 259.017C202.265 255.9 201.518 252.82 200.6 249.803C200.057 248.035 199.354 246.173 198.392 244.492L198.053 240.591L210.491 228.868Z" fill="black"/>
<path opacity="0.2" d="M213.99 299.438C213.86 299.974 213.492 302.751 212.99 304.614C212.101 307.919 208.505 311.953 205.515 313.277C202.525 314.601 204.287 302.976 204.287 302.976L204.85 298.97L213.99 299.438Z" fill="black"/>
<path d="M201.946 299.438L213.198 303.796C212.423 307.405 210.009 310.607 206.481 312.704L205.515 313.278C205.515 313.278 194.6 304.386 196.064 301.718L201.946 299.438Z" fill="#FF8B7B"/>
<path d="M179.595 270.484C179.594 284.277 185.085 289.395 189.866 301.26C190.835 303.667 193.784 305.049 196.695 304.493C202.06 303.467 207.336 300.1 203.95 294.154C203.95 294.154 200.7 286.446 198.525 271.213C198.225 269.116 197.927 267.013 198.497 264.958C200.127 259.079 206.63 247.377 208.127 239.54C209.408 232.843 211.018 224.469 207.326 221.681C190.086 208.663 179.596 244.038 179.595 270.484Z" fill="#263238"/>
<path opacity="0.4" d="M199.54 215.367C199.544 215.385 199.548 215.401 199.553 215.419C200.067 217.353 202.525 218.451 204.614 217.583C208.155 216.11 217.987 218.929 221.872 218.208C221.872 218.208 221.883 213.703 221.881 212.461C221.878 211.119 208.728 206.91 204.845 206.626C198.258 206.146 198.342 210.897 199.54 215.367Z" fill="black"/>
<path d="M248.711 181.83C244.538 179.832 239.413 180.521 235.288 182.386C231.62 184.046 228.59 186.552 225.614 189.025C222.522 191.593 219.543 193.987 216.486 196.503C215.629 197.208 214.208 196.997 213.696 196.08C213.339 195.442 213.003 194.802 212.578 194.169C212.328 193.797 212.241 193.36 212.394 192.951C212.741 192.009 213.114 191.053 213.446 190.119C210.829 183.439 212.399 175.675 217.489 170.129C220.895 166.416 227.459 166.33 232.853 167.349C238.246 168.369 243.094 171.342 245.946 175.38C247.02 174.971 248.249 175.515 249.215 176.084C250.183 176.653 250.841 177.543 251.249 178.484C251.648 179.406 251.81 180.49 251.218 181.333C250.715 182.051 249.565 182.238 248.711 181.83Z" fill="#2563EB"/>
<path d="M240.831 173.861C241.585 174.478 242.173 175.565 242.519 176.406C240.41 176.47 238.316 176.783 236.397 177.534C236.009 176.607 235.433 175.738 234.704 174.977C236.822 174.571 238.711 174.267 240.831 173.861Z" fill="white"/>
<path d="M214.93 365.581C205.796 366 197.369 366.507 188.227 366.241C187.316 357.133 188.703 344.237 192.449 335.673C200.002 332.23 208.848 334.495 216.949 336.862L214.93 365.581Z" fill="#2563EB"/>
<path opacity="0.2" d="M216.948 336.986L213.879 338.119L209.597 363.158L188.063 364.269L188.227 366.365L214.93 365.705L216.948 336.986Z" fill="black"/>
<path opacity="0.2" d="M192.449 335.673L191.151 339.084L198.651 341.468L210.96 339.823L216.949 336.863C216.949 336.863 211.778 334.581 204.05 333.912C196.322 333.243 192.449 335.673 192.449 335.673Z" fill="white"/>
<path d="M214.347 595.149L210.558 611.438H203.722L196.632 583.919H202.472L206.3 600.774C206.47 601.49 206.652 602.317 206.847 603.254C207.056 604.192 207.225 605.103 207.355 605.989C207.485 605.377 207.602 604.784 207.707 604.211C207.824 603.626 207.941 603.053 208.058 602.493C208.175 601.92 208.299 601.353 208.429 600.794L212.316 583.919H218.761L222.609 600.188C222.739 600.735 222.895 601.529 223.078 602.571C223.273 603.613 223.455 604.752 223.625 605.989C223.794 605.234 223.944 604.57 224.074 603.997C224.217 603.411 224.354 602.831 224.484 602.258C224.627 601.672 224.777 601.008 224.933 600.266L228.468 583.919H234.308L227.199 611.438H220.363L216.632 595.52C216.411 594.583 216.203 593.626 216.007 592.649C215.812 591.672 215.636 590.67 215.48 589.641C215.376 590.201 215.246 590.859 215.089 591.614C214.933 592.369 214.783 593.072 214.64 593.723C214.51 594.374 214.412 594.85 214.347 595.149ZM240.949 601.926C240.949 603.984 241.326 605.54 242.082 606.594C242.85 607.636 243.937 608.157 245.343 608.157C246.307 608.157 247.095 607.948 247.707 607.532C248.332 607.102 248.768 606.471 249.015 605.637L254.191 606.086C252.694 609.915 249.653 611.829 245.07 611.829C241.893 611.829 239.451 610.891 237.746 609.016C236.04 607.128 235.187 604.381 235.187 600.774C235.187 597.284 236.053 594.602 237.785 592.727C239.516 590.852 241.971 589.915 245.148 589.915C248.182 589.915 250.5 590.924 252.101 592.942C253.703 594.947 254.503 597.89 254.503 601.77V601.926H240.949ZM249.191 598.489C249.087 596.783 248.677 595.507 247.96 594.661C247.244 593.801 246.281 593.372 245.07 593.372C243.781 593.372 242.785 593.821 242.082 594.719C241.391 595.618 241.027 596.874 240.988 598.489H249.191ZM264.171 582.454V611.438H258.683V582.454H264.171ZM278.625 611.829C275.421 611.829 272.947 610.878 271.203 608.977C269.458 607.063 268.585 604.4 268.585 600.989C268.585 597.499 269.464 594.784 271.222 592.844C272.98 590.891 275.473 589.915 278.703 589.915C281.19 589.915 283.247 590.54 284.875 591.79C286.502 593.04 287.524 594.765 287.941 596.965L282.414 597.239C282.257 596.158 281.867 595.299 281.242 594.661C280.617 594.01 279.731 593.684 278.585 593.684C277.166 593.684 276.105 594.277 275.402 595.461C274.699 596.633 274.347 598.404 274.347 600.774C274.347 603.209 274.705 605.038 275.421 606.262C276.151 607.473 277.231 608.079 278.664 608.079C279.705 608.079 280.578 607.753 281.281 607.102C281.984 606.438 282.42 605.455 282.589 604.153L288.097 604.407C287.902 605.891 287.375 607.193 286.515 608.313C285.669 609.42 284.569 610.286 283.214 610.911C281.86 611.523 280.33 611.829 278.625 611.829ZM312.16 600.852C312.16 604.277 311.209 606.965 309.308 608.919C307.407 610.859 304.777 611.829 301.417 611.829C298.123 611.829 295.539 610.852 293.664 608.899C291.789 606.946 290.851 604.264 290.851 600.852C290.851 597.454 291.789 594.784 293.664 592.844C295.539 590.891 298.162 589.915 301.535 589.915C304.985 589.915 307.615 590.859 309.425 592.747C311.248 594.622 312.16 597.323 312.16 600.852ZM306.417 600.852C306.417 598.339 306.007 596.516 305.187 595.383C304.367 594.251 303.175 593.684 301.613 593.684C299.946 593.684 298.696 594.283 297.863 595.481C297.029 596.666 296.613 598.456 296.613 600.852C296.613 603.209 297.016 605.006 297.824 606.243C298.644 607.467 299.822 608.079 301.359 608.079C303.052 608.079 304.315 607.48 305.148 606.282C305.994 605.071 306.417 603.261 306.417 600.852ZM322.023 600.11V611.438H316.535V595.032C316.535 593.899 316.515 592.975 316.476 592.258C316.45 591.529 316.417 590.878 316.378 590.305H321.613C321.639 590.461 321.671 590.833 321.71 591.419C321.75 591.991 321.782 592.584 321.808 593.196C321.847 593.795 321.867 594.231 321.867 594.504H321.945C322.622 592.89 323.462 591.718 324.464 590.989C325.48 590.26 326.691 589.895 328.097 589.895C329.712 589.895 331.007 590.279 331.984 591.047C332.973 591.816 333.638 592.968 333.976 594.504H334.093C334.809 592.864 335.669 591.685 336.671 590.969C337.674 590.253 338.95 589.895 340.5 589.895C342.557 589.895 344.126 590.598 345.207 592.004C346.287 593.398 346.828 595.403 346.828 598.02V611.438H341.378V599.583C341.378 597.721 341.111 596.327 340.578 595.403C340.044 594.478 339.243 594.016 338.175 594.016C337.108 594.016 336.216 594.537 335.5 595.579C334.783 596.607 334.425 598.033 334.425 599.856V611.438H328.976V599.583C328.976 597.721 328.709 596.327 328.175 595.403C327.641 594.478 326.841 594.016 325.773 594.016C324.666 594.016 323.761 594.583 323.058 595.715C322.368 596.848 322.023 598.313 322.023 600.11ZM356.652 601.926C356.652 603.984 357.029 605.54 357.785 606.594C358.553 607.636 359.64 608.157 361.046 608.157C362.01 608.157 362.798 607.948 363.41 607.532C364.035 607.102 364.471 606.471 364.718 605.637L369.894 606.086C368.397 609.915 365.356 611.829 360.773 611.829C357.596 611.829 355.154 610.891 353.449 609.016C351.743 607.128 350.89 604.381 350.89 600.774C350.89 597.284 351.756 594.602 353.488 592.727C355.22 590.852 357.674 589.915 360.851 589.915C363.885 589.915 366.203 590.924 367.804 592.942C369.406 594.947 370.207 597.89 370.207 601.77V601.926H356.652ZM364.894 598.489C364.79 596.783 364.38 595.507 363.664 594.661C362.947 593.801 361.984 593.372 360.773 593.372C359.484 593.372 358.488 593.821 357.785 594.719C357.095 595.618 356.73 596.874 356.691 598.489H364.894ZM409.796 603.586C409.796 606.086 408.859 608.02 406.984 609.387C405.109 610.754 402.505 611.438 399.171 611.438H385.402V583.919H398C401.359 583.919 403.898 584.504 405.617 585.676C407.348 586.835 408.214 588.554 408.214 590.833C408.214 592.395 407.778 593.717 406.906 594.797C406.046 595.865 404.731 596.588 402.96 596.965C405.187 597.226 406.88 597.929 408.039 599.075C409.21 600.208 409.796 601.711 409.796 603.586ZM402.414 591.614C402.414 590.377 402.016 589.498 401.222 588.977C400.441 588.456 399.276 588.196 397.726 588.196H391.164V595.012H397.765C399.393 595.012 400.571 594.732 401.3 594.172C402.042 593.6 402.414 592.747 402.414 591.614ZM404.015 603.137C404.015 600.559 402.166 599.27 398.468 599.27H391.164V607.161H398.683C400.532 607.161 401.88 606.829 402.726 606.165C403.585 605.488 404.015 604.478 404.015 603.137ZM419.308 611.829C417.264 611.829 415.669 611.275 414.523 610.169C413.377 609.049 412.804 607.48 412.804 605.461C412.804 603.274 413.514 601.614 414.933 600.481C416.365 599.348 418.436 598.756 421.144 598.704L425.695 598.626V597.551C425.695 596.171 425.454 595.149 424.972 594.485C424.49 593.808 423.703 593.469 422.609 593.469C421.593 593.469 420.845 593.704 420.363 594.172C419.894 594.628 419.601 595.39 419.484 596.458L413.761 596.184C414.477 592.004 417.505 589.915 422.843 589.915C425.513 589.915 427.57 590.572 429.015 591.887C430.46 593.202 431.183 595.071 431.183 597.493V605.188C431.183 606.373 431.313 607.193 431.574 607.649C431.847 608.092 432.296 608.313 432.921 608.313C433.338 608.313 433.742 608.274 434.132 608.196V611.165C433.455 611.334 432.876 611.458 432.394 611.536C431.912 611.627 431.32 611.672 430.617 611.672C429.236 611.672 428.214 611.334 427.55 610.657C426.899 609.98 426.509 608.984 426.378 607.669H426.261C425.493 609.049 424.529 610.09 423.371 610.794C422.212 611.484 420.858 611.829 419.308 611.829ZM425.695 601.653L422.882 601.692C421.593 601.757 420.688 601.894 420.167 602.102C419.634 602.336 419.223 602.688 418.937 603.157C418.664 603.626 418.527 604.251 418.527 605.032C418.527 606.034 418.755 606.783 419.21 607.278C419.679 607.76 420.298 608.001 421.066 608.001C421.925 608.001 422.713 607.766 423.429 607.297C424.132 606.829 424.686 606.184 425.089 605.364C425.493 604.53 425.695 603.652 425.695 602.727V601.653ZM445.5 611.829C442.296 611.829 439.822 610.878 438.078 608.977C436.333 607.063 435.46 604.4 435.46 600.989C435.46 597.499 436.339 594.784 438.097 592.844C439.855 590.891 442.348 589.915 445.578 589.915C448.065 589.915 450.122 590.54 451.75 591.79C453.377 593.04 454.399 594.765 454.816 596.965L449.289 597.239C449.132 596.158 448.742 595.299 448.117 594.661C447.492 594.01 446.606 593.684 445.46 593.684C444.041 593.684 442.98 594.277 442.277 595.461C441.574 596.633 441.222 598.404 441.222 600.774C441.222 603.209 441.58 605.038 442.296 606.262C443.026 607.473 444.106 608.079 445.539 608.079C446.58 608.079 447.453 607.753 448.156 607.102C448.859 606.438 449.295 605.455 449.464 604.153L454.972 604.407C454.777 605.891 454.25 607.193 453.39 608.313C452.544 609.42 451.444 610.286 450.089 610.911C448.735 611.523 447.205 611.829 445.5 611.829ZM464.445 603.508V611.438H458.957V582.454H464.445V599.055L471.984 590.305H477.882L470.46 598.547L478.449 611.438H472.453L466.808 601.868L464.445 603.508ZM487.941 583.919L487.316 603.118H482.824L482.199 583.919H487.941ZM487.824 606.165V611.438H482.199V606.165H487.824Z" fill="url(#paint0_linear_531_3348)"/>
</g>
<defs>
<linearGradient id="paint0_linear_531_3348" x1="344.171" y1="573.438" x2="344.171" y2="605.022" gradientUnits="userSpaceOnUse">
<stop stop-color="#0C2A69"/>
<stop offset="1" stop-color="#2563EB" stop-opacity="0.9"/>
</linearGradient>
<clipPath id="clip0_531_3348">
<rect width="731" height="624" fill="white" transform="translate(0.5)"/>
</clipPath>
</defs>
</svg>
