<svg width="33" height="33" viewBox="0 0 33 33" fill="none" xmlns="http://www.w3.org/2000/svg">
<g id="ph:paw-print">
<path id="Vector" d="M26.8965 10.1224C26.2043 10.1224 25.5276 10.3276 24.952 10.7122C24.3764 11.0968 23.9278 11.6434 23.6629 12.283C23.398 12.9225 23.3287 13.6263 23.4637 14.3052C23.5988 14.9841 23.9321 15.6078 24.4216 16.0972C24.9111 16.5867 25.5347 16.9201 26.2137 17.0551C26.8926 17.1902 27.5963 17.1209 28.2359 16.856C28.8754 16.591 29.422 16.1424 29.8066 15.5669C30.1912 14.9913 30.3965 14.3146 30.3965 13.6224C30.3965 12.6941 30.0277 11.8039 29.3714 11.1475C28.715 10.4911 27.8247 10.1224 26.8965 10.1224ZM26.8965 15.1224C26.5998 15.1224 26.3098 15.0344 26.0631 14.8696C25.8165 14.7048 25.6242 14.4705 25.5107 14.1964C25.3971 13.9223 25.3674 13.6207 25.4253 13.3297C25.4832 13.0388 25.626 12.7715 25.8358 12.5617C26.0456 12.3519 26.3129 12.2091 26.6039 12.1512C26.8948 12.0933 27.1964 12.123 27.4705 12.2366C27.7446 12.3501 27.9789 12.5423 28.1437 12.789C28.3085 13.0357 28.3965 13.3257 28.3965 13.6224C28.3965 14.0202 28.2385 14.4017 27.9571 14.683C27.6758 14.9643 27.2943 15.1224 26.8965 15.1224ZM9.39649 13.6224C9.39649 12.9301 9.19121 12.2535 8.80663 11.6779C8.42204 11.1023 7.87542 10.6537 7.23588 10.3888C6.59634 10.1239 5.8926 10.0546 5.21367 10.1896C4.53474 10.3247 3.9111 10.658 3.42161 11.1475C2.93213 11.637 2.59879 12.2606 2.46374 12.9396C2.32869 13.6185 2.398 14.3222 2.66291 14.9618C2.92781 15.6013 3.37642 16.1479 3.95199 16.5325C4.52756 16.9171 5.20425 17.1224 5.89649 17.1224C6.82474 17.1224 7.71498 16.7536 8.37136 16.0972C9.02774 15.4409 9.39649 14.5506 9.39649 13.6224ZM5.89649 15.1224C5.59981 15.1224 5.3098 15.0344 5.06313 14.8696C4.81646 14.7048 4.6242 14.4705 4.51067 14.1964C4.39714 13.9223 4.36743 13.6207 4.42531 13.3297C4.48319 13.0388 4.62605 12.7715 4.83583 12.5617C5.0456 12.3519 5.31288 12.2091 5.60385 12.1512C5.89482 12.0933 6.19642 12.123 6.47051 12.2366C6.7446 12.3501 6.97887 12.5423 7.14369 12.789C7.30851 13.0357 7.39649 13.3257 7.39649 13.6224C7.39649 14.0202 7.23845 14.4017 6.95715 14.683C6.67584 14.9643 6.29431 15.1224 5.89649 15.1224ZM11.8965 11.1224C12.5887 11.1224 13.2654 10.9171 13.841 10.5325C14.4166 10.1479 14.8652 9.60131 15.1301 8.96177C15.395 8.32223 15.4643 7.61849 15.3292 6.93956C15.1942 6.26063 14.8608 5.63699 14.3714 5.1475C13.8819 4.65802 13.2582 4.32468 12.5793 4.18963C11.9004 4.05458 11.1966 4.12389 10.5571 4.3888C9.91755 4.65371 9.37093 5.10231 8.98634 5.67788C8.60176 6.25345 8.39649 6.93014 8.39649 7.62238C8.39649 8.55063 8.76523 9.44087 9.42161 10.0973C10.078 10.7536 10.9682 11.1224 11.8965 11.1224ZM11.8965 6.12238C12.1932 6.12238 12.4832 6.21035 12.7298 6.37517C12.9765 6.53999 13.1688 6.77426 13.2823 7.04835C13.3958 7.32244 13.4255 7.62404 13.3677 7.91501C13.3098 8.20598 13.1669 8.47326 12.9571 8.68304C12.7474 8.89282 12.4801 9.03568 12.1891 9.09355C11.8982 9.15143 11.5965 9.12173 11.3225 9.0082C11.0484 8.89466 10.8141 8.70241 10.6493 8.45573C10.4845 8.20906 10.3965 7.91905 10.3965 7.62238C10.3965 7.22455 10.5545 6.84302 10.8358 6.56172C11.1171 6.28041 11.4987 6.12238 11.8965 6.12238ZM20.8965 11.1224C21.5887 11.1224 22.2654 10.9171 22.841 10.5325C23.4166 10.1479 23.8652 9.60131 24.1301 8.96177C24.395 8.32223 24.4643 7.61849 24.3292 6.93956C24.1942 6.26063 23.8608 5.63699 23.3714 5.1475C22.8819 4.65802 22.2582 4.32468 21.5793 4.18963C20.9004 4.05458 20.1966 4.12389 19.5571 4.3888C18.9176 4.65371 18.3709 5.10231 17.9863 5.67788C17.6018 6.25345 17.3965 6.93014 17.3965 7.62238C17.3965 8.55063 17.7652 9.44087 18.4216 10.0973C19.078 10.7536 19.9682 11.1224 20.8965 11.1224ZM20.8965 6.12238C21.1932 6.12238 21.4832 6.21035 21.7298 6.37517C21.9765 6.53999 22.1688 6.77426 22.2823 7.04835C22.3958 7.32244 22.4255 7.62404 22.3677 7.91501C22.3098 8.20598 22.1669 8.47326 21.9571 8.68304C21.7474 8.89282 21.4801 9.03568 21.1891 9.09355C20.8981 9.15143 20.5966 9.12173 20.3225 9.0082C20.0484 8.89466 19.8141 8.70241 19.6493 8.45573C19.4845 8.20906 19.3965 7.91905 19.3965 7.62238C19.3965 7.22455 19.5545 6.84302 19.8358 6.56172C20.1171 6.28041 20.4987 6.12238 20.8965 6.12238ZM23.7865 18.7299C23.2785 18.4497 22.8308 18.072 22.469 17.6186C22.1072 17.1652 21.8383 16.6448 21.6777 16.0874C21.3452 14.9439 20.6506 13.9393 19.6983 13.2244C18.7459 12.5096 17.5873 12.1231 16.3965 12.1231C15.2057 12.1231 14.047 12.5096 13.0947 13.2244C12.1423 13.9393 11.4477 14.9439 11.1152 16.0874C10.7941 17.2091 10.0411 18.1576 9.02149 18.7249C8.04339 19.2541 7.26965 20.0944 6.82265 21.1127C6.37564 22.131 6.2809 23.2693 6.55339 24.3475C6.82588 25.4257 7.45006 26.3823 8.3272 27.066C9.20434 27.7496 10.2844 28.1214 11.3965 28.1224C12.0629 28.1243 12.7229 27.9912 13.3365 27.7311C15.2928 26.9243 17.4889 26.9243 19.4452 27.7311C20.6302 28.2465 21.9686 28.2831 23.18 27.8333C24.3913 27.3834 25.3815 26.4821 25.9429 25.3183C26.5042 24.1545 26.5933 22.8185 26.1913 21.5904C25.7892 20.3624 24.9274 19.3377 23.7865 18.7311V18.7299ZM21.3965 26.1224C20.9905 26.1227 20.5886 26.0407 20.2152 25.8811C17.766 24.8695 15.0157 24.8695 12.5665 25.8811C11.8547 26.1876 11.052 26.2067 10.3264 25.9346C9.60089 25.6624 9.00879 25.1201 8.67418 24.4211C8.33956 23.7221 8.28839 22.9208 8.53139 22.185C8.77438 21.4491 9.29269 20.8359 9.97774 20.4736C10.7143 20.0669 11.3634 19.5189 11.8881 18.8611C12.4127 18.2032 12.8025 17.4485 13.0352 16.6399C13.2466 15.9119 13.6885 15.2721 14.2947 14.8169C14.9009 14.3617 15.6384 14.1156 16.3965 14.1156C17.1545 14.1156 17.8921 14.3617 18.4983 14.8169C19.1044 15.2721 19.5464 15.9119 19.7577 16.6399C19.9912 17.45 20.3822 18.206 20.9084 18.8647C21.4346 19.5235 22.0855 20.0719 22.824 20.4786C23.4138 20.795 23.8809 21.2994 24.1509 21.9118C24.421 22.5241 24.4786 23.2092 24.3145 23.858C24.1504 24.5069 23.774 25.0822 23.2453 25.4925C22.7165 25.9028 22.0658 26.1245 21.3965 26.1224Z" fill="white"/>
</g>
</svg>
