<svg width="32" height="32" viewBox="0 0 32 32" fill="none" xmlns="http://www.w3.org/2000/svg">
<g id="ic:outline-account-circle">
<path id="Vector" d="M15.9998 2.66667C8.63984 2.66667 2.6665 8.64001 2.6665 16C2.6665 23.36 8.63984 29.3333 15.9998 29.3333C23.3598 29.3333 29.3332 23.36 29.3332 16C29.3332 8.64001 23.3598 2.66667 15.9998 2.66667ZM9.79984 24.6667C11.5465 23.4133 13.6798 22.6667 15.9998 22.6667C18.3198 22.6667 20.4532 23.4133 22.1998 24.6667C20.4532 25.92 18.3198 26.6667 15.9998 26.6667C13.6798 26.6667 11.5465 25.92 9.79984 24.6667ZM24.1865 22.8267C21.851 20.9943 18.9683 19.9984 15.9998 19.9984C13.0313 19.9984 10.1486 20.9943 7.81317 22.8267C6.20907 20.9138 5.3309 18.4965 5.33317 16C5.33317 10.1067 10.1065 5.33334 15.9998 5.33334C21.8932 5.33334 26.6665 10.1067 26.6665 16C26.6665 18.6 25.7332 20.9733 24.1865 22.8267Z" fill="#2563EB"/>
<path id="Vector_2" d="M16.0002 8C13.4268 8 11.3335 10.0933 11.3335 12.6667C11.3335 15.24 13.4268 17.3333 16.0002 17.3333C18.5735 17.3333 20.6668 15.24 20.6668 12.6667C20.6668 10.0933 18.5735 8 16.0002 8ZM16.0002 14.6667C14.8935 14.6667 14.0002 13.7733 14.0002 12.6667C14.0002 11.56 14.8935 10.6667 16.0002 10.6667C17.1068 10.6667 18.0002 11.56 18.0002 12.6667C18.0002 13.7733 17.1068 14.6667 16.0002 14.6667Z" fill="#2563EB"/>
</g>
</svg>
