<svg width="24" height="24" viewBox="0 0 24 24" fill="none" xmlns="http://www.w3.org/2000/svg">
<path id="Vector" d="M18.6667 0H2.66667C1.95942 0 1.28115 0.280951 0.781048 0.781048C0.280951 1.28115 0 1.95942 0 2.66667V21.3333C0 22.0406 0.280951 22.7189 0.781048 23.219C1.28115 23.719 1.95942 24 2.66667 24H21.3333C22.8 24 24 22.8 24 21.3333V5.33333L18.6667 0ZM21.3333 21.3333H2.66667V2.66667H17.56L21.3333 6.44V21.3333ZM12 12C9.78667 12 8 13.7867 8 16C8 18.2133 9.78667 20 12 20C14.2133 20 16 18.2133 16 16C16 13.7867 14.2133 12 12 12ZM4 4H16V9.33333H4V4Z" fill="#23186F"/>
</svg>
