<svg width="32" height="32" viewBox="0 0 32 32" fill="none" xmlns="http://www.w3.org/2000/svg">
<path d="M25.9065 17.3067C25.9598 16.88 25.9998 16.4533 25.9998 16C25.9998 15.5467 25.9598 15.12 25.9065 14.6933L28.7198 12.4933C28.9731 12.2933 29.0398 11.9333 28.8798 11.64L26.2131 7.02667C26.1345 6.88911 26.0095 6.78403 25.8605 6.73028C25.7114 6.67653 25.5481 6.67761 25.3998 6.73334L22.0798 8.06667C21.3865 7.53334 20.6398 7.09334 19.8265 6.76001L19.3198 3.22667C19.2977 3.06979 19.2192 2.92635 19.0989 2.82325C18.9786 2.72015 18.8249 2.66448 18.6665 2.66667H13.3331C12.9998 2.66667 12.7198 2.90667 12.6798 3.22667L12.1731 6.76001C11.3598 7.09334 10.6131 7.54667 9.91979 8.06667L6.59979 6.73334C6.52248 6.70711 6.44142 6.6936 6.35979 6.69334C6.13312 6.69334 5.90645 6.81334 5.78645 7.02667L3.11979 11.64C2.94645 11.9333 3.02645 12.2933 3.27979 12.4933L6.09312 14.6933C6.03979 15.12 5.99979 15.56 5.99979 16C5.99979 16.44 6.03979 16.88 6.09312 17.3067L3.27979 19.5067C3.02645 19.7067 2.95979 20.0667 3.11979 20.36L5.78645 24.9733C5.86505 25.1109 5.99008 25.216 6.13912 25.2697C6.28816 25.3235 6.45147 25.3224 6.59979 25.2667L9.91979 23.9333C10.6131 24.4667 11.3598 24.9067 12.1731 25.24L12.6798 28.7733C12.7198 29.0933 12.9998 29.3333 13.3331 29.3333H18.6665C18.9998 29.3333 19.2798 29.0933 19.3198 28.7733L19.8265 25.24C20.6398 24.9067 21.3865 24.4533 22.0798 23.9333L25.3998 25.2667C25.4798 25.2933 25.5598 25.3067 25.6398 25.3067C25.8665 25.3067 26.0931 25.1867 26.2131 24.9733L28.8798 20.36C29.0398 20.0667 28.9731 19.7067 28.7198 19.5067L25.9065 17.3067ZM23.2665 15.0267C23.3198 15.44 23.3331 15.72 23.3331 16C23.3331 16.28 23.3065 16.5733 23.2665 16.9733L23.0798 18.48L24.2665 19.4133L25.7065 20.5333L24.7731 22.1467L23.0798 21.4667L21.6931 20.9067L20.4931 21.8133C19.9198 22.24 19.3731 22.56 18.8265 22.7867L17.4131 23.36L17.1998 24.8667L16.9331 26.6667H15.0665L14.8131 24.8667L14.5998 23.36L13.1865 22.7867C12.6131 22.5467 12.0798 22.24 11.5465 21.84L10.3331 20.9067L8.91979 21.48L7.22645 22.16L6.29312 20.5467L7.73312 19.4267L8.91979 18.4933L8.73312 16.9867C8.69312 16.5733 8.66645 16.2667 8.66645 16C8.66645 15.7333 8.69312 15.4267 8.73312 15.0267L8.91979 13.52L7.73312 12.5867L6.29312 11.4667L7.22645 9.85334L8.91979 10.5333L10.3065 11.0933L11.5065 10.1867C12.0798 9.76001 12.6265 9.44001 13.1731 9.21334L14.5865 8.64001L14.7998 7.13334L15.0665 5.33334H16.9198L17.1731 7.13334L17.3865 8.64001L18.7998 9.21334C19.3731 9.45334 19.9065 9.76001 20.4398 10.16L21.6531 11.0933L23.0665 10.52L24.7598 9.84001L25.6931 11.4533L24.2665 12.5867L23.0798 13.52L23.2665 15.0267ZM15.9998 10.6667C13.0531 10.6667 10.6665 13.0533 10.6665 16C10.6665 18.9467 13.0531 21.3333 15.9998 21.3333C18.9465 21.3333 21.3331 18.9467 21.3331 16C21.3331 13.0533 18.9465 10.6667 15.9998 10.6667ZM15.9998 18.6667C14.5331 18.6667 13.3331 17.4667 13.3331 16C13.3331 14.5333 14.5331 13.3333 15.9998 13.3333C17.4665 13.3333 18.6665 14.5333 18.6665 16C18.6665 17.4667 17.4665 18.6667 15.9998 18.6667Z" fill="#CEFDD7"/>
</svg>
