<svg width="32" height="32" viewBox="0 0 32 32" fill="none" xmlns="http://www.w3.org/2000/svg">
<path d="M22.6665 24H9.33317V8.00001H22.6665V9.33334H25.3332V4.00001C25.3332 2.53334 24.1332 1.33334 22.6665 1.33334H9.33317C7.8665 1.33334 6.6665 2.53334 6.6665 4.00001V28C6.6665 29.4667 7.8665 30.6667 9.33317 30.6667H22.6665C24.1332 30.6667 25.3332 29.4667 25.3332 28V22.6667H22.6665V24ZM27.1732 12.8267L27.9998 14.6667L28.8265 12.8267L30.6665 12L28.8265 11.1733L27.9998 9.33334L27.1732 11.1733L25.3332 12L27.1732 12.8267Z" fill="#1E0582"/>
<path d="M21.3333 10.6667L19.6667 14.3333L16 16L19.6667 17.6667L21.3333 21.3333L23 17.6667L26.6667 16L23 14.3333L21.3333 10.6667ZM28 17.3333L27.1733 19.1733L25.3333 20L27.1733 20.8267L28 22.6667L28.8267 20.8267L30.6667 20L28.8267 19.1733L28 17.3333Z" fill="#1E0582"/>
</svg>
