<svg width="28" height="25" viewBox="0 0 28 25" fill="none" xmlns="http://www.w3.org/2000/svg">
<path d="M24.6665 5.66671H19.3332V3.00004L16.6665 0.333374H11.3332L8.6665 3.00004V5.66671H3.33317C1.8665 5.66671 0.666504 6.86671 0.666504 8.33337V15C0.666504 16 1.19984 16.84 1.99984 17.3067V21.6667C1.99984 23.1467 3.1865 24.3334 4.6665 24.3334H23.3332C24.8132 24.3334 25.9998 23.1467 25.9998 21.6667V17.2934C26.7865 16.8267 27.3332 15.9734 27.3332 15V8.33337C27.3332 6.86671 26.1332 5.66671 24.6665 5.66671ZM11.3332 3.00004H16.6665V5.66671H11.3332V3.00004ZM3.33317 8.33337H24.6665V15H17.9998V11H9.99984V15H3.33317V8.33337ZM15.3332 16.3334H12.6665V13.6667H15.3332V16.3334ZM23.3332 21.6667H4.6665V17.6667H9.99984V19H17.9998V17.6667H23.3332V21.6667Z" fill="#1E0582"/>
</svg>
