<svg width="24" height="27" viewBox="0 0 24 27" fill="none" xmlns="http://www.w3.org/2000/svg">
<path d="M18.04 13.7466L16.6267 12.3333L10.12 18.84L7.29333 16.0133L5.88 17.4266L10.12 21.6666L18.04 13.7466ZM21.3333 2.99998H20V0.333313H17.3333V2.99998H6.66667V0.333313H4V2.99998H2.66667C1.18667 2.99998 0.0133333 4.19998 0.0133333 5.66665L0 24.3333C0 25.0406 0.280951 25.7188 0.781048 26.2189C1.28115 26.719 1.95942 27 2.66667 27H21.3333C22.8 27 24 25.8 24 24.3333V5.66665C24 4.19998 22.8 2.99998 21.3333 2.99998ZM21.3333 24.3333H2.66667V9.66665H21.3333V24.3333Z" fill="#1E0582"/>
</svg>
