<svg width="28" height="22" viewBox="0 0 28 22" fill="none" xmlns="http://www.w3.org/2000/svg">
<path d="M20.6665 21.6667V9.66668H17.9998V0.333344H27.3332L24.6665 7.00001H27.3332L20.6665 21.6667ZM17.9998 12.3333V21.6667H3.33317C1.8665 21.6667 0.666504 20.4667 0.666504 19V15C0.666504 13.5333 1.8665 12.3333 3.33317 12.3333H17.9998ZM6.33317 16H4.33317V18H6.33317V16ZM15.3332 0.333344V9.66668H3.33317C1.8665 9.66668 0.666504 8.46668 0.666504 7.00001V3.00001C0.666504 1.53334 1.8665 0.333344 3.33317 0.333344H15.3332ZM6.33317 4.00001H4.33317V6.00001H6.33317V4.00001Z" fill="#1E0582"/>
</svg>
