<svg width="28" height="14" viewBox="0 0 28 14" fill="none" xmlns="http://www.w3.org/2000/svg">
<path d="M3.19984 7C3.19984 4.72 5.05317 2.86667 7.33317 2.86667H12.6665V0.333336H7.33317C3.65317 0.333336 0.666504 3.32 0.666504 7C0.666504 10.68 3.65317 13.6667 7.33317 13.6667H12.6665V11.1333H7.33317C5.05317 11.1333 3.19984 9.28 3.19984 7ZM8.6665 8.33334H19.3332V5.66667H8.6665V8.33334ZM20.6665 0.333336H15.3332V2.86667H20.6665C22.9465 2.86667 24.7998 4.72 24.7998 7C24.7998 9.28 22.9465 11.1333 20.6665 11.1333H15.3332V13.6667H20.6665C24.3465 13.6667 27.3332 10.68 27.3332 7C27.3332 3.32 24.3465 0.333336 20.6665 0.333336Z" fill="#1E0582"/>
</svg>
