<svg width="17" height="25" viewBox="0 0 17 25" fill="none" xmlns="http://www.w3.org/2000/svg">
<path d="M8.99984 0.333344L9.01318 14.4C8.22651 13.9467 7.31984 13.6667 6.34651 13.6667C5.63609 13.6508 4.92966 13.777 4.26869 14.0379C3.60771 14.2988 3.00552 14.6891 2.49747 15.1859C1.98942 15.6827 1.58574 16.276 1.31014 16.931C1.03454 17.586 0.892578 18.2894 0.892578 19C0.892578 19.7106 1.03454 20.414 1.31014 21.069C1.58574 21.724 1.98942 22.3173 2.49747 22.8141C3.00552 23.3109 3.60771 23.7013 4.26869 23.9621C4.92966 24.223 5.63609 24.3492 6.34651 24.3333C9.30651 24.3333 11.6665 21.9467 11.6665 19V5.66668H16.9998V0.333344H8.99984ZM6.34651 21.6667C4.87984 21.6667 3.67984 20.4667 3.67984 19C3.67984 17.5333 4.87984 16.3333 6.34651 16.3333C7.81318 16.3333 9.01318 17.5333 9.01318 19C9.01318 20.4667 7.81318 21.6667 6.34651 21.6667Z" fill="#1E0582"/>
</svg>
