<svg width="28" height="27" viewBox="0 0 28 27" fill="none" xmlns="http://www.w3.org/2000/svg">
<path d="M24.6665 -3.05176e-05H8.6665C7.19984 -3.05176e-05 5.99984 1.19997 5.99984 2.66664V18.6666C5.99984 20.1333 7.19984 21.3333 8.6665 21.3333H24.6665C26.1332 21.3333 27.3332 20.1333 27.3332 18.6666V2.66664C27.3332 1.19997 26.1332 -3.05176e-05 24.6665 -3.05176e-05ZM24.6665 18.6666H8.6665V2.66664H24.6665V18.6666ZM3.33317 5.3333H0.666504V24C0.666504 25.4666 1.8665 26.6666 3.33317 26.6666H21.9998V24H3.33317V5.3333ZM19.3332 13.3333V9.3333C19.3332 8.59997 18.7332 7.99997 17.9998 7.99997H15.3332V14.6666H17.9998C18.7332 14.6666 19.3332 14.0666 19.3332 13.3333ZM16.6665 9.3333H17.9998V13.3333H16.6665V9.3333ZM21.9998 12H23.3332V10.6666H21.9998V9.3333H23.3332V7.99997H20.6665V14.6666H21.9998V12ZM11.3332 12H12.6665C13.3998 12 13.9998 11.4 13.9998 10.6666V9.3333C13.9998 8.59997 13.3998 7.99997 12.6665 7.99997H9.99984V14.6666H11.3332V12ZM11.3332 9.3333H12.6665V10.6666H11.3332V9.3333Z" fill="#1E0582"/>
</svg>
