<svg width="24" height="28" viewBox="0 0 24 28" fill="none" xmlns="http://www.w3.org/2000/svg">
<path d="M21.3333 0H2.66667C1.95942 0 1.28115 0.280951 0.781048 0.781048C0.280951 1.28115 0 1.95942 0 2.66667V21.3333C0 22.0406 0.280951 22.7189 0.781048 23.219C1.28115 23.719 1.95942 24 2.66667 24H8L12 28L16 24H21.3333C22.8 24 24 22.8 24 21.3333V2.66667C24 1.2 22.8 0 21.3333 0ZM21.3333 21.3333H14.8933L14.1067 22.12L12 24.2267L9.88 22.1067L9.10667 21.3333H2.66667V2.66667H21.3333V21.3333ZM12 12C14.2 12 16 10.2 16 8C16 5.8 14.2 4 12 4C9.8 4 8 5.8 8 8C8 10.2 9.8 12 12 12ZM12 6.66667C12.7333 6.66667 13.3333 7.26667 13.3333 8C13.3333 8.73333 12.7333 9.33333 12 9.33333C11.2667 9.33333 10.6667 8.73333 10.6667 8C10.6667 7.26667 11.2667 6.66667 12 6.66667ZM20 18.1067C20 14.7733 14.7067 13.3333 12 13.3333C9.29333 13.3333 4 14.7733 4 18.1067V20H20V18.1067ZM7.30667 17.3333C8.29333 16.6533 10.28 16 12 16C13.72 16 15.7067 16.6533 16.6933 17.3333H7.30667Z" fill="#1E0582"/>
</svg>
