<svg width="160" height="38" viewBox="0 0 160 38" fill="none" xmlns="http://www.w3.org/2000/svg">
<g clip-path="url(#clip0_587_1110)">
<g clip-path="url(#clip1_587_1110)">
<g clip-path="url(#clip2_587_1110)">
<g clip-path="url(#clip3_587_1110)">
<g clip-path="url(#clip4_587_1110)">
<g clip-path="url(#clip5_587_1110)">
<g clip-path="url(#clip6_587_1110)">
<g clip-path="url(#clip7_587_1110)">
<path d="M49.4559 26.3402C48.4758 26.3402 47.5598 26.1551 46.7079 25.7848C45.8536 25.4169 45.1095 24.9027 44.4754 24.242C43.8389 23.5837 43.3416 22.813 42.9835 21.9296C42.6277 21.0463 42.4498 20.0904 42.4498 19.0619C42.4498 18.0454 42.6277 17.098 42.9835 16.2195C43.3416 15.3434 43.8389 14.5751 44.4754 13.9144C45.1095 13.2561 45.85 12.7394 46.697 12.3643C47.5441 11.9892 48.4637 11.8017 49.4559 11.8017C50.3876 11.8017 51.1899 11.9227 51.8627 12.1647C52.533 12.4067 53.207 12.806 53.8846 13.3626C53.9814 13.4352 54.0577 13.5102 54.1133 13.5877C54.1666 13.6675 54.2029 13.7462 54.2222 13.8236C54.2392 13.9035 54.2476 13.9979 54.2476 14.1068C54.2476 14.3367 54.1654 14.5267 54.0008 14.6767C53.8386 14.8292 53.6426 14.9139 53.4127 14.9308C53.1828 14.9502 52.959 14.8751 52.7411 14.7057C52.2934 14.3185 51.8312 14.0221 51.3544 13.8164C50.8753 13.6107 50.2424 13.5078 49.4559 13.5078C48.742 13.5078 48.0704 13.653 47.4412 13.9434C46.812 14.2338 46.259 14.6331 45.7823 15.1414C45.3031 15.6496 44.9304 16.2389 44.6642 16.9092C44.398 17.582 44.2649 18.2995 44.2649 19.0619C44.2649 19.8363 44.398 20.5587 44.6642 21.229C44.9304 21.9018 45.3031 22.4923 45.7823 23.0005C46.259 23.5087 46.812 23.9044 47.4412 24.1875C48.0704 24.4731 48.742 24.6159 49.4559 24.6159C50.073 24.6159 50.6575 24.5094 51.2092 24.2964C51.7586 24.0859 52.2874 23.7931 52.7956 23.418C53.0134 23.2607 53.2288 23.1905 53.4418 23.2074C53.6523 23.2268 53.8302 23.3115 53.9754 23.4615C54.1206 23.614 54.1932 23.8233 54.1932 24.0895C54.1932 24.2105 54.169 24.3279 54.1206 24.4417C54.0722 24.5578 53.9996 24.6643 53.9028 24.7611C53.2494 25.2814 52.5512 25.6747 51.8082 25.9409C51.0628 26.2071 50.2787 26.3402 49.4559 26.3402ZM60.8 26.2313C59.8198 26.2313 58.9547 26.0159 58.2044 25.5851C57.4542 25.1568 56.8637 24.5639 56.433 23.8064C56.0046 23.0513 55.7904 22.1837 55.7904 21.2036C55.7904 20.2114 56.0046 19.3365 56.433 18.5791C56.8637 17.824 57.4542 17.2311 58.2044 16.8003C58.9547 16.372 59.8198 16.1578 60.8 16.1578C61.768 16.1578 62.6271 16.372 63.3773 16.8003C64.1275 17.2311 64.7168 17.824 65.1452 18.5791C65.5759 19.3365 65.7913 20.2114 65.7913 21.2036C65.7913 22.1837 65.5796 23.0513 65.1561 23.8064C64.7326 24.5639 64.1457 25.1568 63.3955 25.5851C62.6453 26.0159 61.7801 26.2313 60.8 26.2313ZM60.8 24.5977C61.4292 24.5977 61.9858 24.4525 62.4698 24.1621C62.9538 23.8717 63.3313 23.4724 63.6024 22.9642C63.8759 22.456 64.0126 21.8691 64.0126 21.2036C64.0126 20.5381 63.8759 19.9476 63.6024 19.4321C63.3313 18.9191 62.9538 18.5173 62.4698 18.2269C61.9858 17.9365 61.4292 17.7913 60.8 17.7913C60.1707 17.7913 59.6141 17.9365 59.1301 18.2269C58.6461 18.5173 58.2649 18.9191 57.9866 19.4321C57.7083 19.9476 57.5692 20.5381 57.5692 21.2036C57.5692 21.8691 57.7083 22.456 57.9866 22.9642C58.2649 23.4724 58.6461 23.8717 59.1301 24.1621C59.6141 24.4525 60.1707 24.5977 60.8 24.5977ZM73.0515 26.2313C72.1053 26.2313 71.2546 26.0099 70.4996 25.567C69.7421 25.1265 69.1431 24.5251 68.7027 23.7628C68.2598 23.0005 68.0384 22.1414 68.0384 21.1855C68.0384 20.2295 68.2416 19.3728 68.6482 18.6154C69.0548 17.8603 69.6078 17.2613 70.3072 16.8185C71.009 16.378 71.8028 16.1578 72.6885 16.1578C73.4 16.1578 74.0583 16.3054 74.6633 16.6007C75.2683 16.8983 75.7765 17.3013 76.1879 17.8095V12.9088C76.1879 12.6305 76.2763 12.4067 76.4529 12.2373C76.6272 12.0679 76.8474 11.9832 77.1136 11.9832C77.3919 11.9832 77.617 12.0679 77.7888 12.2373C77.9582 12.4067 78.0429 12.6305 78.0429 12.9088V21.1855C78.0429 22.1414 77.8215 23.0005 77.3786 23.7628C76.9357 24.5251 76.3404 25.1265 75.5926 25.567C74.8399 26.0099 73.9929 26.2313 73.0515 26.2313ZM73.0515 24.5977C73.6686 24.5977 74.2192 24.4489 74.7032 24.1512C75.1872 23.856 75.5672 23.4482 75.8431 22.9279C76.1214 22.4076 76.2605 21.8268 76.2605 21.1855C76.2605 20.532 76.1214 19.9512 75.8431 19.443C75.5672 18.9348 75.1872 18.5319 74.7032 18.2342C74.2192 17.9389 73.6686 17.7913 73.0515 17.7913C72.4465 17.7913 71.8984 17.9389 71.4071 18.2342C70.9158 18.5319 70.5286 18.9348 70.2455 19.443C69.9599 19.9512 69.8171 20.532 69.8171 21.1855C69.8171 21.8268 69.9599 22.4076 70.2455 22.9279C70.5286 23.4482 70.9158 23.856 71.4071 24.1512C71.8984 24.4489 72.4465 24.5977 73.0515 24.5977ZM85.971 26.2313C84.9667 26.2313 84.0749 26.0159 83.2956 25.5851C82.514 25.1568 81.9029 24.5639 81.4624 23.8064C81.0196 23.0513 80.7981 22.1837 80.7981 21.2036C80.7981 20.2114 81.0075 19.3365 81.4261 18.5791C81.8424 17.824 82.4196 17.2311 83.1577 16.8003C83.8958 16.372 84.7428 16.1578 85.6988 16.1578C86.6426 16.1578 87.4533 16.3659 88.1309 16.7822C88.8085 17.2008 89.3264 17.7756 89.6846 18.5064C90.0404 19.2397 90.2182 20.0843 90.2182 21.0403C90.2182 21.2702 90.1396 21.4601 89.9823 21.6102C89.825 21.7626 89.6253 21.8389 89.3833 21.8389H82.0687V20.3868H89.3289L88.5847 20.8951C88.5726 20.29 88.4516 19.7479 88.2217 19.2688C87.9918 18.792 87.6651 18.4145 87.2416 18.1362C86.818 17.8579 86.3038 17.7187 85.6988 17.7187C85.0091 17.7187 84.4198 17.87 83.9309 18.1725C83.4396 18.475 83.067 18.89 82.8128 19.4176C82.5587 19.9428 82.4317 20.5381 82.4317 21.2036C82.4317 21.8691 82.5829 22.462 82.8854 22.9824C83.188 23.5027 83.6054 23.9141 84.1378 24.2166C84.6702 24.5191 85.2813 24.6703 85.971 24.6703C86.3461 24.6703 86.7309 24.6014 87.1254 24.4634C87.5174 24.3231 87.8345 24.1621 88.0765 23.9806C88.258 23.8475 88.4552 23.7773 88.6682 23.7701C88.8787 23.7652 89.0627 23.8294 89.22 23.9625C89.4257 24.144 89.5346 24.3436 89.5467 24.5614C89.5588 24.7793 89.462 24.9668 89.2563 25.1241C88.8449 25.4508 88.3342 25.717 87.7244 25.9227C87.1121 26.1284 86.5276 26.2313 85.971 26.2313ZM101.09 26.1587C100.873 26.1587 100.679 26.0921 100.51 25.959C100.34 25.8259 100.219 25.6444 100.147 25.4145L96.4983 13.29C96.3773 12.8907 96.3858 12.5725 96.5237 12.3353C96.6641 12.1005 96.8916 11.9832 97.2062 11.9832C97.4119 11.9832 97.5994 12.04 97.7688 12.1538C97.9382 12.2699 98.0592 12.449 98.1318 12.691L101.308 23.7628H100.909L103.849 12.7999C103.898 12.6184 104.007 12.4672 104.176 12.3462C104.345 12.2252 104.539 12.1647 104.757 12.1647C104.95 12.1647 105.134 12.2155 105.309 12.3171C105.485 12.4212 105.598 12.5761 105.646 12.7818L108.605 23.7628H108.242L111.436 12.6003C111.557 12.1889 111.866 11.9832 112.362 11.9832C112.701 11.9832 112.918 12.1126 113.015 12.3716C113.112 12.633 113.112 12.9391 113.015 13.29L109.367 25.3964C109.282 25.6263 109.158 25.8102 108.993 25.9481C108.831 26.0885 108.641 26.1587 108.423 26.1587C108.193 26.1587 107.996 26.0861 107.831 25.9409C107.669 25.7957 107.552 25.6202 107.479 25.4145L104.557 14.1249H104.993L102.034 25.3964C101.949 25.6263 101.825 25.8102 101.66 25.9481C101.498 26.0885 101.308 26.1587 101.09 26.1587ZM116.028 26.1587C115.762 26.1587 115.541 26.0704 115.364 25.8937C115.19 25.7194 115.103 25.4992 115.103 25.233V17.1561C115.103 16.8777 115.19 16.6539 115.364 16.4845C115.541 16.3151 115.762 16.2304 116.028 16.2304C116.307 16.2304 116.53 16.3151 116.7 16.4845C116.869 16.6539 116.954 16.8777 116.954 17.1561V25.233C116.954 25.4992 116.869 25.7194 116.7 25.8937C116.53 26.0704 116.307 26.1587 116.028 26.1587ZM116.028 14.615C115.701 14.615 115.42 14.4976 115.182 14.2629C114.948 14.0257 114.83 13.7438 114.83 13.4171C114.83 13.0903 114.948 12.8084 115.182 12.5712C115.42 12.3365 115.701 12.2191 116.028 12.2191C116.355 12.2191 116.636 12.3365 116.87 12.5712C117.108 12.8084 117.226 13.0903 117.226 13.4171C117.226 13.7438 117.108 14.0257 116.87 14.2629C116.636 14.4976 116.355 14.615 116.028 14.615ZM127.496 17.6643L121.343 25.8138L120.108 24.7248L126.28 16.5752L127.496 17.6643ZM126.987 26.1587H120.798C120.229 26.1587 119.945 25.8743 119.945 25.3056C119.945 24.7369 120.229 24.4525 120.798 24.4525H126.987C127.556 24.4525 127.841 24.7369 127.841 25.3056C127.841 25.8743 127.556 26.1587 126.987 26.1587ZM126.806 17.9365H120.617C120.048 17.9365 119.764 17.6522 119.764 17.0835C119.764 16.5147 120.048 16.2304 120.617 16.2304H126.806C127.375 16.2304 127.659 16.5147 127.659 17.0835C127.659 17.6522 127.375 17.9365 126.806 17.9365ZM133.975 26.2313C133.092 26.2313 132.299 26.0099 131.598 25.567C130.896 25.1265 130.343 24.5276 129.939 23.7701C129.532 23.015 129.329 22.1595 129.329 21.2036C129.329 20.2477 129.55 19.3886 129.993 18.6262C130.434 17.8639 131.033 17.2613 131.79 16.8185C132.545 16.378 133.395 16.1578 134.338 16.1578C135.282 16.1578 136.129 16.378 136.879 16.8185C137.63 17.2613 138.226 17.8639 138.669 18.6262C139.11 19.3886 139.33 20.2477 139.33 21.2036H138.622C138.622 22.1595 138.42 23.015 138.016 23.7701C137.609 24.5276 137.055 25.1265 136.353 25.567C135.651 26.0099 134.859 26.2313 133.975 26.2313ZM134.338 24.5977C134.956 24.5977 135.506 24.4489 135.99 24.1512C136.474 23.856 136.855 23.4506 137.134 22.9352C137.412 22.4221 137.551 21.8449 137.551 21.2036C137.551 20.5502 137.412 19.9657 137.134 19.4503C136.855 18.9372 136.474 18.5319 135.99 18.2342C135.506 17.9389 134.956 17.7913 134.338 17.7913C133.733 17.7913 133.186 17.9389 132.698 18.2342C132.206 18.5319 131.819 18.9372 131.536 19.4503C131.25 19.9657 131.108 20.5502 131.108 21.2036C131.108 21.8449 131.25 22.4221 131.536 22.9352C131.819 23.4506 132.206 23.856 132.698 24.1512C133.186 24.4489 133.733 24.5977 134.338 24.5977ZM138.404 26.1768C138.138 26.1768 137.918 26.0885 137.743 25.9118C137.567 25.7376 137.478 25.5174 137.478 25.2512V22.4741L137.823 20.5502L139.33 21.2036V25.2512C139.33 25.5174 139.243 25.7376 139.068 25.9118C138.892 26.0885 138.67 26.1768 138.404 26.1768ZM143.904 19.9512H142.978C142.978 19.2252 143.156 18.5742 143.512 17.9982C143.87 17.4247 144.351 16.9685 144.956 16.6297C145.561 16.2909 146.227 16.1215 146.953 16.1215C147.679 16.1215 148.22 16.2389 148.576 16.4736C148.934 16.7108 149.071 16.9927 148.986 17.3194C148.95 17.4888 148.879 17.6183 148.775 17.7078C148.674 17.7998 148.556 17.8579 148.423 17.8821C148.29 17.9063 148.145 17.9002 147.988 17.8639C147.213 17.7066 146.517 17.6945 145.9 17.8276C145.283 17.9607 144.795 18.2088 144.437 18.5718C144.082 18.9348 143.904 19.3946 143.904 19.9512ZM142.996 26.1587C142.706 26.1587 142.482 26.0825 142.325 25.93C142.167 25.7799 142.089 25.5537 142.089 25.2512V17.1379C142.089 16.8475 142.167 16.6236 142.325 16.4663C142.482 16.309 142.706 16.2304 142.996 16.2304C143.299 16.2304 143.525 16.3054 143.675 16.4554C143.827 16.6079 143.904 16.8354 143.904 17.1379V25.2512C143.904 25.5416 143.827 25.7654 143.675 25.9227C143.525 26.08 143.299 26.1587 142.996 26.1587ZM154.685 26.2313C153.741 26.2313 152.891 26.0099 152.133 25.567C151.378 25.1265 150.779 24.5251 150.336 23.7628C149.896 23.0005 149.676 22.1414 149.676 21.1855C149.676 20.2295 149.878 19.3728 150.282 18.6154C150.688 17.8603 151.243 17.2613 151.944 16.8185C152.646 16.378 153.439 16.1578 154.322 16.1578C155.036 16.1578 155.695 16.3054 156.3 16.6007C156.905 16.8983 157.414 17.3013 157.825 17.8095V12.9088C157.825 12.6305 157.912 12.4067 158.086 12.2373C158.263 12.0679 158.485 11.9832 158.751 11.9832C159.029 11.9832 159.253 12.0679 159.422 12.2373C159.592 12.4067 159.676 12.6305 159.676 12.9088V21.1855C159.676 22.1414 159.455 23.0005 159.012 23.7628C158.572 24.5251 157.976 25.1265 157.226 25.567C156.476 26.0099 155.629 26.2313 154.685 26.2313ZM154.685 24.5977C155.302 24.5977 155.853 24.4489 156.337 24.1512C156.821 23.856 157.202 23.4482 157.48 22.9279C157.759 22.4076 157.898 21.8268 157.898 21.1855C157.898 20.532 157.759 19.9512 157.48 19.443C157.202 18.9348 156.821 18.5319 156.337 18.2342C155.853 17.9389 155.302 17.7913 154.685 17.7913C154.08 17.7913 153.532 17.9389 153.041 18.2342C152.552 18.5319 152.165 18.9348 151.879 19.443C151.596 19.9512 151.454 20.532 151.454 21.1855C151.454 21.8268 151.596 22.4076 151.879 22.9279C152.165 23.4482 152.552 23.856 153.041 24.1512C153.532 24.4489 154.08 24.5977 154.685 24.5977Z" fill="#2563EB"/>
</g>
</g>
</g>
</g>
<g clip-path="url(#clip8_587_1110)">
<g clip-path="url(#clip9_587_1110)">
<path d="M27.2527 9.32561C26.9007 8.97351 26.4314 8.77972 25.9317 8.77972C25.4316 8.77972 24.9628 8.97352 24.6111 9.32514L22.9599 10.9763C22.2319 11.7048 22.2319 12.8895 22.9599 13.618L24.6111 15.2687C24.9628 15.6203 25.4321 15.8141 25.9317 15.8141C26.4314 15.8141 26.9007 15.6203 27.2523 15.2687L28.903 13.618C29.631 12.89 29.631 11.7048 28.903 10.9763L27.2527 9.32561Z" fill="#2563EB"/>
<path d="M21.4736 15.1034C21.122 14.7517 20.6527 14.5579 20.1531 14.5579C19.6534 14.5579 19.1841 14.7517 18.8325 15.1034L0.67127 33.2646C0.319645 33.6162 0.125854 34.0855 0.125854 34.5851C0.125854 35.0853 0.320112 35.5541 0.671737 35.9057L2.32293 37.5569C2.67455 37.9085 3.14385 38.1019 3.6435 38.1019C4.14316 38.1019 4.61245 37.9085 4.96408 37.5564L23.1253 19.3957C23.8533 18.6672 23.8533 17.4825 23.1253 16.7545L21.4736 15.1034ZM20.648 18.5706L4.96361 34.2545C4.82679 34.3913 4.64748 34.4595 4.46816 34.4595C4.28885 34.4595 4.10953 34.3913 3.97271 34.2545C3.69907 33.9809 3.69907 33.5377 3.97271 33.2641L19.6571 17.5801C19.9308 17.3065 20.3739 17.3065 20.6476 17.5801C20.9217 17.8538 20.9217 18.2974 20.648 18.5706Z" fill="#2563EB"/>
<path d="M19.6576 7.01366C19.7944 7.15048 19.9737 7.21912 20.153 7.21912C20.3323 7.21912 20.5116 7.15095 20.6485 7.01413C20.9221 6.74095 20.9221 6.29687 20.6485 6.02369L16.5205 1.89572C16.2469 1.62208 15.8037 1.62208 15.5301 1.89572C15.2564 2.1689 15.2564 2.61298 15.5301 2.88616L19.6576 7.01366Z" fill="#2563EB"/>
<path d="M31.71 7.21911C31.8893 7.21911 32.0686 7.15094 32.2054 7.01412L36.3329 2.88661C36.6066 2.61344 36.6066 2.16935 36.3329 1.89618C36.0593 1.62254 35.6161 1.62254 35.3425 1.89618L31.215 6.02368C30.9414 6.29686 30.9414 6.74094 31.215 7.01412C31.3514 7.15047 31.5307 7.21911 31.71 7.21911Z" fill="#2563EB"/>
<path d="M32.2049 17.5801C31.9313 17.3065 31.4881 17.3065 31.2145 17.5801C30.9409 17.8533 30.9409 18.2974 31.2145 18.5706L35.342 22.6981C35.4788 22.8349 35.6581 22.9031 35.8375 22.9031C36.0168 22.9031 36.1961 22.8349 36.3329 22.6981C36.6066 22.4244 36.6066 21.9813 36.3329 21.7076L32.2049 17.5801Z" fill="#2563EB"/>
<path d="M25.9318 4.94313C26.3184 4.94313 26.6322 4.62979 26.6322 4.24268V0.740441C26.6322 0.353327 26.3184 0.0399933 25.9318 0.0399933C25.5451 0.0399933 25.2313 0.353327 25.2313 0.740441V4.24268C25.2313 4.62933 25.5447 4.94313 25.9318 4.94313Z" fill="#2563EB"/>
<path d="M38.3137 12.422H34.811C34.4244 12.422 34.1106 12.7354 34.1106 13.1225C34.1106 13.5096 34.4244 13.8229 34.811 13.8229H38.3137C38.7004 13.8229 39.0142 13.5096 39.0142 13.1225C39.0142 12.7354 38.7004 12.422 38.3137 12.422Z" fill="#2563EB"/>
<path d="M25.9318 21.3018C25.5451 21.3018 25.2313 21.6156 25.2313 22.0023V25.5045C25.2313 25.8912 25.5451 26.205 25.9318 26.205C26.3184 26.205 26.6322 25.8912 26.6322 25.5045V22.0023C26.6322 21.6156 26.3184 21.3018 25.9318 21.3018Z" fill="#2563EB"/>
<path d="M13.5487 13.8229H17.0514C17.4385 13.8229 17.7519 13.5096 17.7519 13.1225C17.7519 12.7354 17.4385 12.422 17.0514 12.422H13.5487C13.1616 12.422 12.8483 12.7354 12.8483 13.1225C12.8483 13.5096 13.1616 13.8229 13.5487 13.8229Z" fill="#2563EB"/>
</g>
</g>
</g>
</g>
</g>
</g>
<defs>
<clipPath id="clip0_587_1110">
<rect width="160" height="37.92" fill="white" transform="translate(0 0.0399933)"/>
</clipPath>
<clipPath id="clip1_587_1110">
<rect width="160" height="37.92" fill="white" transform="translate(-0.0969238 0.110916)"/>
</clipPath>
<clipPath id="clip2_587_1110">
<rect width="159.554" height="38.0619" fill="white" transform="translate(0.125854 0.0399933)"/>
</clipPath>
<clipPath id="clip3_587_1110">
<rect width="159.554" height="38.0619" fill="white" transform="translate(0.125854 0.0399933)"/>
</clipPath>
<clipPath id="clip4_587_1110">
<rect width="117.234" height="14.5385" fill="white" transform="translate(42.4464 11.8017)"/>
</clipPath>
<clipPath id="clip5_587_1110">
<rect width="117.234" height="14.5385" fill="white" transform="translate(42.4464 11.8017)"/>
</clipPath>
<clipPath id="clip6_587_1110">
<rect width="117.234" height="14.5385" fill="white" transform="translate(42.4464 11.8017)"/>
</clipPath>
<clipPath id="clip7_587_1110">
<rect width="117.234" height="14.5385" fill="white" transform="translate(42.4464 11.8017)"/>
</clipPath>
<clipPath id="clip8_587_1110">
<rect width="38.8884" height="38.0619" fill="white" transform="translate(0.125854 0.0399933)"/>
</clipPath>
<clipPath id="clip9_587_1110">
<rect width="38.8884" height="38.0619" fill="white" transform="translate(0.125854 0.0399933)"/>
</clipPath>
</defs>
</svg>
