<svg width="80" height="81" viewBox="0 0 80 81" fill="none" xmlns="http://www.w3.org/2000/svg">
<rect x="31.7672" y="38.7984" width="13.6946" height="44.9256" rx="5" transform="rotate(45 31.7672 38.7984)" fill="url(#paint0_linear_217_44)"/>
<rect x="41.4508" y="29.1149" width="13.6946" height="11.2982" rx="5" transform="rotate(45 41.4508 29.1149)" fill="url(#paint1_linear_217_44)"/>
<path d="M66.5953 12.0784C67.4387 11.6906 68.3094 12.5613 67.9216 13.4047L64.208 21.4811C64.086 21.7462 64.086 22.0514 64.208 22.3166L67.9216 30.3929C68.3094 31.2363 67.4387 32.1071 66.5953 31.7192L58.519 28.0056C58.2538 27.8837 57.9486 27.8837 57.6834 28.0056L49.6071 31.7192C48.7637 32.1071 47.893 31.2363 48.2808 30.3929L51.9944 22.3166C52.1164 22.0514 52.1164 21.7462 51.9944 21.4811L48.2808 13.4047C47.893 12.5613 48.7637 11.6906 49.6071 12.0784L57.6834 15.7921C57.9486 15.914 58.2538 15.914 58.519 15.7921L66.5953 12.0784Z" fill="url(#paint2_angular_217_44)"/>
<path d="M74.8183 17.817C75.24 17.6231 75.6753 18.0584 75.4814 18.4801L74.3238 20.9977C74.2628 21.1303 74.2628 21.2829 74.3238 21.4155L75.4814 23.9331C75.6753 24.3548 75.24 24.7902 74.8183 24.5963L72.3007 23.4386C72.1681 23.3777 72.0155 23.3777 71.8829 23.4386L69.3653 24.5963C68.9436 24.7902 68.5083 24.3548 68.7022 23.9331L69.8598 21.4155C69.9208 21.2829 69.9208 21.1303 69.8598 20.9977L68.7022 18.4801C68.5083 18.0584 68.9436 17.6231 69.3653 17.817L71.8829 18.9746C72.0155 19.0356 72.1681 19.0356 72.3007 18.9746L74.8183 17.817Z" fill="url(#paint3_angular_217_44)"/>
<defs>
<linearGradient id="paint0_linear_217_44" x1="38.6145" y1="38.7984" x2="38.6145" y2="83.724" gradientUnits="userSpaceOnUse">
<stop stop-color="#4831D4"/>
<stop offset="1" stop-color="#7761FF"/>
</linearGradient>
<linearGradient id="paint1_linear_217_44" x1="48.2981" y1="29.1149" x2="48.2981" y2="40.4131" gradientUnits="userSpaceOnUse">
<stop stop-color="#4831D4"/>
<stop offset="1" stop-color="#7761FF"/>
</linearGradient>
<radialGradient id="paint2_angular_217_44" cx="0" cy="0" r="1" gradientUnits="userSpaceOnUse" gradientTransform="translate(58.1012 21.8988) rotate(135) scale(15.4848)">
<stop stop-color="#31D49A"/>
<stop offset="1" stop-color="#83E5C2"/>
</radialGradient>
<radialGradient id="paint3_angular_217_44" cx="0" cy="0" r="1" gradientUnits="userSpaceOnUse" gradientTransform="translate(72.0918 21.2066) rotate(135) scale(5.592)">
<stop stop-color="#31D49A"/>
<stop offset="1" stop-color="#83E5C2"/>
</radialGradient>
</defs>
</svg>
