<svg width="600" height="600" viewBox="0 0 600 600" fill="none" xmlns="http://www.w3.org/2000/svg">
<path d="M551.092 165.025C548.198 142.508 542.554 120.922 530.729 101.262C508.746 64.7124 469.25 42.6396 429.151 31.44C395.545 22.0548 359.363 19.3488 325.843 29.0412C289.051 39.6792 258.179 64.1844 225.047 83.3964C200.886 97.4064 175.39 109.006 149.324 118.986C128.228 127.063 101.417 131.588 84.0792 146.93C73.4436 156.341 64.0872 167.206 56.058 178.906C23.6928 226.074 13.1448 286.343 18.1452 342.594C21.6288 381.793 32.4084 421.451 56.5884 452.498C90.516 496.063 148.746 517.53 203.698 512.119C266.06 505.978 325.194 468.696 387.216 477.642C418.088 482.095 447.636 497.962 478.687 495.011C509.297 492.102 535.501 471.055 553.966 446.47C568.775 426.751 578.629 402.914 579.541 378.098C580.529 351.222 568.363 326.722 562.26 301.061C551.59 256.195 556.91 210.318 551.092 165.025Z" fill="#3D0FF5"/>
<path opacity="0.7" d="M551.092 165.025C548.198 142.508 542.554 120.922 530.729 101.262C508.746 64.7124 469.25 42.6396 429.151 31.44C395.545 22.0548 359.363 19.3488 325.843 29.0412C289.051 39.6792 258.179 64.1844 225.047 83.3964C200.886 97.4064 175.39 109.006 149.324 118.986C128.228 127.063 101.417 131.588 84.0792 146.93C73.4436 156.341 64.0872 167.206 56.058 178.906C23.6928 226.074 13.1448 286.343 18.1452 342.594C21.6288 381.793 32.4084 421.451 56.5884 452.498C90.516 496.063 148.746 517.53 203.698 512.119C266.06 505.978 325.194 468.696 387.216 477.642C418.088 482.095 447.636 497.962 478.687 495.011C509.297 492.102 535.501 471.055 553.966 446.47C568.775 426.751 578.629 402.914 579.541 378.098C580.529 351.222 568.363 326.722 562.26 301.061C551.59 256.195 556.91 210.318 551.092 165.025Z" fill="white"/>
<path d="M401.917 378.291H577.046V371.69H401.917V378.291Z" stroke="#1F1F28" stroke-miterlimit="10" stroke-linecap="round" stroke-linejoin="round"/>
<path d="M410.04 556.799H568.923V378.479H410.04V556.799Z" stroke="#1F1F28" stroke-miterlimit="10" stroke-linecap="round" stroke-linejoin="round"/>
<path d="M415.755 425.468H563.393V386.776H415.755V425.468Z" stroke="#1F1F28" stroke-miterlimit="10" stroke-linecap="round" stroke-linejoin="round"/>
<path d="M482.446 409.685H497.21V402.559H482.446V409.685Z" fill="#1F1F28" stroke="#1F1F28" stroke-miterlimit="10" stroke-linecap="round" stroke-linejoin="round"/>
<path d="M415.755 474.341H563.393V435.649H415.755V474.341Z" stroke="#1F1F28" stroke-miterlimit="10" stroke-linecap="round" stroke-linejoin="round"/>
<path d="M482.446 458.56H497.21V451.432H482.446V458.56Z" fill="#1F1F28" stroke="#1F1F28" stroke-miterlimit="10" stroke-linecap="round" stroke-linejoin="round"/>
<path d="M415.755 523.441H563.393V484.749H415.755V523.441Z" stroke="#1F1F28" stroke-miterlimit="10" stroke-linecap="round" stroke-linejoin="round"/>
<path d="M482.446 507.659H497.21V500.533H482.446V507.659Z" fill="#1F1F28" stroke="#1F1F28" stroke-miterlimit="10" stroke-linecap="round" stroke-linejoin="round"/>
<path d="M496.754 293.674C498.544 294.456 502.922 294.358 502.926 294.358C502.972 294.356 501.985 291.491 501.902 291.318C500.941 289.308 497.904 285.99 495.432 286.325C493.651 286.566 492.661 288.348 493.063 290.024C493.472 291.734 495.229 293.006 496.754 293.674Z" fill="#1F1F28"/>
<path d="M541.04 294.636C541.079 294.66 541.837 291.726 541.864 291.535C542.171 289.328 541.468 284.886 539.221 283.801C537.604 283.02 535.794 283.96 535.205 285.58C534.602 287.234 535.366 289.265 536.27 290.662C537.331 292.301 541.038 294.635 541.04 294.636Z" fill="#1F1F28"/>
<path d="M553.74 278.744C551.259 278.478 548.312 281.876 547.406 283.911C547.328 284.088 546.42 286.978 546.465 286.977C546.465 286.977 546.507 286.977 546.518 286.977C546.049 287.51 545.552 288.087 545.022 288.728C544.052 289.92 542.966 291.276 541.885 292.831C540.8 294.381 539.665 296.097 538.633 298.012C537.595 299.93 536.602 302.001 535.855 304.267C535.846 304.292 535.84 304.321 535.832 304.346C535.844 303.615 535.813 301.572 535.792 301.414C535.507 299.205 533.655 295.105 531.201 294.651C529.434 294.325 527.937 295.71 527.797 297.428C527.653 299.182 528.926 300.939 530.167 302.048C531.566 303.298 535.45 304.508 535.76 304.604C535.068 306.769 534.534 309.046 534.12 311.38C533.882 312.715 533.683 314.066 533.502 315.424C533.492 314.792 533.479 314.228 533.469 314.149C533.182 311.94 531.332 307.839 528.878 307.387C527.11 307.06 525.614 308.445 525.474 310.164C525.33 311.919 526.603 313.675 527.844 314.784C529.102 315.908 532.393 317.007 533.268 317.286C533.203 317.808 533.133 318.327 533.071 318.849C532.771 321.352 532.484 323.852 532.126 326.295C532.002 327.157 531.846 327.999 531.693 328.844C531.685 328.282 531.673 327.81 531.663 327.738C531.376 325.528 529.526 321.428 527.072 320.976C525.304 320.649 523.808 322.033 523.668 323.752C523.524 325.507 524.797 327.264 526.038 328.372C527.239 329.445 530.268 330.487 531.306 330.823C531.123 331.682 530.943 332.544 530.727 333.369C530.568 333.93 530.452 334.479 530.262 335.034C530.084 335.586 529.906 336.132 529.732 336.673C529.358 337.702 528.978 338.768 528.586 339.764C528.32 340.459 528.054 341.115 527.786 341.778C527.92 340.922 528.15 339.242 528.153 339.099C528.188 337.62 527.662 335.214 526.616 333.523C526.622 333.304 526.61 333.086 526.575 332.87C526.302 331.168 524.702 329.904 522.966 330.366C520.555 331.008 519.026 335.239 518.912 337.462C518.905 337.593 518.991 339.026 519.061 339.928C518.94 339.404 518.828 338.894 518.696 338.355C518.443 337.29 518.16 336.232 517.858 335.095C517.694 334.55 517.527 334 517.359 333.446C517.204 332.892 516.97 332.326 516.777 331.76C516.301 330.457 515.754 329.16 515.174 327.864C516.106 327.64 519.409 326.798 520.735 325.78C522.055 324.768 523.454 323.11 523.442 321.35C523.43 319.626 522.04 318.134 520.254 318.327C517.774 318.596 515.622 322.546 515.172 324.729C515.143 324.865 514.996 326.467 514.933 327.348C514.578 326.571 514.228 325.796 513.844 325.022C512.736 322.79 511.544 320.565 510.366 318.34C510.004 317.659 509.653 316.976 509.298 316.293C509.63 316.218 513.577 315.302 515.061 314.162C516.381 313.149 517.78 311.492 517.768 309.732C517.756 308.007 516.367 306.516 514.58 306.71C512.1 306.98 509.948 310.93 509.498 313.112C509.464 313.276 509.256 315.582 509.232 316.17C508.45 314.666 507.686 313.16 506.994 311.646C506.035 309.556 505.208 307.454 504.559 305.358C504.714 305.323 508.837 304.386 510.358 303.218C511.678 302.205 513.079 300.548 513.066 298.788C513.054 297.063 511.664 295.572 509.877 295.765C507.397 296.034 505.245 299.985 504.795 302.166C504.765 302.31 504.606 304.066 504.548 304.903C504.47 304.911 504.484 304.91 504.406 304.918C503.738 302.664 503.373 300.397 503.138 298.257C502.999 297.019 502.935 295.826 502.899 294.666C503.685 294.57 507.271 294.092 508.756 293.193C510.18 292.332 511.753 290.839 511.934 289.087C512.11 287.372 510.894 285.735 509.097 285.733C506.602 285.728 504.03 289.419 503.343 291.537C503.306 291.652 503.055 292.866 502.886 293.752C502.878 293.228 502.86 292.688 502.862 292.185C502.866 290.299 502.984 288.572 503.103 287.043C503.178 286.174 503.262 285.391 503.348 284.658C504.07 284.161 506.955 282.124 507.842 280.669C508.708 279.248 509.416 277.198 508.77 275.56C508.136 273.956 506.302 273.066 504.706 273.89C502.49 275.036 501.908 279.496 502.274 281.694C502.305 281.883 503.143 284.796 503.18 284.77C503.18 284.77 503.215 284.746 503.223 284.74C503.126 285.444 503.03 286.2 502.941 287.026C502.79 288.555 502.632 290.284 502.587 292.179C502.538 294.072 502.538 296.128 502.732 298.296C502.926 300.468 503.239 302.743 503.865 305.046C503.872 305.072 503.883 305.098 503.89 305.124C503.498 304.507 502.344 302.82 502.24 302.701C500.782 301.016 496.977 298.618 494.68 299.593C493.026 300.295 492.542 302.276 493.372 303.787C494.221 305.33 496.251 306.093 497.898 306.333C499.754 306.603 503.662 305.47 503.972 305.379C504.589 307.567 505.399 309.762 506.342 311.937C506.88 313.182 507.459 314.419 508.057 315.651C507.7 315.129 507.378 314.665 507.326 314.605C505.868 312.92 502.062 310.522 499.766 311.497C498.111 312.199 497.628 314.18 498.458 315.691C499.306 317.234 501.337 317.997 502.983 318.237C504.654 318.481 508.004 317.582 508.888 317.332C509.122 317.803 509.35 318.276 509.587 318.745C510.718 320.997 511.857 323.241 512.907 325.476C513.278 326.263 513.613 327.052 513.952 327.84C513.636 327.376 513.364 326.989 513.316 326.934C511.86 325.249 508.053 322.851 505.756 323.826C504.102 324.528 503.618 326.509 504.448 328.02C505.297 329.563 507.327 330.326 508.974 330.566C510.567 330.799 513.668 329.996 514.719 329.704C515.042 330.522 515.366 331.34 515.642 332.146C515.818 332.702 516.026 333.224 516.171 333.792C516.327 334.351 516.482 334.903 516.634 335.451C516.89 336.517 517.16 337.615 517.383 338.661C517.544 339.387 517.683 340.082 517.827 340.783C517.468 339.994 516.732 338.467 516.656 338.347C515.47 336.46 512.072 333.514 509.654 334.13C507.913 334.574 507.134 336.458 507.726 338.077C508.33 339.73 510.222 340.792 511.813 341.28C513.565 341.815 517.443 341.325 517.927 341.262C518.16 342.421 518.374 343.55 518.56 344.619C518.973 346.963 519.285 349.063 519.524 350.845H509.696V371.516H535.536V350.845H525.544C526.192 349.406 526.903 347.77 527.643 345.958C528.1 344.848 528.566 343.653 529.033 342.422C529.502 342.52 533.342 343.3 535.131 342.896C536.754 342.529 538.719 341.611 539.445 340.008C540.157 338.437 539.52 336.5 537.817 335.928C535.453 335.133 531.843 337.819 530.521 339.61C530.443 339.716 529.725 340.958 529.284 341.749C529.472 341.245 529.66 340.758 529.848 340.236C530.226 339.207 530.571 338.169 530.948 337.054C531.111 336.51 531.276 335.959 531.441 335.403C531.618 334.856 531.735 334.255 531.886 333.675C532.208 332.325 532.468 330.942 532.699 329.541C533.6 329.87 536.818 330.99 538.486 330.872C540.146 330.756 542.228 330.146 543.188 328.67C544.129 327.225 543.793 325.214 542.196 324.391C539.979 323.247 536.005 325.356 534.426 326.926C534.327 327.024 533.32 328.279 532.782 328.978C532.914 328.136 533.05 327.296 533.156 326.438C533.463 323.965 533.697 321.452 533.941 318.946C534.015 318.178 534.099 317.415 534.18 316.65C534.499 316.77 538.296 318.183 540.163 318.052C541.822 317.936 543.904 317.326 544.866 315.85C545.806 314.406 545.47 312.394 543.873 311.571C541.657 310.428 537.681 312.536 536.103 314.107C535.984 314.226 534.54 316.033 534.194 316.51C534.372 314.826 534.565 313.148 534.823 311.502C535.176 309.23 535.646 307.021 536.26 304.914C536.409 304.97 540.364 306.463 542.277 306.328C543.937 306.212 546.019 305.602 546.98 304.126C547.921 302.682 547.585 300.67 545.988 299.847C543.77 298.704 539.797 300.812 538.218 302.383C538.114 302.486 537.012 303.861 536.503 304.528C536.433 304.492 536.446 304.498 536.377 304.462C537.062 302.214 538.01 300.122 538.993 298.207C539.56 297.097 540.165 296.067 540.775 295.08C541.483 295.434 544.737 297.014 546.472 297.082C548.134 297.148 550.27 296.772 551.388 295.411C552.482 294.078 552.369 292.042 550.872 291.048C548.793 289.668 544.612 291.326 542.87 292.714C542.775 292.79 541.898 293.664 541.267 294.309C541.549 293.868 541.832 293.407 542.112 292.988C543.154 291.416 544.207 290.042 545.149 288.831C545.69 288.147 546.193 287.54 546.669 286.976C547.545 286.96 551.074 286.854 552.618 286.129C554.124 285.422 555.846 284.102 556.209 282.379C556.564 280.692 555.526 278.936 553.74 278.744ZM526.28 345.378C525.382 347.444 524.529 349.276 523.776 350.839H521.157C520.873 348.996 520.502 346.802 520.012 344.342C519.781 343.165 519.511 341.911 519.22 340.626C519.512 340.51 521.166 339.841 522.631 339.022C523.908 340.405 527.179 342.024 527.602 342.229C527.157 343.323 526.714 344.384 526.28 345.378Z" fill="#1F1F28"/>
<path d="M34.164 380.347L48.0816 513.708" stroke="#1F1F28" stroke-width="2" stroke-miterlimit="10"/>
<path d="M45.8388 488.186L39.5292 481.522" stroke="#1F1F28" stroke-width="2" stroke-miterlimit="10"/>
<path d="M41.4468 483.518C41.4468 483.518 41.628 480.57 38.9352 478.166C37.3152 476.72 28.7928 473.135 27.984 476.136C27.1044 479.401 35.8284 485.813 41.4468 483.518Z" fill="#3D0FF5" stroke="#1F1F28" stroke-miterlimit="10"/>
<path d="M41.4468 483.518L33.3324 478.462" stroke="#1F1F28" stroke-width="0.5" stroke-miterlimit="10"/>
<path d="M47.4216 503.353L41.112 496.688" stroke="#1F1F28" stroke-width="2" stroke-miterlimit="10"/>
<path d="M43.0296 498.685C43.0296 498.685 43.2108 495.737 40.518 493.333C38.8992 491.887 30.3756 488.302 29.5668 491.303C28.6872 494.568 37.4112 500.981 43.0296 498.685Z" fill="#3D0FF5" stroke="#1F1F28" stroke-miterlimit="10"/>
<path d="M43.0296 498.685L34.9152 493.628" stroke="#1F1F28" stroke-width="0.5" stroke-miterlimit="10"/>
<path d="M41.976 451.176L35.6664 444.511" stroke="#1F1F28" stroke-width="2" stroke-miterlimit="10"/>
<path d="M37.584 446.508C37.584 446.508 37.7652 443.56 35.0724 441.156C33.4524 439.71 24.93 436.124 24.1212 439.126C23.2416 442.391 31.9656 448.804 37.584 446.508Z" fill="#3D0FF5" stroke="#1F1F28" stroke-miterlimit="10"/>
<path d="M37.584 446.508L29.4696 441.451" stroke="#1F1F28" stroke-width="0.5" stroke-miterlimit="10"/>
<path d="M43.5588 466.343L37.2504 459.678" stroke="#1F1F28" stroke-width="2" stroke-miterlimit="10"/>
<path d="M39.1668 461.675C39.1668 461.675 39.3468 458.726 36.6552 456.323C35.0352 454.877 26.5128 451.291 25.704 454.292C24.8244 457.558 33.5484 463.97 39.1668 461.675Z" fill="#3D0FF5" stroke="#1F1F28" stroke-miterlimit="10"/>
<path d="M39.1668 461.675L31.0524 456.619" stroke="#1F1F28" stroke-width="0.5" stroke-miterlimit="10"/>
<path d="M39.4056 426.538L33.096 419.874" stroke="#1F1F28" stroke-width="2" stroke-miterlimit="10"/>
<path d="M35.0124 421.871C35.0124 421.871 35.1924 418.922 32.5008 416.519C30.8808 415.073 22.3584 411.487 21.5496 414.488C20.67 417.754 29.394 424.165 35.0124 421.871Z" fill="#3D0FF5" stroke="#1F1F28" stroke-miterlimit="10"/>
<path d="M35.0124 421.871L26.898 416.814" stroke="#1F1F28" stroke-width="0.5" stroke-miterlimit="10"/>
<path d="M36.8232 401.792L30.5136 395.129" stroke="#1F1F28" stroke-width="2" stroke-miterlimit="10"/>
<path d="M32.43 397.126C32.43 397.126 32.61 394.177 29.9184 391.774C28.2984 390.328 19.776 386.742 18.9672 389.743C18.0876 393.008 26.8116 399.42 32.43 397.126Z" fill="#3D0FF5" stroke="#1F1F28" stroke-miterlimit="10"/>
<path d="M32.43 397.126L24.3156 392.069" stroke="#1F1F28" stroke-width="0.5" stroke-miterlimit="10"/>
<path d="M44.778 479.212L49.5756 471.389" stroke="#1F1F28" stroke-width="2" stroke-miterlimit="10"/>
<path d="M48.1128 473.738C48.1128 473.738 47.328 470.892 49.4652 467.983C50.7516 466.234 58.35 460.966 59.7612 463.735C61.296 466.748 54.084 474.823 48.1128 473.738Z" fill="#3D0FF5" stroke="#1F1F28" stroke-miterlimit="10"/>
<path d="M48.1128 473.738L55.4184 466.754" stroke="#1F1F28" stroke-width="0.5" stroke-miterlimit="10"/>
<path d="M40.6128 439.3L45.4104 431.477" stroke="#1F1F28" stroke-width="2" stroke-miterlimit="10"/>
<path d="M43.9476 433.826C43.9476 433.826 43.1628 430.98 45.3 428.071C46.5864 426.322 54.1848 421.054 55.596 423.823C57.1308 426.836 49.9188 434.911 43.9476 433.826Z" fill="#3D0FF5" stroke="#1F1F28" stroke-miterlimit="10"/>
<path d="M43.9476 433.826L51.2532 426.842" stroke="#1F1F28" stroke-width="0.5" stroke-miterlimit="10"/>
<path d="M38.7828 421.76L43.5804 413.936" stroke="#1F1F28" stroke-width="2" stroke-miterlimit="10"/>
<path d="M42.1164 416.286C42.1164 416.286 41.3316 413.438 43.4688 410.531C44.7552 408.781 52.3536 403.513 53.766 406.283C55.2996 409.296 48.0888 417.372 42.1164 416.286Z" fill="#3D0FF5" stroke="#1F1F28" stroke-miterlimit="10"/>
<path d="M42.1165 416.286L49.4233 409.303" stroke="#1F1F28" stroke-width="0.5" stroke-miterlimit="10"/>
<path d="M36.0996 396.047L40.8972 388.224" stroke="#1F1F28" stroke-width="2" stroke-miterlimit="10"/>
<path d="M39.4332 390.572C39.4332 390.572 38.6484 387.726 40.7856 384.817C42.072 383.068 49.6704 377.8 51.0816 380.569C52.6164 383.582 45.4044 391.658 39.4332 390.572Z" fill="#3D0FF5" stroke="#1F1F28" stroke-miterlimit="10"/>
<path d="M39.4332 390.572L46.74 383.59" stroke="#1F1F28" stroke-width="0.5" stroke-miterlimit="10"/>
<path d="M34.0476 379.607C34.0476 379.607 33.2628 376.76 35.4 373.852C36.6864 372.102 44.2848 366.834 45.696 369.604C47.2308 372.617 40.0188 380.692 34.0476 379.607Z" fill="#3D0FF5" stroke="#1F1F28" stroke-miterlimit="10"/>
<path d="M34.0476 379.607L41.3532 372.623" stroke="#1F1F28" stroke-width="0.5" stroke-miterlimit="10"/>
<path d="M34.4712 379.908C34.4712 379.908 31.5576 380.39 28.89 377.959C27.2844 376.496 22.842 368.387 25.7448 367.274C28.902 366.064 36.1764 374.083 34.4712 379.908Z" fill="#3D0FF5" stroke="#1F1F28" stroke-miterlimit="10"/>
<path d="M34.4712 379.908L28.2912 371.909" stroke="#1F1F28" stroke-width="0.5" stroke-miterlimit="10"/>
<path d="M70.8732 398.713L57.0336 532.081" stroke="#1F1F28" stroke-width="2" stroke-miterlimit="10"/>
<path d="M60.0937 506.645L55.2913 498.824" stroke="#1F1F28" stroke-width="2" stroke-miterlimit="10"/>
<path d="M56.7564 501.173C56.7564 501.173 57.54 498.325 55.4004 495.419C54.114 493.67 46.5108 488.406 45.1008 491.177C43.5684 494.191 50.7852 502.262 56.7564 501.173Z" fill="#3D0FF5" stroke="#1F1F28" stroke-miterlimit="10"/>
<path d="M56.7564 501.173L49.8564 494.555" stroke="#1F1F28" stroke-width="0.5" stroke-miterlimit="10"/>
<path d="M63.9336 469.632L59.1324 461.812" stroke="#1F1F28" stroke-width="2" stroke-miterlimit="10"/>
<path d="M60.5965 464.161C60.5965 464.161 61.3801 461.314 59.2405 458.407C57.9541 456.659 50.3509 451.394 48.9409 454.165C47.4097 457.178 54.6265 465.25 60.5965 464.161Z" fill="#3D0FF5" stroke="#1F1F28" stroke-miterlimit="10"/>
<path d="M60.5965 464.161L53.6977 457.542" stroke="#1F1F28" stroke-width="0.5" stroke-miterlimit="10"/>
<path d="M62.3604 484.8L57.558 476.98" stroke="#1F1F28" stroke-width="2" stroke-miterlimit="10"/>
<path d="M59.0232 479.328C59.0232 479.328 59.8068 476.48 57.6672 473.574C56.3808 471.826 48.7776 466.561 47.3676 469.332C45.8352 472.346 53.052 480.418 59.0232 479.328Z" fill="#3D0FF5" stroke="#1F1F28" stroke-miterlimit="10"/>
<path d="M59.0232 479.328L52.1232 472.71" stroke="#1F1F28" stroke-width="0.5" stroke-miterlimit="10"/>
<path d="M66.4909 444.994L61.6885 437.173" stroke="#1F1F28" stroke-width="2" stroke-miterlimit="10"/>
<path d="M63.1537 439.522C63.1537 439.522 63.9373 436.674 61.7977 433.768C60.5113 432.019 52.9081 426.755 51.4981 429.526C49.9657 432.54 57.1825 440.61 63.1537 439.522Z" fill="#3D0FF5" stroke="#1F1F28" stroke-miterlimit="10"/>
<path d="M63.1537 439.522L56.2537 432.902" stroke="#1F1F28" stroke-width="0.5" stroke-miterlimit="10"/>
<path d="M69.0589 420.247L64.2565 412.427" stroke="#1F1F28" stroke-width="2" stroke-miterlimit="10"/>
<path d="M65.7217 414.775C65.7217 414.775 66.5053 411.928 64.3657 409.021C63.0793 407.273 55.4761 402.008 54.0661 404.779C52.5337 407.792 59.7505 415.864 65.7217 414.775Z" fill="#3D0FF5" stroke="#1F1F28" stroke-miterlimit="10"/>
<path d="M65.7217 414.775L58.8217 408.156" stroke="#1F1F28" stroke-width="0.5" stroke-miterlimit="10"/>
<path d="M60.9036 497.645L67.2084 490.978" stroke="#1F1F28" stroke-width="2" stroke-miterlimit="10"/>
<path d="M65.2932 492.976C65.2932 492.976 65.1108 490.028 67.8012 487.622C69.4201 486.175 77.9412 482.585 78.7513 485.586C79.6333 488.85 70.9129 495.266 65.2932 492.976Z" fill="#3D0FF5" stroke="#1F1F28" stroke-miterlimit="10"/>
<path d="M65.2932 492.976L73.8816 487.645" stroke="#1F1F28" stroke-width="0.5" stroke-miterlimit="10"/>
<path d="M65.0449 457.73L71.3509 451.062" stroke="#1F1F28" stroke-width="2" stroke-miterlimit="10"/>
<path d="M69.4345 453.06C69.4345 453.06 69.2521 450.112 71.9425 447.707C73.5613 446.26 82.0825 442.669 82.8925 445.67C83.7757 448.934 75.0553 455.352 69.4345 453.06Z" fill="#3D0FF5" stroke="#1F1F28" stroke-miterlimit="10"/>
<path d="M69.4344 453.06L78.0228 447.731" stroke="#1F1F28" stroke-width="0.5" stroke-miterlimit="10"/>
<path d="M66.8652 440.19L73.1712 433.522" stroke="#1F1F28" stroke-width="2" stroke-miterlimit="10"/>
<path d="M71.2549 435.52C71.2549 435.52 71.0725 432.571 73.7629 430.166C75.3817 428.719 83.9029 425.129 84.7141 428.13C85.5949 431.394 76.8745 437.812 71.2549 435.52Z" fill="#3D0FF5" stroke="#1F1F28" stroke-miterlimit="10"/>
<path d="M71.2548 435.52L79.8432 430.19" stroke="#1F1F28" stroke-width="0.5" stroke-miterlimit="10"/>
<path d="M69.5341 414.474L75.8389 407.807" stroke="#1F1F28" stroke-width="2" stroke-miterlimit="10"/>
<path d="M73.9237 409.805C73.9237 409.805 73.7413 406.856 76.4317 404.452C78.0505 403.004 86.5717 399.414 87.3817 402.415C88.2637 405.679 79.5433 412.097 73.9237 409.805Z" fill="#3D0FF5" stroke="#1F1F28" stroke-miterlimit="10"/>
<path d="M73.9236 409.805L82.5108 404.476" stroke="#1F1F28" stroke-width="0.5" stroke-miterlimit="10"/>
<path d="M70.9104 397.964C70.9104 397.964 70.728 395.016 73.4184 392.611C75.0372 391.164 83.5584 387.574 84.3684 390.575C85.2504 393.839 76.53 400.256 70.9104 397.964Z" fill="#3D0FF5" stroke="#1F1F28" stroke-miterlimit="10"/>
<path d="M70.9105 397.964L79.4989 392.634" stroke="#1F1F28" stroke-width="0.5" stroke-miterlimit="10"/>
<path d="M71.2633 398.346C71.2633 398.346 68.3125 398.219 66.2029 395.291C64.9333 393.529 62.2561 384.678 65.3257 384.187C68.6641 383.652 74.1313 392.998 71.2633 398.346Z" fill="#3D0FF5" stroke="#1F1F28" stroke-miterlimit="10"/>
<path d="M71.2633 398.346L66.8641 389.246" stroke="#1F1F28" stroke-width="0.5" stroke-miterlimit="10"/>
<path d="M55.014 344.405V513.058" stroke="#1F1F28" stroke-width="2" stroke-miterlimit="10"/>
<path d="M55.1484 487.7L49.5636 480.416" stroke="#1F1F28" stroke-width="2" stroke-miterlimit="10"/>
<path d="M51.264 482.602C51.264 482.602 51.75 479.688 49.3224 477.018C47.862 475.411 39.756 470.96 38.64 473.862C37.4256 477.018 45.4368 484.301 51.264 482.602Z" fill="#3D0FF5" stroke="#1F1F28" stroke-miterlimit="10"/>
<path d="M51.264 482.602L43.7184 476.73" stroke="#1F1F28" stroke-width="0.5" stroke-miterlimit="10"/>
<path d="M55.1484 456.005L49.5636 448.722" stroke="#1F1F28" stroke-width="2" stroke-miterlimit="10"/>
<path d="M51.264 450.907C51.264 450.907 51.75 447.994 49.3224 445.324C47.862 443.717 39.756 439.266 38.64 442.168C37.4256 445.324 45.4368 452.606 51.264 450.907Z" fill="#3D0FF5" stroke="#1F1F28" stroke-miterlimit="10"/>
<path d="M51.264 450.907L43.7184 445.036" stroke="#1F1F28" stroke-width="0.5" stroke-miterlimit="10"/>
<path d="M55.1484 418.794L49.5636 411.511" stroke="#1F1F28" stroke-width="2" stroke-miterlimit="10"/>
<path d="M51.264 413.696C51.264 413.696 51.75 410.783 49.3224 408.113C47.862 406.506 39.756 402.055 38.64 404.957C37.4256 408.113 45.4368 415.396 51.264 413.696Z" fill="#3D0FF5" stroke="#1F1F28" stroke-miterlimit="10"/>
<path d="M51.264 413.696L43.7184 407.825" stroke="#1F1F28" stroke-width="0.5" stroke-miterlimit="10"/>
<path d="M55.1484 394.022L49.5636 386.74" stroke="#1F1F28" stroke-width="2" stroke-miterlimit="10"/>
<path d="M51.264 388.925C51.264 388.925 51.75 386.011 49.3224 383.341C47.862 381.734 39.756 377.284 38.64 380.185C37.4256 383.341 45.4368 390.624 51.264 388.925Z" fill="#3D0FF5" stroke="#1F1F28" stroke-miterlimit="10"/>
<path d="M51.264 388.925L43.7184 383.053" stroke="#1F1F28" stroke-width="0.5" stroke-miterlimit="10"/>
<path d="M55.1484 369.143L49.5636 361.86" stroke="#1F1F28" stroke-width="2" stroke-miterlimit="10"/>
<path d="M51.264 364.045C51.264 364.045 51.75 361.132 49.3224 358.462C47.862 356.855 39.756 352.404 38.64 355.306C37.4256 358.462 45.4368 365.744 51.264 364.045Z" fill="#3D0FF5" stroke="#1F1F28" stroke-miterlimit="10"/>
<path d="M51.264 364.045L43.7184 358.174" stroke="#1F1F28" stroke-width="0.5" stroke-miterlimit="10"/>
<path d="M55.0248 497.378L60.6084 490.096" stroke="#1F1F28" stroke-width="2" stroke-miterlimit="10"/>
<path d="M58.9092 492.28C58.9092 492.28 58.4232 489.366 60.8508 486.696C62.3112 485.089 70.4172 480.638 71.5332 483.54C72.7464 486.696 64.7352 493.979 58.9092 492.28Z" fill="#3D0FF5" stroke="#1F1F28" stroke-miterlimit="10"/>
<path d="M58.9092 492.28L66.9012 486.092" stroke="#1F1F28" stroke-width="0.5" stroke-miterlimit="10"/>
<path d="M55.0248 446.97L60.6084 439.687" stroke="#1F1F28" stroke-width="2" stroke-miterlimit="10"/>
<path d="M58.9092 441.871C58.9092 441.871 58.4232 438.958 60.8508 436.288C62.3112 434.681 70.4172 430.23 71.5332 433.132C72.7464 436.288 64.7352 443.572 58.9092 441.871Z" fill="#3D0FF5" stroke="#1F1F28" stroke-miterlimit="10"/>
<path d="M58.9092 441.871L66.9012 435.684" stroke="#1F1F28" stroke-width="0.5" stroke-miterlimit="10"/>
<path d="M55.0248 422.09L60.6084 414.808" stroke="#1F1F28" stroke-width="2" stroke-miterlimit="10"/>
<path d="M58.9092 416.992C58.9092 416.992 58.4232 414.078 60.8508 411.408C62.3112 409.801 70.4172 405.35 71.5332 408.252C72.7464 411.409 64.7352 418.692 58.9092 416.992Z" fill="#3D0FF5" stroke="#1F1F28" stroke-miterlimit="10"/>
<path d="M58.9092 416.992L66.9012 410.804" stroke="#1F1F28" stroke-width="0.5" stroke-miterlimit="10"/>
<path d="M55.0248 389.206L60.6084 381.923" stroke="#1F1F28" stroke-width="2" stroke-miterlimit="10"/>
<path d="M58.9092 384.108C58.9092 384.108 58.4232 381.194 60.8508 378.524C62.3112 376.918 70.4172 372.467 71.5332 375.368C72.7464 378.524 64.7352 385.807 58.9092 384.108Z" fill="#3D0FF5" stroke="#1F1F28" stroke-miterlimit="10"/>
<path d="M58.9092 384.108L66.9012 377.921" stroke="#1F1F28" stroke-width="0.5" stroke-miterlimit="10"/>
<path d="M55.0248 363.353L60.6084 356.07" stroke="#1F1F28" stroke-width="2" stroke-miterlimit="10"/>
<path d="M58.9092 358.255C58.9092 358.255 58.4232 355.342 60.8508 352.672C62.3112 351.065 70.4172 346.614 71.5332 349.516C72.7464 352.672 64.7352 359.954 58.9092 358.255Z" fill="#3D0FF5" stroke="#1F1F28" stroke-miterlimit="10"/>
<path d="M58.9092 358.255L66.9012 352.067" stroke="#1F1F28" stroke-width="0.5" stroke-miterlimit="10"/>
<path d="M54.6901 346.788C54.6901 346.788 54.2041 343.874 56.6317 341.204C58.0921 339.598 66.1969 335.147 67.3141 338.048C68.5285 341.204 60.5173 348.488 54.6901 346.788Z" fill="#3D0FF5" stroke="#1F1F28" stroke-miterlimit="10"/>
<path d="M54.6901 346.788L62.6821 340.601" stroke="#1F1F28" stroke-width="0.5" stroke-miterlimit="10"/>
<path d="M55.0801 347.132C55.0801 347.132 52.1317 347.31 49.7305 344.616C48.2857 342.995 44.7097 334.468 47.7121 333.662C50.9785 332.785 57.3817 341.516 55.0801 347.132Z" fill="#3D0FF5" stroke="#1F1F28" stroke-miterlimit="10"/>
<path d="M55.0801 347.132L49.7653 338.536" stroke="#1F1F28" stroke-width="0.5" stroke-miterlimit="10"/>
<path d="M61.9524 556.8H44.0904L41.8584 511.691H64.1844L61.9524 556.8Z" fill="#1F1F28" stroke="#1F1F28" stroke-miterlimit="10"/>
<path d="M138.094 211.415H30.7944V40.5912H163.646V211.415H145.073" stroke="#1F1F28" stroke-miterlimit="10"/>
<path d="M158.828 46.7856H35.6124V205.22H158.828V46.7856Z" stroke="#1F1F28" stroke-miterlimit="10"/>
<path d="M60.2964 90.1824C62.3616 92.0952 64.6788 93.9492 67.2768 95.712C95.148 114.624 142.429 105.666 158.354 132.541" stroke="#1F1F28" stroke-miterlimit="10"/>
<path d="M43.8864 47.436C43.8864 47.436 40.6464 68.6748 56.8224 86.6604" stroke="#1F1F28" stroke-miterlimit="10"/>
<path d="M54.444 134.713C68.0388 127.532 85.6428 122.436 94.6512 137.021C105.103 153.942 56.826 183.804 56.826 205.205" stroke="#1F1F28" stroke-miterlimit="10"/>
<path d="M35.9232 146.975C35.9232 146.975 42.1248 141.797 50.6844 136.804" stroke="#1F1F28" stroke-miterlimit="10"/>
<path d="M100.126 47.436C100.126 47.436 118.043 75.3072 158.854 67.8408" stroke="#1F1F28" stroke-miterlimit="10"/>
<path d="M105.48 74.8092C105.559 75.462 105.6 76.1256 105.6 76.8C105.6 85.8708 98.2464 93.2244 89.1756 93.2244C80.1048 93.2244 72.7512 85.8708 72.7512 76.8C72.7512 67.7292 80.1048 60.3756 89.1756 60.3756C95.4732 60.3756 100.943 63.9204 103.699 69.1224" stroke="#1F1F28" stroke-miterlimit="10"/>
<path d="M146.411 98.9472C146.411 103.207 142.957 106.661 138.697 106.661C134.437 106.661 130.982 103.207 130.982 98.9472C130.982 94.6872 134.436 91.2324 138.697 91.2324C142.957 91.2336 146.411 94.6872 146.411 98.9472Z" stroke="#1F1F28" stroke-miterlimit="10"/>
<path d="M146.512 150.991C150.92 152.142 154.958 154.213 158.405 156.988" stroke="#1F1F28" stroke-miterlimit="10"/>
<path d="M116.947 205.314C110.586 199.49 106.596 191.118 106.596 181.813C106.596 164.221 120.857 149.96 138.449 149.96C139.066 149.96 139.678 149.978 140.285 150.012" stroke="#1F1F28" stroke-miterlimit="10"/>
<path d="M386.4 556.8H577.2" stroke="#1F1F28" stroke-miterlimit="10"/>
<path d="M19.2 556.8H376.8" stroke="#1F1F28" stroke-miterlimit="10"/>
<path d="M474.634 50.9988H232.442V499.667H474.634V50.9988Z" fill="white"/>
<path d="M474.634 423.152H232.442V499.667H474.634V423.152Z" fill="#1E0582"/>
<path d="M481.906 139.274C483.558 139.274 484.897 137.935 484.897 136.283V106.366C484.897 104.713 483.558 103.374 481.906 103.374C481.714 103.374 481.526 103.396 481.344 103.43V47.472C481.344 36.8196 472.708 28.1832 462.055 28.1832H249.475C238.822 28.1832 230.186 36.8196 230.186 47.472V499.025C230.186 509.677 238.823 518.314 249.475 518.314H462.055C472.709 518.314 481.344 509.677 481.344 499.025V224.314C481.526 224.348 481.712 224.37 481.906 224.37C483.558 224.37 484.897 223.031 484.897 221.378V191.462C484.897 189.81 483.558 188.471 481.906 188.471C481.714 188.471 481.526 188.492 481.344 188.527V181.766C481.526 181.801 481.712 181.823 481.906 181.823C483.558 181.823 484.897 180.484 484.897 178.831V148.915C484.897 147.263 483.558 145.924 481.906 145.924C481.714 145.924 481.526 145.945 481.344 145.98V139.219C481.526 139.252 481.712 139.274 481.906 139.274ZM470.173 489.222H241.356V61.4676H470.174V489.222H470.173Z" fill="#1F1F28"/>
<path d="M462.389 65.9052H443.417V76.3092H462.389V65.9052Z" stroke="#1F1F28" stroke-width="0.8211" stroke-miterlimit="10" stroke-linecap="round" stroke-linejoin="round"/>
<path d="M458.213 65.9052H443.417V76.3092H458.213V65.9052Z" fill="#1F1F28" stroke="#1F1F28" stroke-width="0.7251" stroke-miterlimit="10" stroke-linecap="round" stroke-linejoin="round"/>
<path d="M465.022 68.8164H462.349V73.398H465.022V68.8164Z" fill="#1F1F28" stroke="#1F1F28" stroke-width="0.7251" stroke-miterlimit="10" stroke-linecap="round" stroke-linejoin="round"/>
<path d="M249.985 69.1332H246.508V75.096H249.985V69.1332Z" fill="#1F1F28" stroke="#1F1F28" stroke-width="0.8831" stroke-miterlimit="10" stroke-linecap="round" stroke-linejoin="round"/>
<path d="M255.452 67.0392H251.974V75.096H255.452V67.0392Z" fill="#1F1F28" stroke="#1F1F28" stroke-width="0.8831" stroke-miterlimit="10" stroke-linecap="round" stroke-linejoin="round"/>
<path d="M260.918 64.5648H257.44V75.096H260.918V64.5648Z" fill="#1F1F28" stroke="#1F1F28" stroke-width="0.8831" stroke-miterlimit="10" stroke-linecap="round" stroke-linejoin="round"/>
<path d="M464.773 82.0956H245.045V139.838H464.773V82.0956Z" fill="#3D0FF5"/>
<path d="M300.572 90.408V132.808" stroke="white" stroke-miterlimit="10"/>
<path d="M356.572 90.408V132.808" stroke="white" stroke-miterlimit="10"/>
<path d="M412.572 90.408V132.808" stroke="white" stroke-miterlimit="10"/>
<path opacity="0.15" d="M479.362 224.314C479.544 224.348 479.731 224.37 479.923 224.37C481.576 224.37 482.915 223.031 482.915 221.378V210.659L468.192 236.622V489.222H324.948L308.452 518.314H460.073C470.725 518.314 479.362 509.677 479.362 499.025V224.314Z" fill="white"/>
<path d="M346.472 338.918C346.472 334.327 346.472 329.736 346.471 325.144L346.454 325.159C348.737 325.159 351.019 325.159 353.302 325.159C353.302 322.819 353.302 320.561 353.302 318.263C350.992 318.263 348.724 318.263 346.454 318.263L346.471 318.278C346.465 315.98 346.459 313.682 346.452 311.384C351.028 311.384 355.604 311.384 360.244 311.384C360.244 309.059 360.244 306.798 360.244 304.538C362.552 304.538 364.799 304.538 367.108 304.538C367.108 306.826 367.108 309.085 367.108 311.35C369.431 311.35 371.69 311.35 373.992 311.35C373.992 306.748 373.992 302.185 373.992 297.623L373.975 297.64C374.266 297.636 374.557 297.63 374.848 297.63C381.442 297.626 388.034 297.623 394.628 297.62C394.628 299.903 394.628 302.185 394.628 304.471C396.95 304.471 399.209 304.471 401.459 304.471C401.459 302.174 401.459 299.916 401.459 297.637C399.148 297.637 396.88 297.637 394.612 297.637C394.612 295.352 394.612 293.069 394.612 290.722C389.989 290.722 385.436 290.722 380.84 290.722C380.84 286.118 380.84 281.579 380.84 277.03C373.951 277.03 367.105 277.03 360.196 277.03C360.196 279.329 360.196 281.59 360.196 283.891C355.592 283.891 351.053 283.891 346.501 283.891C346.501 288.487 346.501 293.04 346.501 297.658C348.8 297.658 351.061 297.658 353.31 297.658C353.31 299.969 353.31 302.215 353.31 304.525C351.018 304.525 348.757 304.525 346.469 304.525C346.469 306.86 346.469 309.131 346.469 311.401C344.198 311.401 341.929 311.401 339.595 311.401C339.595 309.095 339.595 306.835 339.595 304.514C332.687 304.514 325.842 304.514 318.97 304.514C318.97 302.207 318.97 299.962 318.97 297.654C325.816 297.654 332.662 297.654 339.562 297.654C339.562 279.284 339.562 260.977 339.562 242.602C341.9 242.602 344.184 242.602 346.469 242.602L346.452 242.585C346.456 249.209 346.458 255.833 346.462 262.456C346.462 262.687 346.462 262.918 346.462 263.189C348.752 263.189 351.012 263.189 353.334 263.189C353.334 258.634 353.334 254.081 353.334 249.499C355.642 249.499 357.888 249.499 360.196 249.499C360.196 254.047 360.196 258.6 360.196 263.24C362.54 263.24 364.824 263.24 367.108 263.24L367.091 263.224C367.091 265.494 367.091 267.764 367.091 270.096C378.571 270.096 390.004 270.096 401.478 270.096C401.478 272.404 401.478 274.65 401.478 276.961C403.781 276.961 406.042 276.961 408.371 276.961C408.371 279.308 408.371 281.593 408.371 283.878L408.388 283.862C406.105 283.862 403.823 283.862 401.54 283.862C401.54 286.202 401.54 288.461 401.54 290.759C403.85 290.759 406.118 290.759 408.388 290.759L408.371 290.743C408.371 295.306 408.371 299.869 408.371 304.52C410.699 304.52 412.982 304.52 415.266 304.52L415.249 304.504C415.249 309.064 415.249 313.624 415.249 318.245C412.974 318.245 410.716 318.245 408.418 318.245C408.418 322.855 408.418 327.406 408.418 332.04C410.7 332.04 412.982 332.04 415.266 332.04L415.249 332.023C415.249 334.294 415.249 336.564 415.249 338.897C419.85 338.897 424.404 338.897 428.988 338.897C428.988 341.207 428.988 343.453 428.988 345.762C422.149 345.762 415.303 345.762 408.394 345.762C408.394 350.377 408.394 354.931 408.394 359.516C406.084 359.516 403.837 359.516 401.527 359.516C401.527 357.268 401.527 355.007 401.527 352.658C396.887 352.658 392.31 352.658 387.732 352.658L387.749 352.675C387.749 350.405 387.749 348.134 387.749 345.8C385.441 345.8 383.18 345.8 380.89 345.8C380.89 343.49 380.89 341.244 380.89 338.934C385.436 338.934 389.99 338.934 394.582 338.934C394.582 336.611 394.582 334.351 394.582 332.059C383.148 332.059 371.73 332.059 360.248 332.059C360.248 334.309 360.248 336.57 360.248 338.898C355.608 338.898 351.03 338.898 346.453 338.898L346.472 338.918ZM387.736 318.282C387.736 316 387.736 313.717 387.736 311.431C385.414 311.431 383.156 311.431 380.905 311.431C380.905 313.728 380.905 315.986 380.905 318.265C383.216 318.265 385.484 318.265 387.752 318.265C387.752 320.548 387.752 322.83 387.752 325.114C392.366 325.114 396.916 325.114 401.459 325.114C401.459 322.816 401.459 320.557 401.459 318.282C396.856 318.282 392.296 318.282 387.736 318.282ZM373.956 318.314C371.65 318.314 369.39 318.314 367.148 318.314C367.148 320.615 367.148 322.874 367.148 325.121C369.44 325.121 371.686 325.121 373.956 325.121C373.956 322.844 373.956 320.599 373.956 318.314ZM387.768 283.83C390.074 283.83 392.333 283.83 394.576 283.83C394.576 281.53 394.576 279.27 394.576 277.024C392.284 277.024 390.038 277.024 387.768 277.024C387.768 279.3 387.768 281.545 387.768 283.83Z" fill="#1F1F28"/>
<path d="M284.568 263.191C284.568 247.145 284.568 231.139 284.568 215.104C300.599 215.104 316.604 215.104 332.656 215.104C332.656 231.113 332.656 247.132 332.656 263.191C316.652 263.191 300.634 263.191 284.568 263.191ZM291.463 221.978C291.463 233.455 291.463 244.888 291.463 256.306C302.936 256.306 314.369 256.306 325.79 256.306C325.79 244.841 325.79 233.423 325.79 221.978C314.342 221.978 302.924 221.978 291.463 221.978Z" fill="#1F1F28"/>
<path d="M428.98 263.207C412.936 263.207 396.93 263.207 380.893 263.207C380.893 247.177 380.893 231.172 380.893 215.119C396.9 215.119 412.919 215.119 428.98 215.119C428.98 231.121 428.98 247.14 428.98 263.207ZM422.117 221.994C410.638 221.994 399.205 221.994 387.79 221.994C387.79 233.467 387.79 244.9 387.79 256.32C399.254 256.32 410.674 256.32 422.117 256.32C422.117 244.871 422.117 233.453 422.117 221.994Z" fill="#1F1F28"/>
<path d="M284.584 311.418C300.63 311.418 316.636 311.418 332.671 311.418C332.671 327.449 332.671 343.454 332.671 359.506C316.663 359.506 300.644 359.506 284.584 359.506C284.584 343.502 284.584 327.484 284.584 311.418ZM325.795 318.313C314.318 318.313 302.886 318.313 291.468 318.313C291.468 329.786 291.468 341.218 291.468 352.642C302.932 352.642 314.351 352.642 325.795 352.642C325.795 341.192 325.795 329.774 325.795 318.313Z" fill="#1F1F28"/>
<path d="M346.469 242.603C346.469 238.039 346.469 233.474 346.469 228.846C344.166 228.846 341.905 228.846 339.613 228.846C339.613 224.242 339.613 219.702 339.613 215.117C351.04 215.117 362.473 215.117 373.944 215.117C373.944 219.664 373.944 224.218 373.944 228.815C371.683 228.815 369.437 228.815 367.146 228.815C367.146 231.119 367.146 233.378 367.146 235.704C369.403 235.704 371.664 235.704 373.954 235.704C373.954 240.308 373.954 244.848 373.954 249.431C371.693 249.431 369.433 249.431 367.108 249.431C367.108 247.17 367.108 244.908 367.108 242.605C364.796 242.605 362.55 242.605 360.239 242.605C360.239 240.301 360.239 238.04 360.239 235.747C357.929 235.747 355.681 235.747 353.37 235.747C353.37 237.995 353.37 240.256 353.37 242.587C351.022 242.587 348.737 242.587 346.452 242.587L346.469 242.603ZM353.369 228.792C355.673 228.792 357.931 228.792 360.176 228.792C360.176 226.492 360.176 224.233 360.176 221.984C357.886 221.984 355.64 221.984 353.369 221.984C353.369 224.258 353.369 226.504 353.369 228.792Z" fill="#1F1F28"/>
<path d="M318.932 276.986C318.932 279.257 318.932 281.527 318.932 283.861C323.533 283.861 328.087 283.861 332.671 283.861C332.671 286.171 332.671 288.418 332.671 290.728C325.831 290.728 318.985 290.728 312.074 290.728C312.074 295.344 312.074 299.898 312.074 304.482C302.885 304.482 293.76 304.482 284.587 304.482C284.587 299.939 284.587 295.385 284.587 290.792C286.836 290.792 289.096 290.792 291.4 290.792C291.4 293.048 291.4 295.295 291.4 297.587C295.996 297.587 300.55 297.587 305.191 297.587C305.191 290.726 305.191 283.856 305.191 276.986L305.174 277.003C309.766 277.003 314.357 277.003 318.948 277.003L318.932 276.986Z" fill="#1F1F28"/>
<path d="M346.456 338.902C346.456 341.172 346.456 343.444 346.456 345.778C348.758 345.778 351.019 345.778 353.323 345.778C353.323 348.088 353.323 350.335 353.323 352.645C355.626 352.645 357.887 352.645 360.185 352.645C360.185 354.97 360.185 357.229 360.185 359.521C353.338 359.521 346.505 359.521 339.628 359.521C339.628 352.682 339.628 345.835 339.628 338.918C341.903 338.918 344.188 338.918 346.472 338.918L346.456 338.902Z" fill="#1F1F28"/>
<path d="M305.192 276.985C300.63 276.985 296.066 276.985 291.44 276.985C291.44 279.284 291.44 281.545 291.44 283.838C289.132 283.838 286.885 283.838 284.591 283.838C284.591 279.302 284.591 274.75 284.591 270.155C291.416 270.155 298.261 270.155 305.177 270.155C305.177 272.434 305.177 274.717 305.177 277.002L305.192 276.985Z" fill="#1F1F28"/>
<path d="M428.98 290.724C426.691 290.724 424.445 290.724 422.155 290.724C422.155 286.157 422.155 281.617 422.155 277.013C419.852 277.013 417.592 277.013 415.296 277.013C415.296 274.688 415.296 272.429 415.296 270.139C419.857 270.139 424.397 270.139 428.978 270.139C428.98 276.988 428.98 283.835 428.98 290.724Z" fill="#1F1F28"/>
<path d="M318.949 277.002C318.949 274.733 318.949 272.464 318.949 270.152C323.524 270.152 328.074 270.152 332.664 270.152C332.664 272.406 332.664 274.664 332.664 276.985C328.082 276.985 323.508 276.985 318.934 276.985L318.949 277.002Z" fill="#1F1F28"/>
<path d="M415.268 304.522C415.268 302.254 415.268 299.984 415.268 297.674C417.547 297.674 419.806 297.674 422.102 297.674C422.102 299.926 422.102 302.184 422.102 304.506C419.816 304.506 417.534 304.506 415.252 304.506L415.268 304.522Z" fill="#1F1F28"/>
<path d="M422.173 311.418C424.448 311.418 426.694 311.418 428.981 311.418C428.981 313.681 428.981 315.94 428.981 318.235C426.722 318.235 424.464 318.235 422.173 318.235C422.173 315.977 422.173 313.732 422.173 311.418Z" fill="#1F1F28"/>
<path d="M367.109 263.243C367.109 260.975 367.109 258.706 367.109 256.396C369.389 256.396 371.646 256.396 373.943 256.396C373.943 258.647 373.943 260.905 373.943 263.227C371.657 263.227 369.374 263.227 367.092 263.227L367.109 263.243Z" fill="#1F1F28"/>
<path d="M346.471 325.144C344.202 325.144 341.933 325.144 339.623 325.144C339.623 322.862 339.623 320.603 339.623 318.28C341.905 318.28 344.188 318.28 346.471 318.28L346.454 318.264C346.454 320.563 346.454 322.861 346.454 325.16L346.471 325.144Z" fill="#1F1F28"/>
<path d="M415.268 332.042C415.268 329.774 415.268 327.505 415.268 325.194C417.547 325.194 419.806 325.194 422.102 325.194C422.102 327.445 422.102 329.704 422.102 332.026C419.816 332.026 417.534 332.026 415.252 332.026L415.268 332.042Z" fill="#1F1F28"/>
<path d="M408.373 283.88C410.642 283.88 412.912 283.88 415.222 283.88C415.222 286.163 415.222 288.421 415.222 290.744C412.939 290.744 410.657 290.744 408.373 290.744L408.39 290.76C408.39 288.461 408.39 286.163 408.39 283.864L408.373 283.88Z" fill="#1F1F28"/>
<path d="M373.942 352.646C371.653 352.646 369.408 352.646 367.133 352.646C367.133 350.375 367.133 348.13 367.133 345.839C369.382 345.839 371.641 345.839 373.942 345.839C373.942 348.083 373.942 350.341 373.942 352.646Z" fill="#1F1F28"/>
<path d="M387.736 352.662C387.736 354.93 387.736 357.199 387.736 359.51C385.457 359.51 383.198 359.51 380.902 359.51C380.902 357.259 380.902 355.001 380.902 352.679C383.188 352.679 385.47 352.679 387.752 352.679L387.736 352.662Z" fill="#1F1F28"/>
<path d="M428.981 359.527C426.696 359.527 424.451 359.527 422.174 359.527C422.174 357.257 422.174 355.012 422.174 352.72C424.421 352.72 426.68 352.72 428.981 352.72C428.981 354.96 428.981 357.22 428.981 359.527Z" fill="#1F1F28"/>
<path d="M373.992 297.625C371.724 297.625 369.455 297.625 367.145 297.625C367.145 295.345 367.145 293.088 367.145 290.791C369.396 290.791 371.654 290.791 373.976 290.791C373.976 293.077 373.976 295.36 373.976 297.642L373.992 297.625Z" fill="#1F1F28"/>
<path d="M318.902 249.446C312.028 249.446 305.195 249.446 298.333 249.446C298.333 242.588 298.333 235.756 298.333 228.878C305.171 228.878 312.016 228.878 318.902 228.878C318.902 235.71 318.902 242.556 318.902 249.446Z" fill="#1F1F28"/>
<path d="M394.648 249.431C394.648 242.557 394.648 235.726 394.648 228.863C401.506 228.863 408.337 228.863 415.216 228.863C415.216 235.698 415.216 242.544 415.216 249.431C408.385 249.431 401.54 249.431 394.648 249.431Z" fill="#1F1F28"/>
<path d="M298.328 345.751C298.328 338.878 298.328 332.046 298.328 325.183C305.186 325.183 312.018 325.183 318.896 325.183C318.896 332.02 318.896 338.864 318.896 345.751C312.066 345.751 305.22 345.751 298.328 345.751Z" fill="#1F1F28"/>
<path d="M304.544 198.804H274.434V232.03" stroke="#3D0FF5" stroke-width="2" stroke-miterlimit="10"/>
<path d="M414.083 198.804H444.193V232.03" stroke="#3D0FF5" stroke-width="2" stroke-miterlimit="10"/>
<path d="M304.544 373.789H274.434V340.565" stroke="#3D0FF5" stroke-width="2" stroke-miterlimit="10"/>
<path d="M414.083 373.789H444.193V340.565" stroke="#3D0FF5" stroke-width="2" stroke-miterlimit="10"/>
<path d="M212.899 240.4H202.9C201.132 240.4 199.699 238.967 199.699 237.199V209.2C199.699 207.432 201.132 205.999 202.9 205.999H212.899C214.667 205.999 216.1 207.432 216.1 209.2V237.199C216.1 238.967 214.667 240.4 212.899 240.4Z" fill="#1F1F28" stroke="#1F1F28" stroke-miterlimit="10"/>
<path d="M214.65 209.04H201.149V237.36H214.65V209.04Z" fill="white" stroke="#1F1F28" stroke-miterlimit="10"/>
<path d="M69.1968 374.61C74.7384 374.73 79.6116 372.554 82.7832 370.652C82.5216 378.307 82.32 384.104 82.32 384.104C82.32 384.104 83.64 386.414 84.3 387.404C84.96 388.394 90.5688 391.694 91.2288 394.663C91.8888 397.633 94.8588 399.283 94.5288 403.572C94.1988 407.862 90.5688 403.242 91.2288 404.232C91.8888 405.222 93.8688 408.522 93.8688 411.491C93.8688 414.46 87.6 414.461 85.29 412.481C82.98 410.501 75.3912 405.882 74.7312 401.592L72.1608 392.02L69.1968 374.61Z" fill="white" stroke="#1F1F28" stroke-miterlimit="10"/>
<path d="M82.8996 398.4L84.4992 405.6C84.4992 405.6 89.6988 409.6 90.0996 412.4" fill="white"/>
<path d="M82.8996 398.4L84.4992 405.6C84.4992 405.6 89.6988 409.6 90.0996 412.4" stroke="#1F1F28" stroke-miterlimit="10"/>
<path d="M91.2288 404.232L88.8996 399.6" stroke="#1F1F28" stroke-miterlimit="10"/>
<path d="M108.826 550.529C108.826 550.529 106.948 565.969 108.408 567.847C109.868 569.725 112.164 572.021 115.502 572.437C118.841 572.855 124.475 570.977 124.475 570.977C124.475 570.977 130.109 572.646 136.159 572.02C142.21 571.393 146.174 569.099 146.592 566.177C147.01 563.256 141.793 562.003 138.872 558.874C135.952 555.744 131.299 550.199 131.299 550.199L130.109 546.145C130.109 546.145 123.014 549.692 118.424 549.901C113.834 550.11 110.705 549.275 110.705 549.275L108.826 550.529Z" fill="white" stroke="#1F1F28" stroke-miterlimit="10"/>
<path d="M146.592 566.178C146.644 565.814 146.609 565.476 146.501 565.157C145.114 565.727 143.347 566.423 141.168 567.222C134.909 569.518 131.778 567.64 128.648 567.64C125.519 567.64 125.31 570.978 116.546 568.682C110.821 567.182 108.667 565.243 107.856 564.076C107.873 565.918 108.025 567.354 108.409 567.848C109.87 569.726 112.165 572.022 115.504 572.438C118.842 572.856 124.476 570.978 124.476 570.978C124.476 570.978 130.11 572.647 136.16 572.021C142.211 571.394 146.174 569.099 146.592 566.178Z" fill="white" stroke="#1F1F28" stroke-miterlimit="10"/>
<path d="M97.6992 358.8C97.6992 358.8 89.2992 387 92.2992 406.8C95.2992 426.6 109.699 463.8 109.699 463.8C109.699 463.8 107.899 477.6 107.899 482.4C107.899 487.2 103.699 496.2 106.699 505.8C109.699 515.4 109.699 540.6 109.699 542.4C109.699 544.2 108.499 553.8 108.499 553.8C108.499 553.8 110.899 557.4 119.899 557.4C128.899 557.4 131.299 550.2 131.299 550.2C131.299 550.2 140.299 496.8 140.299 488.4C140.299 480 149.899 448.8 153.499 436.2C157.099 423.6 161.488 415.578 163.888 411.378C166.288 407.178 164.899 356.4 164.899 356.4L96.4992 350.4L97.6992 358.8Z" fill="#1E0582" stroke="#1F1F28" stroke-miterlimit="10"/>
<path d="M144.923 554.494C144.923 554.494 153.895 558.041 158.276 560.128C162.658 562.214 165.58 562.423 165.58 565.762C165.58 569.1 157.651 572.438 152.852 573.272C148.054 574.106 140.333 573.899 139.499 574.106C138.664 574.315 123.016 576.611 121.138 572.646C119.26 568.681 121.346 555.119 121.346 555.119C121.346 555.119 132.196 557.414 144.923 554.494Z" fill="white" stroke="#1F1F28" stroke-miterlimit="10"/>
<path d="M139.498 574.106C140.332 573.898 148.052 574.106 152.851 573.272C157.65 572.438 165.578 569.099 165.578 565.76C165.578 565.266 165.508 564.847 165.384 564.474C163.739 565.434 161.597 566.573 159.11 567.638C153.268 570.142 145.548 571.812 133.864 571.603C127.526 571.49 123.168 570.641 120.493 569.887C120.613 571.009 120.816 571.969 121.136 572.646C123.014 576.611 138.664 574.315 139.498 574.106Z" fill="white" stroke="#1F1F28" stroke-miterlimit="10"/>
<path d="M165.499 361.2C165.499 361.2 169.099 409.8 161.899 446.4C154.699 483 142.699 532.8 142.099 535.2C141.499 537.6 146.299 544.2 146.299 544.2V553.8C146.299 553.8 142.099 558 132.499 559.2C122.899 560.4 119.899 557.4 119.899 557.4C119.899 557.4 117.499 541.2 117.499 529.8C117.499 518.4 119.899 479.4 119.899 479.4C119.899 479.4 125.299 439.8 124.699 433.8C124.099 427.8 122.299 409.2 122.299 409.2L112.699 397.8" fill="#1E0582"/>
<path d="M165.499 361.2C165.499 361.2 169.099 409.8 161.899 446.4C154.699 483 142.699 532.8 142.099 535.2C141.499 537.6 146.299 544.2 146.299 544.2V553.8C146.299 553.8 142.099 558 132.499 559.2C122.899 560.4 119.899 557.4 119.899 557.4C119.899 557.4 117.499 541.2 117.499 529.8C117.499 518.4 119.899 479.4 119.899 479.4C119.899 479.4 125.299 439.8 124.699 433.8C124.099 427.8 122.299 409.2 122.299 409.2L112.699 397.8" stroke="#1F1F28" stroke-miterlimit="10"/>
<path d="M64.6488 352.061L83.5224 348.745C83.4384 351.304 83.97 335.154 83.97 333.95C83.97 331.31 90.2388 314.813 90.2388 314.813C90.2388 314.813 95.1876 336.26 95.1876 338.9C95.1876 341.54 93.2076 361.668 95.8476 364.307C98.4876 366.947 107.726 372.226 128.184 371.566C148.642 370.906 163.819 369.256 167.779 365.297C171.739 361.338 167.119 349.129 166.789 347.479C166.459 345.829 172.069 302.604 172.069 302.604C172.069 302.604 194.177 325.702 207.374 322.402C220.573 319.102 214.303 267.629 214.303 267.629L214.963 252.78C214.963 252.78 219.253 241.891 219.253 240.241C219.253 238.591 214.963 226.712 214.963 226.712C214.963 226.712 212.323 224.402 210.673 230.012C209.023 235.621 208.693 239.251 208.693 239.251C208.693 239.251 204.733 242.221 205.063 246.51C205.393 250.8 206.713 254.099 206.713 254.099L197.804 283.135C197.804 283.135 187.906 271.916 187.246 269.936C186.586 267.956 186.916 260.698 178.667 256.408C170.418 252.119 153.59 251.789 153.59 251.789L107.066 252.119C107.066 252.119 85.2888 254.099 80.34 258.388C75.39 262.678 60.2124 317.12 60.2124 325.369C60.2124 327.947 61.5648 335.933 63.4452 345.828L64.6488 352.061Z" fill="white" stroke="#1F1F28" stroke-miterlimit="10"/>
<path d="M214.964 226.712C214.964 226.712 213.974 234.961 214.634 236.611C215.294 238.261 215.954 242.22 215.294 245.52" stroke="#1F1F28" stroke-miterlimit="10"/>
<path d="M207.376 322.402C220.574 319.102 214.304 267.629 214.304 267.629L214.452 264.296C210.698 261.592 207.02 261.566 204.208 262.273L197.806 283.138C197.806 283.138 187.907 271.919 187.247 269.939C186.587 267.959 186.917 260.7 178.668 256.41C170.419 252.121 153.592 251.791 153.592 251.791L107.068 252.121C107.068 252.121 85.29 254.101 80.3412 258.39C75.3912 262.68 60.2136 317.123 60.2136 325.372C60.2136 330.265 65.0916 354.672 69.1968 374.611C74.7384 374.731 79.6116 372.556 82.7832 370.654C83.2716 356.389 83.97 335.669 83.97 333.952C83.97 331.312 90.2388 314.814 90.2388 314.814C90.2388 314.814 95.1876 336.262 95.1876 338.902C95.1876 341.542 93.2076 361.669 95.8476 364.308C98.4876 366.948 107.726 372.227 128.184 371.567C148.642 370.907 163.819 369.257 167.779 365.298C171.739 361.339 167.119 349.13 166.789 347.48C166.459 345.83 172.069 302.605 172.069 302.605C172.069 302.605 194.177 325.702 207.376 322.402Z" fill="#3D0FF5" stroke="#1F1F28" stroke-miterlimit="10"/>
<path d="M83.7564 296.646L90.24 314.813L76.8996 292" stroke="#1F1F28" stroke-miterlimit="10"/>
<path d="M80.0988 286.4L82.3908 292.823" stroke="#1F1F28" stroke-miterlimit="10"/>
<path d="M125.798 297.94C128.718 304.494 133.016 312.706 138.1 318" stroke="#1F1F28" stroke-miterlimit="10"/>
<path d="M121.699 287.6C121.699 287.6 122.6 290.304 124.21 294.226" stroke="#1F1F28" stroke-miterlimit="10"/>
<path d="M128.899 309.6C128.899 309.6 136.099 324 139.699 326.8" stroke="#1F1F28" stroke-miterlimit="10"/>
<path d="M183.36 292.139L186.1 289.6" stroke="#1F1F28" stroke-miterlimit="10"/>
<path d="M178.9 288.4L172.069 302.604L180.878 294.439" stroke="#1F1F28" stroke-miterlimit="10"/>
<path d="M210.1 296.4C209.7 293.6 197.807 283.136 197.807 283.136C197.807 283.136 210.1 288 213.299 292.4" stroke="#1F1F28" stroke-miterlimit="10"/>
<path d="M158.212 208.565C158.212 208.565 158.872 216.814 159.862 218.134C160.852 219.454 161.512 229.682 159.862 232.651C158.212 235.62 157.222 239.25 156.232 240.24C155.242 241.23 151.612 241.23 150.293 241.23C148.973 241.23 134.125 240.57 134.125 240.57L134.455 219.782C134.455 219.782 138.084 204.276 158.212 208.565Z" fill="white" stroke="#1F1F28" stroke-miterlimit="10"/>
<path d="M131.814 185.468C131.814 185.468 118.285 189.758 115.316 201.636C112.346 213.515 121.915 227.042 121.915 227.042C121.915 227.042 124.555 236.611 126.864 238.591C129.174 240.571 138.413 238.591 141.383 237.931C144.353 237.271 150.952 219.454 150.952 219.454C150.952 219.454 150.952 223.744 152.932 223.744C154.912 223.744 154.582 218.135 154.582 217.145C154.582 216.155 163.82 209.226 163.82 197.347C163.82 185.468 153.592 180.19 144.023 180.85C134.454 181.508 131.814 185.468 131.814 185.468Z" fill="#1F1F28" stroke="#1F1F28" stroke-miterlimit="10"/>
<path d="M159.86 251.13C159.86 251.13 157.88 244.201 156.89 243.211C155.9 242.221 149.632 238.262 139.403 237.602C129.174 236.942 113.996 237.272 112.676 237.932C111.356 238.592 111.026 244.201 111.026 244.201C111.026 244.201 106.736 248.161 105.748 250.47C104.758 252.78 103.768 253.77 113.006 261.359C122.245 268.948 127.195 271.918 136.764 269.608C146.333 267.298 160.192 253.44 160.192 253.44L159.86 251.13Z" fill="#3D0FF5" stroke="#1F1F28" stroke-miterlimit="10"/>
<path d="M136.259 255.8C145.446 252.924 154.912 247.17 154.912 247.17" stroke="#1F1F28" stroke-miterlimit="10"/>
<path d="M111.026 245.52C111.026 245.52 116.965 257.399 127.524 257.399C128.86 257.399 130.296 257.236 131.786 256.949" stroke="#1F1F28" stroke-miterlimit="10"/>
</svg>
