<svg width="600" height="600" viewBox="0 0 601 600" fill="none" xmlns="http://www.w3.org/2000/svg">
<g clip-path="url(#clip0_327_1533)">
<path d="M395.802 556.8L600.963 556.8" stroke="#1F1F28" stroke-miterlimit="10"/>
<path d="M0.96344 556.8L385.48 556.8" stroke="#1F1F28" stroke-miterlimit="10"/>
<path d="M545.411 60.8868H303.219V509.555H545.411V60.8868Z" fill="white"/>
<path d="M545.411 433.04H303.219V509.555H545.411V433.04Z" fill="#0C2A69"/>
<path d="M552.683 149.162C554.335 149.162 555.674 147.823 555.674 146.171V116.254C555.674 114.601 554.335 113.262 552.683 113.262C552.491 113.262 552.303 113.284 552.121 113.318V57.36C552.121 46.7076 543.485 38.0712 532.832 38.0712H320.252C309.599 38.0712 300.963 46.7076 300.963 57.36V508.913C300.963 519.565 309.6 528.202 320.252 528.202H532.832C543.486 528.202 552.121 519.565 552.121 508.913V234.202C552.303 234.236 552.489 234.258 552.683 234.258C554.335 234.258 555.674 232.919 555.674 231.266V201.35C555.674 199.698 554.335 198.359 552.683 198.359C552.491 198.359 552.303 198.38 552.121 198.415V191.654C552.303 191.689 552.489 191.711 552.683 191.711C554.335 191.711 555.674 190.372 555.674 188.719V158.803C555.674 157.151 554.335 155.812 552.683 155.812C552.491 155.812 552.303 155.833 552.121 155.868V149.107C552.303 149.14 552.489 149.162 552.683 149.162ZM540.95 499.11H312.133V71.3556H540.951V499.11H540.95Z" fill="#1F1F28"/>
<path d="M533.166 75.7932H514.194V86.1972H533.166V75.7932Z" stroke="#1F1F28" stroke-width="0.8211" stroke-miterlimit="10" stroke-linecap="round" stroke-linejoin="round"/>
<path d="M528.99 75.7932H514.194V86.1972H528.99V75.7932Z" fill="#1F1F28" stroke="#1F1F28" stroke-width="0.7251" stroke-miterlimit="10" stroke-linecap="round" stroke-linejoin="round"/>
<path d="M535.799 78.7044H533.126V83.286H535.799V78.7044Z" fill="#1F1F28" stroke="#1F1F28" stroke-width="0.7251" stroke-miterlimit="10" stroke-linecap="round" stroke-linejoin="round"/>
<path d="M320.762 79.0212H317.285V84.984H320.762V79.0212Z" fill="#1F1F28" stroke="#1F1F28" stroke-width="0.8831" stroke-miterlimit="10" stroke-linecap="round" stroke-linejoin="round"/>
<path d="M326.229 76.9272H322.751V84.984H326.229V76.9272Z" fill="#1F1F28" stroke="#1F1F28" stroke-width="0.8831" stroke-miterlimit="10" stroke-linecap="round" stroke-linejoin="round"/>
<path d="M331.695 74.4528H328.217V84.984H331.695V74.4528Z" fill="#1F1F28" stroke="#1F1F28" stroke-width="0.8831" stroke-miterlimit="10" stroke-linecap="round" stroke-linejoin="round"/>
<path d="M535.55 91.9836H315.822V149.726H535.55V91.9836Z" fill="#2563EB"/>
<path d="M371.349 100.296V142.696" stroke="white" stroke-miterlimit="10"/>
<path d="M427.349 100.296V142.696" stroke="white" stroke-miterlimit="10"/>
<path d="M483.349 100.296V142.696" stroke="white" stroke-miterlimit="10"/>
<path opacity="0.15" d="M550.139 234.202C550.321 234.236 550.508 234.258 550.7 234.258C552.353 234.258 553.692 232.919 553.692 231.266V220.547L538.969 246.51V499.11H395.725L379.229 528.202H530.85C541.502 528.202 550.139 519.565 550.139 508.913V234.202Z" fill="white"/>
<path d="M417.249 348.806C417.249 344.215 417.249 339.624 417.248 335.032L417.231 335.047C419.514 335.047 421.796 335.047 424.079 335.047C424.079 332.707 424.079 330.449 424.079 328.151C421.769 328.151 419.501 328.151 417.231 328.151L417.248 328.166C417.242 325.868 417.236 323.57 417.229 321.272C421.805 321.272 426.381 321.272 431.021 321.272C431.021 318.947 431.021 316.686 431.021 314.426C433.329 314.426 435.576 314.426 437.885 314.426C437.885 316.714 437.885 318.973 437.885 321.238C440.208 321.238 442.467 321.238 444.769 321.238C444.769 316.636 444.769 312.073 444.769 307.511L444.752 307.528C445.043 307.524 445.334 307.518 445.625 307.518C452.219 307.514 458.811 307.511 465.405 307.508C465.405 309.791 465.405 312.073 465.405 314.359C467.727 314.359 469.986 314.359 472.236 314.359C472.236 312.062 472.236 309.804 472.236 307.525C469.925 307.525 467.657 307.525 465.389 307.525C465.389 305.24 465.389 302.957 465.389 300.61C460.766 300.61 456.213 300.61 451.617 300.61C451.617 296.006 451.617 291.467 451.617 286.918C444.728 286.918 437.882 286.918 430.973 286.918C430.973 289.217 430.973 291.478 430.973 293.779C426.369 293.779 421.83 293.779 417.278 293.779C417.278 298.375 417.278 302.928 417.278 307.546C419.577 307.546 421.838 307.546 424.087 307.546C424.087 309.857 424.087 312.103 424.087 314.413C421.795 314.413 419.534 314.413 417.246 314.413C417.246 316.748 417.246 319.019 417.246 321.289C414.975 321.289 412.706 321.289 410.372 321.289C410.372 318.983 410.372 316.723 410.372 314.402C403.464 314.402 396.619 314.402 389.747 314.402C389.747 312.095 389.747 309.85 389.747 307.542C396.593 307.542 403.439 307.542 410.339 307.542C410.339 289.172 410.339 270.865 410.339 252.49C412.677 252.49 414.961 252.49 417.246 252.49L417.229 252.473C417.233 259.097 417.235 265.721 417.239 272.344C417.239 272.575 417.239 272.806 417.239 273.077C419.529 273.077 421.789 273.077 424.111 273.077C424.111 268.522 424.111 263.969 424.111 259.387C426.419 259.387 428.665 259.387 430.973 259.387C430.973 263.935 430.973 268.488 430.973 273.128C433.317 273.128 435.601 273.128 437.885 273.128L437.868 273.112C437.868 275.382 437.868 277.652 437.868 279.984C449.348 279.984 460.781 279.984 472.255 279.984C472.255 282.292 472.255 284.538 472.255 286.849C474.558 286.849 476.819 286.849 479.148 286.849C479.148 289.196 479.148 291.481 479.148 293.766L479.165 293.75C476.882 293.75 474.6 293.75 472.317 293.75C472.317 296.09 472.317 298.349 472.317 300.647C474.627 300.647 476.895 300.647 479.165 300.647L479.148 300.631C479.148 305.194 479.148 309.757 479.148 314.408C481.476 314.408 483.759 314.408 486.043 314.408L486.026 314.392C486.026 318.952 486.026 323.512 486.026 328.133C483.751 328.133 481.493 328.133 479.195 328.133C479.195 332.743 479.195 337.294 479.195 341.928C481.477 341.928 483.759 341.928 486.043 341.928L486.026 341.911C486.026 344.182 486.026 346.452 486.026 348.785C490.627 348.785 495.181 348.785 499.765 348.785C499.765 351.095 499.765 353.341 499.765 355.65C492.926 355.65 486.08 355.65 479.171 355.65C479.171 360.265 479.171 364.819 479.171 369.404C476.861 369.404 474.614 369.404 472.304 369.404C472.304 367.156 472.304 364.895 472.304 362.546C467.664 362.546 463.087 362.546 458.509 362.546L458.526 362.563C458.526 360.293 458.526 358.022 458.526 355.688C456.218 355.688 453.957 355.688 451.667 355.688C451.667 353.378 451.667 351.132 451.667 348.822C456.213 348.822 460.767 348.822 465.359 348.822C465.359 346.499 465.359 344.239 465.359 341.947C453.925 341.947 442.507 341.947 431.025 341.947C431.025 344.197 431.025 346.458 431.025 348.786C426.385 348.786 421.807 348.786 417.23 348.786L417.249 348.806ZM458.513 328.17C458.513 325.888 458.513 323.605 458.513 321.319C456.191 321.319 453.933 321.319 451.682 321.319C451.682 323.616 451.682 325.874 451.682 328.153C453.993 328.153 456.261 328.153 458.529 328.153C458.529 330.436 458.529 332.718 458.529 335.002C463.143 335.002 467.693 335.002 472.236 335.002C472.236 332.704 472.236 330.445 472.236 328.17C467.633 328.17 463.073 328.17 458.513 328.17ZM444.733 328.202C442.427 328.202 440.167 328.202 437.925 328.202C437.925 330.503 437.925 332.762 437.925 335.009C440.217 335.009 442.463 335.009 444.733 335.009C444.733 332.732 444.733 330.487 444.733 328.202ZM458.545 293.718C460.851 293.718 463.11 293.718 465.353 293.718C465.353 291.418 465.353 289.158 465.353 286.912C463.061 286.912 460.815 286.912 458.545 286.912C458.545 289.188 458.545 291.433 458.545 293.718Z" fill="#1F1F28"/>
<path d="M355.345 273.079C355.345 257.033 355.345 241.027 355.345 224.992C371.376 224.992 387.381 224.992 403.433 224.992C403.433 241.001 403.433 257.02 403.433 273.079C387.429 273.079 371.411 273.079 355.345 273.079ZM362.24 231.866C362.24 243.343 362.24 254.776 362.24 266.194C373.713 266.194 385.146 266.194 396.567 266.194C396.567 254.729 396.567 243.311 396.567 231.866C385.119 231.866 373.701 231.866 362.24 231.866Z" fill="#1F1F28"/>
<path d="M499.757 273.095C483.713 273.095 467.707 273.095 451.67 273.095C451.67 257.065 451.67 241.06 451.67 225.007C467.677 225.007 483.696 225.007 499.757 225.007C499.757 241.009 499.757 257.028 499.757 273.095ZM492.894 231.882C481.415 231.882 469.982 231.882 458.567 231.882C458.567 243.355 458.567 254.788 458.567 266.208C470.031 266.208 481.451 266.208 492.894 266.208C492.894 254.759 492.894 243.341 492.894 231.882Z" fill="#1F1F28"/>
<path d="M355.361 321.306C371.407 321.306 387.413 321.306 403.448 321.306C403.448 337.337 403.448 353.342 403.448 369.394C387.44 369.394 371.421 369.394 355.361 369.394C355.361 353.39 355.361 337.372 355.361 321.306ZM396.572 328.201C385.095 328.201 373.663 328.201 362.245 328.201C362.245 339.674 362.245 351.106 362.245 362.53C373.709 362.53 385.128 362.53 396.572 362.53C396.572 351.08 396.572 339.662 396.572 328.201Z" fill="#1F1F28"/>
<path d="M417.246 252.491C417.246 247.927 417.246 243.362 417.246 238.734C414.943 238.734 412.682 238.734 410.39 238.734C410.39 234.13 410.39 229.59 410.39 225.005C421.817 225.005 433.25 225.005 444.721 225.005C444.721 229.552 444.721 234.106 444.721 238.703C442.46 238.703 440.214 238.703 437.923 238.703C437.923 241.007 437.923 243.266 437.923 245.592C440.18 245.592 442.441 245.592 444.731 245.592C444.731 250.196 444.731 254.736 444.731 259.319C442.47 259.319 440.21 259.319 437.885 259.319C437.885 257.058 437.885 254.796 437.885 252.493C435.573 252.493 433.327 252.493 431.016 252.493C431.016 250.189 431.016 247.928 431.016 245.635C428.706 245.635 426.458 245.635 424.147 245.635C424.147 247.883 424.147 250.144 424.147 252.475C421.799 252.475 419.514 252.475 417.229 252.475L417.246 252.491ZM424.146 238.68C426.45 238.68 428.708 238.68 430.953 238.68C430.953 236.38 430.953 234.121 430.953 231.872C428.663 231.872 426.417 231.872 424.146 231.872C424.146 234.146 424.146 236.392 424.146 238.68Z" fill="#1F1F28"/>
<path d="M389.709 286.874C389.709 289.145 389.709 291.415 389.709 293.749C394.31 293.749 398.864 293.749 403.448 293.749C403.448 296.059 403.448 298.306 403.448 300.616C396.608 300.616 389.762 300.616 382.851 300.616C382.851 305.232 382.851 309.786 382.851 314.37C373.662 314.37 364.537 314.37 355.364 314.37C355.364 309.827 355.364 305.273 355.364 300.68C357.613 300.68 359.873 300.68 362.177 300.68C362.177 302.936 362.177 305.183 362.177 307.475C366.773 307.475 371.327 307.475 375.968 307.475C375.968 300.614 375.968 293.744 375.968 286.874L375.951 286.891C380.543 286.891 385.134 286.891 389.725 286.891L389.709 286.874Z" fill="#1F1F28"/>
<path d="M417.233 348.79C417.233 351.06 417.233 353.332 417.233 355.666C419.535 355.666 421.796 355.666 424.1 355.666C424.1 357.976 424.1 360.223 424.1 362.533C426.403 362.533 428.664 362.533 430.962 362.533C430.962 364.858 430.962 367.117 430.962 369.409C424.115 369.409 417.282 369.409 410.405 369.409C410.405 362.57 410.405 355.723 410.405 348.806C412.68 348.806 414.965 348.806 417.249 348.806L417.233 348.79Z" fill="#1F1F28"/>
<path d="M375.969 286.873C371.407 286.873 366.843 286.873 362.217 286.873C362.217 289.172 362.217 291.433 362.217 293.726C359.909 293.726 357.662 293.726 355.368 293.726C355.368 289.19 355.368 284.638 355.368 280.043C362.193 280.043 369.038 280.043 375.954 280.043C375.954 282.322 375.954 284.605 375.954 286.89L375.969 286.873Z" fill="#1F1F28"/>
<path d="M499.757 300.612C497.468 300.612 495.222 300.612 492.932 300.612C492.932 296.045 492.932 291.505 492.932 286.901C490.629 286.901 488.369 286.901 486.073 286.901C486.073 284.576 486.073 282.317 486.073 280.027C490.634 280.027 495.174 280.027 499.755 280.027C499.757 286.876 499.757 293.723 499.757 300.612Z" fill="#1F1F28"/>
<path d="M389.726 286.89C389.726 284.621 389.726 282.352 389.726 280.04C394.301 280.04 398.851 280.04 403.441 280.04C403.441 282.294 403.441 284.552 403.441 286.873C398.859 286.873 394.285 286.873 389.711 286.873L389.726 286.89Z" fill="#1F1F28"/>
<path d="M486.045 314.41C486.045 312.142 486.045 309.872 486.045 307.562C488.324 307.562 490.583 307.562 492.879 307.562C492.879 309.814 492.879 312.072 492.879 314.394C490.593 314.394 488.311 314.394 486.029 314.394L486.045 314.41Z" fill="#1F1F28"/>
<path d="M492.95 321.306C495.225 321.306 497.471 321.306 499.758 321.306C499.758 323.569 499.758 325.828 499.758 328.123C497.499 328.123 495.241 328.123 492.95 328.123C492.95 325.865 492.95 323.62 492.95 321.306Z" fill="#1F1F28"/>
<path d="M437.886 273.131C437.886 270.863 437.886 268.594 437.886 266.284C440.166 266.284 442.423 266.284 444.72 266.284C444.72 268.535 444.72 270.793 444.72 273.115C442.434 273.115 440.151 273.115 437.869 273.115L437.886 273.131Z" fill="#1F1F28"/>
<path d="M417.248 335.032C414.979 335.032 412.71 335.032 410.4 335.032C410.4 332.75 410.4 330.491 410.4 328.168C412.682 328.168 414.965 328.168 417.248 328.168L417.231 328.152C417.231 330.451 417.231 332.749 417.231 335.048L417.248 335.032Z" fill="#1F1F28"/>
<path d="M486.045 341.93C486.045 339.662 486.045 337.393 486.045 335.082C488.324 335.082 490.583 335.082 492.879 335.082C492.879 337.333 492.879 339.592 492.879 341.914C490.593 341.914 488.311 341.914 486.029 341.914L486.045 341.93Z" fill="#1F1F28"/>
<path d="M479.15 293.768C481.419 293.768 483.689 293.768 485.999 293.768C485.999 296.051 485.999 298.309 485.999 300.632C483.716 300.632 481.434 300.632 479.15 300.632L479.167 300.648C479.167 298.349 479.167 296.051 479.167 293.752L479.15 293.768Z" fill="#1F1F28"/>
<path d="M444.719 362.534C442.43 362.534 440.185 362.534 437.91 362.534C437.91 360.263 437.91 358.018 437.91 355.727C440.159 355.727 442.418 355.727 444.719 355.727C444.719 357.971 444.719 360.229 444.719 362.534Z" fill="#1F1F28"/>
<path d="M458.513 362.55C458.513 364.818 458.513 367.087 458.513 369.398C456.234 369.398 453.975 369.398 451.679 369.398C451.679 367.147 451.679 364.889 451.679 362.567C453.965 362.567 456.247 362.567 458.529 362.567L458.513 362.55Z" fill="#1F1F28"/>
<path d="M499.758 369.415C497.473 369.415 495.228 369.415 492.951 369.415C492.951 367.145 492.951 364.9 492.951 362.608C495.198 362.608 497.457 362.608 499.758 362.608C499.758 364.848 499.758 367.108 499.758 369.415Z" fill="#1F1F28"/>
<path d="M444.769 307.513C442.501 307.513 440.232 307.513 437.922 307.513C437.922 305.233 437.922 302.976 437.922 300.679C440.173 300.679 442.431 300.679 444.753 300.679C444.753 302.965 444.753 305.248 444.753 307.53L444.769 307.513Z" fill="#1F1F28"/>
<path d="M389.679 259.334C382.805 259.334 375.972 259.334 369.11 259.334C369.11 252.476 369.11 245.644 369.11 238.766C375.948 238.766 382.793 238.766 389.679 238.766C389.679 245.598 389.679 252.444 389.679 259.334Z" fill="#1F1F28"/>
<path d="M465.425 259.319C465.425 252.445 465.425 245.614 465.425 238.751C472.283 238.751 479.114 238.751 485.993 238.751C485.993 245.586 485.993 252.432 485.993 259.319C479.162 259.319 472.317 259.319 465.425 259.319Z" fill="#1F1F28"/>
<path d="M369.105 355.639C369.105 348.766 369.105 341.934 369.105 335.071C375.963 335.071 382.795 335.071 389.673 335.071C389.673 341.908 389.673 348.752 389.673 355.639C382.843 355.639 375.997 355.639 369.105 355.639Z" fill="#1F1F28"/>
<path d="M375.321 208.692H345.211V241.918" stroke="#2563EB" stroke-width="2" stroke-miterlimit="10"/>
<path d="M484.86 208.692H514.97V241.918" stroke="#2563EB" stroke-width="2" stroke-miterlimit="10"/>
<path d="M375.321 383.677H345.211V350.453" stroke="#2563EB" stroke-width="2" stroke-miterlimit="10"/>
<path d="M484.86 383.677H514.97V350.453" stroke="#2563EB" stroke-width="2" stroke-miterlimit="10"/>
<path d="M244.037 174.283H232.062C229.945 174.283 228.229 172.567 228.229 170.45V136.917C228.229 134.8 229.945 133.084 232.062 133.084H244.037C246.154 133.084 247.87 134.8 247.87 136.917V170.45C247.87 172.567 246.154 174.283 244.037 174.283Z" fill="#1F1F28" stroke="#1F1F28" stroke-miterlimit="10"/>
<path d="M246.134 136.725H229.965V170.642H246.134V136.725Z" fill="white" stroke="#1F1F28" stroke-miterlimit="10"/>
<path d="M71.9358 335.016C78.5726 335.16 84.4088 332.555 88.2072 330.277C87.8939 339.444 87.6525 346.387 87.6525 346.387C87.6525 346.387 89.2333 349.154 90.0238 350.339C90.8142 351.525 97.5315 355.477 98.3219 359.033C99.1123 362.59 102.669 364.566 102.274 369.702C101.879 374.84 97.5315 369.307 98.3219 370.492C99.1123 371.678 101.484 375.63 101.484 379.186C101.484 382.741 93.9759 382.743 91.2094 380.371C88.4429 378 79.3544 372.469 78.5639 367.331L75.4856 355.867L71.9358 335.016Z" fill="white" stroke="#1F1F28" stroke-miterlimit="10"/>
<path d="M88.3466 363.508L90.2623 372.131C90.2623 372.131 96.4895 376.921 96.9695 380.275" fill="white"/>
<path d="M88.3466 363.508L90.2623 372.131C90.2623 372.131 96.4895 376.921 96.9695 380.275" stroke="#1F1F28" stroke-miterlimit="10"/>
<path d="M98.3219 370.492L95.5323 364.945" stroke="#1F1F28" stroke-miterlimit="10"/>
<path d="M119.396 545.701C119.396 545.701 117.147 564.193 118.896 566.442C120.645 568.691 123.394 571.441 127.393 571.939C131.391 572.44 138.138 570.19 138.138 570.19C138.138 570.19 144.886 572.189 152.132 571.439C159.378 570.689 164.126 567.941 164.626 564.442C165.126 560.944 158.879 559.443 155.381 555.695C151.883 551.947 146.311 545.306 146.311 545.306L144.886 540.451C144.886 540.451 136.389 544.7 130.892 544.95C125.395 545.2 121.647 544.2 121.647 544.2L119.396 545.701Z" fill="white" stroke="#1F1F28" stroke-miterlimit="10"/>
<path d="M164.626 564.443C164.688 564.008 164.646 563.602 164.517 563.22C162.856 563.903 160.74 564.736 158.13 565.694C150.634 568.443 146.885 566.194 143.137 566.194C139.388 566.194 139.138 570.192 128.643 567.443C121.786 565.646 119.206 563.324 118.235 561.925C118.255 564.131 118.438 565.852 118.898 566.444C120.647 568.693 123.396 571.442 127.394 571.941C131.392 572.441 138.14 570.192 138.14 570.192C138.14 570.192 144.887 572.191 152.133 571.441C159.379 570.69 164.126 567.941 164.626 564.443Z" fill="white" stroke="#1F1F28" stroke-miterlimit="10"/>
<path d="M106.071 316.082C106.071 316.082 96.0109 349.855 99.6038 373.568C103.197 397.281 120.443 441.833 120.443 441.833C120.443 441.833 118.287 458.36 118.287 464.109C118.287 469.857 113.257 480.636 116.85 492.133C120.443 503.63 120.443 533.81 120.443 535.966C120.443 538.122 119.005 549.619 119.005 549.619C119.005 549.619 121.88 553.93 132.658 553.93C143.437 553.93 146.311 545.308 146.311 545.308C146.311 545.308 157.09 481.354 157.09 471.294C157.09 461.234 168.587 423.868 172.899 408.778C177.21 393.688 182.466 384.081 185.34 379.051C188.214 374.021 186.551 313.208 186.551 313.208L104.634 306.022L106.071 316.082Z" fill="#0C2A69" stroke="#1F1F28" stroke-miterlimit="10"/>
<path d="M162.627 550.45C162.627 550.45 173.373 554.698 178.62 557.197C183.867 559.696 187.366 559.946 187.366 563.945C187.366 567.943 177.871 571.941 172.124 572.94C166.377 573.939 157.13 573.69 156.131 573.939C155.131 574.189 136.391 576.938 134.141 572.19C131.892 567.441 134.391 551.199 134.391 551.199C134.391 551.199 147.385 553.948 162.627 550.45Z" fill="white" stroke="#1F1F28" stroke-miterlimit="10"/>
<path d="M156.13 573.939C157.129 573.688 166.375 573.939 172.122 572.94C177.87 571.941 187.365 567.941 187.365 563.943C187.365 563.351 187.28 562.849 187.132 562.403C185.162 563.552 182.596 564.916 179.619 566.192C172.621 569.19 163.376 571.191 149.382 570.941C141.793 570.806 136.573 569.788 133.37 568.886C133.513 570.229 133.756 571.379 134.14 572.19C136.389 576.938 155.131 574.189 156.13 573.939Z" fill="white" stroke="#1F1F28" stroke-miterlimit="10"/>
<path d="M187.27 318.956C187.27 318.956 191.581 377.161 182.959 420.994C174.336 464.827 159.964 524.469 159.246 527.343C158.527 530.217 164.276 538.122 164.276 538.122V549.619C164.276 549.619 159.246 554.649 147.748 556.086C136.251 557.523 132.658 553.93 132.658 553.93C132.658 553.93 129.784 534.529 129.784 520.876C129.784 507.223 132.658 460.516 132.658 460.516C132.658 460.516 139.125 413.09 138.407 405.904C137.688 398.718 135.533 376.442 135.533 376.442L124.035 362.789" fill="#0C2A69"/>
<path d="M187.27 318.956C187.27 318.956 191.581 377.161 182.959 420.994C174.336 464.827 159.964 524.469 159.246 527.343C158.527 530.217 164.276 538.122 164.276 538.122V549.619C164.276 549.619 159.246 554.649 147.748 556.086C136.251 557.523 132.658 553.93 132.658 553.93C132.658 553.93 129.784 534.529 129.784 520.876C129.784 507.223 132.658 460.516 132.658 460.516C132.658 460.516 139.125 413.09 138.407 405.904C137.688 398.718 135.533 376.442 135.533 376.442L124.035 362.789" stroke="#1F1F28" stroke-miterlimit="10"/>
<path d="M66.489 308.011L89.0925 304.04C88.9919 307.104 89.6286 287.763 89.6286 286.321C89.6286 283.16 97.1362 263.402 97.1362 263.402C97.1362 263.402 103.063 289.088 103.063 292.25C103.063 295.411 100.692 319.517 103.853 322.677C107.015 325.839 118.08 332.161 142.58 331.37C167.081 330.58 185.258 328.604 190.001 323.863C194.743 319.122 189.21 304.5 188.815 302.524C188.42 300.548 195.138 248.78 195.138 248.78C195.138 248.78 221.615 276.442 237.421 272.49C253.228 268.538 245.719 206.893 245.719 206.893L246.509 189.11C246.509 189.11 251.647 176.069 251.647 174.093C251.647 172.117 246.509 157.89 246.509 157.89C246.509 157.89 243.348 155.124 241.372 161.843C239.396 168.56 239 172.907 239 172.907C239 172.907 234.258 176.464 234.653 181.601C235.048 186.738 236.629 190.689 236.629 190.689L225.96 225.464C225.96 225.464 214.105 212.028 213.314 209.657C212.524 207.285 212.919 198.592 203.04 193.454C193.161 188.318 173.008 187.923 173.008 187.923L117.289 188.318C117.289 188.318 91.208 190.689 85.2812 195.825C79.3529 200.963 61.1758 266.165 61.1758 276.044C61.1758 279.131 62.7955 288.696 65.0475 300.546L66.489 308.011Z" fill="white" stroke="#1F1F28" stroke-miterlimit="10"/>
<path d="M246.511 157.89C246.511 157.89 245.325 167.769 246.116 169.745C246.906 171.722 247.697 176.463 246.906 180.415" stroke="#1F1F28" stroke-miterlimit="10"/>
<path d="M237.422 272.49C253.23 268.538 245.72 206.893 245.72 206.893L245.897 202.902C241.402 199.663 236.997 199.632 233.628 200.479L225.961 225.467C225.961 225.467 214.106 212.031 213.316 209.659C212.525 207.288 212.92 198.595 203.041 193.457C193.162 188.321 173.009 187.925 173.009 187.925L117.291 188.321C117.291 188.321 91.2095 190.692 85.2826 195.828C79.3544 200.966 61.1773 266.168 61.1773 276.047C61.1773 281.908 67.0193 311.138 71.9358 335.018C78.5726 335.162 84.4089 332.556 88.2072 330.278C88.7922 313.195 89.6286 288.379 89.6286 286.323C89.6286 283.161 97.1363 263.403 97.1363 263.403C97.1363 263.403 103.063 289.089 103.063 292.251C103.063 295.413 100.692 319.518 103.854 322.678C107.015 325.84 118.08 332.162 142.58 331.372C167.081 330.581 185.258 328.605 190.001 323.864C194.743 319.123 189.21 304.501 188.815 302.525C188.42 300.549 195.139 248.782 195.139 248.782C195.139 248.782 221.615 276.442 237.422 272.49Z" fill="#2563EB" stroke="#1F1F28" stroke-miterlimit="10"/>
<path d="M89.3728 241.645L97.1377 263.402L81.1609 236.08" stroke="#1F1F28" stroke-miterlimit="10"/>
<path d="M84.9923 229.374L87.7373 237.066" stroke="#1F1F28" stroke-miterlimit="10"/>
<path d="M139.723 243.194C143.22 251.044 148.368 260.878 154.456 267.219" stroke="#1F1F28" stroke-miterlimit="10"/>
<path d="M134.814 230.811C134.814 230.811 135.893 234.049 137.821 238.746" stroke="#1F1F28" stroke-miterlimit="10"/>
<path d="M143.437 257.159C143.437 257.159 152.06 274.405 156.371 277.757" stroke="#1F1F28" stroke-miterlimit="10"/>
<path d="M208.661 236.247L211.942 233.206" stroke="#1F1F28" stroke-miterlimit="10"/>
<path d="M203.319 231.769L195.138 248.78L205.689 239.002" stroke="#1F1F28" stroke-miterlimit="10"/>
<path d="M240.685 241.35C240.206 237.997 225.963 225.465 225.963 225.465C225.963 225.465 240.685 231.29 244.516 236.56" stroke="#1F1F28" stroke-miterlimit="10"/>
<path d="M178.542 136.156C178.542 136.156 179.333 146.035 180.518 147.616C181.704 149.197 182.494 161.447 180.518 165.003C178.542 168.558 177.357 172.906 176.171 174.091C174.985 175.277 170.638 175.277 169.058 175.277C167.478 175.277 149.696 174.487 149.696 174.487L150.091 149.591C150.091 149.591 154.437 131.02 178.542 136.156Z" fill="white" stroke="#1F1F28" stroke-miterlimit="10"/>
<path d="M146.928 108.496C146.928 108.496 130.725 113.633 127.17 127.858C123.613 142.085 135.073 158.286 135.073 158.286C135.073 158.286 138.234 169.745 140.999 172.117C143.766 174.488 154.831 172.117 158.388 171.326C161.945 170.536 169.847 149.197 169.847 149.197C169.847 149.197 169.847 154.335 172.219 154.335C174.59 154.335 174.195 147.618 174.195 146.432C174.195 145.246 185.259 136.948 185.259 122.722C185.259 108.496 173.009 102.173 161.549 102.964C150.089 103.753 146.928 108.496 146.928 108.496Z" fill="#1F1F28" stroke="#1F1F28" stroke-miterlimit="10"/>
<path d="M180.517 187.134C180.517 187.134 178.146 178.835 176.96 177.65C175.774 176.464 168.267 171.723 156.016 170.933C143.766 170.142 125.589 170.537 124.008 171.328C122.427 172.118 122.032 178.835 122.032 178.835C122.032 178.835 116.894 183.578 115.71 186.343C114.524 189.11 113.339 190.295 124.403 199.384C135.468 208.472 141.396 212.029 152.856 209.263C164.316 206.496 180.913 189.9 180.913 189.9L180.517 187.134Z" fill="#2563EB" stroke="#1F1F28" stroke-miterlimit="10"/>
<path d="M152.251 192.727C163.254 189.282 174.59 182.391 174.59 182.391" stroke="#1F1F28" stroke-miterlimit="10"/>
<path d="M122.032 180.415C122.032 180.415 129.144 194.641 141.79 194.641C143.389 194.641 145.11 194.446 146.895 194.102" stroke="#1F1F28" stroke-miterlimit="10"/>
</g>
<defs>
<clipPath id="clip0_327_1533">
<rect width="600" height="600" fill="white" transform="translate(0.96344)"/>
</clipPath>
</defs>
</svg>
